%TF.GenerationSoftware,KiCad,Pcbnew,(5.1.9-0-10_14)*%
%TF.CreationDate,2021-03-18T20:01:26-04:00*%
%TF.ProjectId,T9_Cad,54395f43-6164-42e6-9b69-6361645f7063,rev?*%
%TF.SameCoordinates,Original*%
%TF.FileFunction,Copper,L2,Bot*%
%TF.FilePolarity,Positive*%
%FSLAX46Y46*%
G04 Gerber Fmt 4.6, Leading zero omitted, Abs format (unit mm)*
G04 Created by KiCad (PCBNEW (5.1.9-0-10_14)) date 2021-03-18 20:01:26*
%MOMM*%
%LPD*%
G01*
G04 APERTURE LIST*
%TA.AperFunction,ComponentPad*%
%ADD10R,2.200000X2.200000*%
%TD*%
%TA.AperFunction,ComponentPad*%
%ADD11O,2.200000X2.200000*%
%TD*%
%TA.AperFunction,ComponentPad*%
%ADD12C,2.200000*%
%TD*%
%TA.AperFunction,Conductor*%
%ADD13C,0.250000*%
%TD*%
%TA.AperFunction,NonConductor*%
%ADD14C,0.254000*%
%TD*%
%TA.AperFunction,NonConductor*%
%ADD15C,0.100000*%
%TD*%
G04 APERTURE END LIST*
D10*
%TO.P,D1,1*%
%TO.N,row1*%
X147955000Y-46990000D03*
D11*
%TO.P,D1,2*%
%TO.N,Net-(D1-Pad2)*%
X140335000Y-46990000D03*
%TD*%
%TO.P,D2,2*%
%TO.N,Net-(D2-Pad2)*%
X140335000Y-52705000D03*
D10*
%TO.P,D2,1*%
%TO.N,row2*%
X147955000Y-52705000D03*
%TD*%
%TO.P,D3,1*%
%TO.N,row3*%
X147955000Y-58420000D03*
D11*
%TO.P,D3,2*%
%TO.N,Net-(D3-Pad2)*%
X140335000Y-58420000D03*
%TD*%
%TO.P,D4,2*%
%TO.N,Net-(D4-Pad2)*%
X140335000Y-63500000D03*
D10*
%TO.P,D4,1*%
%TO.N,row4*%
X147955000Y-63500000D03*
%TD*%
D11*
%TO.P,D5,2*%
%TO.N,Net-(D5-Pad2)*%
X153670000Y-46990000D03*
D10*
%TO.P,D5,1*%
%TO.N,row1*%
X161290000Y-46990000D03*
%TD*%
D11*
%TO.P,D6,2*%
%TO.N,Net-(D6-Pad2)*%
X153670000Y-52705000D03*
D10*
%TO.P,D6,1*%
%TO.N,row2*%
X161290000Y-52705000D03*
%TD*%
D11*
%TO.P,D7,2*%
%TO.N,Net-(D7-Pad2)*%
X153670000Y-58420000D03*
D10*
%TO.P,D7,1*%
%TO.N,row3*%
X161290000Y-58420000D03*
%TD*%
%TO.P,D8,1*%
%TO.N,row4*%
X161290000Y-63500000D03*
D11*
%TO.P,D8,2*%
%TO.N,Net-(D8-Pad2)*%
X153670000Y-63500000D03*
%TD*%
D10*
%TO.P,D9,1*%
%TO.N,row1*%
X174625000Y-46990000D03*
D11*
%TO.P,D9,2*%
%TO.N,Net-(D9-Pad2)*%
X167005000Y-46990000D03*
%TD*%
%TO.P,D10,2*%
%TO.N,Net-(D10-Pad2)*%
X167005000Y-52705000D03*
D10*
%TO.P,D10,1*%
%TO.N,row2*%
X174625000Y-52705000D03*
%TD*%
%TO.P,D11,1*%
%TO.N,row3*%
X174625000Y-58420000D03*
D11*
%TO.P,D11,2*%
%TO.N,Net-(D11-Pad2)*%
X167005000Y-58420000D03*
%TD*%
%TO.P,D12,2*%
%TO.N,Net-(D12-Pad2)*%
X167005000Y-63500000D03*
D10*
%TO.P,D12,1*%
%TO.N,row4*%
X174625000Y-63500000D03*
%TD*%
D12*
%TO.P,SW1,1*%
%TO.N,col1*%
X151130000Y-71755000D03*
%TO.P,SW1,2*%
%TO.N,Net-(D1-Pad2)*%
X144780000Y-74295000D03*
%TD*%
%TO.P,SW2,2*%
%TO.N,Net-(D2-Pad2)*%
X144780000Y-94055001D03*
%TO.P,SW2,1*%
%TO.N,col1*%
X151130000Y-91515001D03*
%TD*%
%TO.P,SW3,1*%
%TO.N,col1*%
X151130000Y-111125000D03*
%TO.P,SW3,2*%
%TO.N,Net-(D3-Pad2)*%
X144780000Y-113665000D03*
%TD*%
%TO.P,SW4,2*%
%TO.N,Net-(D4-Pad2)*%
X144780000Y-133350000D03*
%TO.P,SW4,1*%
%TO.N,col1*%
X151130000Y-130810000D03*
%TD*%
%TO.P,SW5,2*%
%TO.N,Net-(D5-Pad2)*%
X164465000Y-74295000D03*
%TO.P,SW5,1*%
%TO.N,col2*%
X170815000Y-71755000D03*
%TD*%
%TO.P,SW6,1*%
%TO.N,col2*%
X170815000Y-91515001D03*
%TO.P,SW6,2*%
%TO.N,Net-(D6-Pad2)*%
X164465000Y-94055001D03*
%TD*%
%TO.P,SW7,2*%
%TO.N,Net-(D7-Pad2)*%
X164465000Y-113665000D03*
%TO.P,SW7,1*%
%TO.N,col2*%
X170815000Y-111125000D03*
%TD*%
%TO.P,SW8,1*%
%TO.N,col2*%
X170815000Y-130810000D03*
%TO.P,SW8,2*%
%TO.N,Net-(D8-Pad2)*%
X164465000Y-133350000D03*
%TD*%
%TO.P,SW9,1*%
%TO.N,col3*%
X190500000Y-71755000D03*
%TO.P,SW9,2*%
%TO.N,Net-(D9-Pad2)*%
X184150000Y-74295000D03*
%TD*%
%TO.P,SW10,2*%
%TO.N,Net-(D10-Pad2)*%
X184150000Y-94055001D03*
%TO.P,SW10,1*%
%TO.N,col3*%
X190500000Y-91515001D03*
%TD*%
%TO.P,SW11,1*%
%TO.N,col3*%
X190500000Y-111125000D03*
%TO.P,SW11,2*%
%TO.N,Net-(D11-Pad2)*%
X184150000Y-113665000D03*
%TD*%
%TO.P,SW12,2*%
%TO.N,Net-(D12-Pad2)*%
X184150000Y-133350000D03*
%TO.P,SW12,1*%
%TO.N,col3*%
X190500000Y-130810000D03*
%TD*%
D13*
%TO.N,Net-(D1-Pad2)*%
X146529999Y-53184999D02*
X146529999Y-72545001D01*
X146529999Y-72545001D02*
X144780000Y-74295000D01*
X140335000Y-46990000D02*
X146529999Y-53184999D01*
%TO.N,Net-(D2-Pad2)*%
X143354999Y-74940997D02*
X144780000Y-76365998D01*
X143354999Y-73610999D02*
X143354999Y-74940997D01*
X144780000Y-76365998D02*
X144780000Y-94055001D01*
X144095999Y-56465999D02*
X144095999Y-72869999D01*
X144095999Y-72869999D02*
X143354999Y-73610999D01*
X140335000Y-52705000D02*
X144095999Y-56465999D01*
%TO.N,Net-(D3-Pad2)*%
X142334999Y-111219999D02*
X144780000Y-113665000D01*
X142334999Y-60419999D02*
X142334999Y-111219999D01*
X140335000Y-58420000D02*
X142334999Y-60419999D01*
%TO.N,Net-(D4-Pad2)*%
X140335000Y-128905000D02*
X144780000Y-133350000D01*
X140335000Y-63500000D02*
X140335000Y-128905000D01*
%TO.N,Net-(D5-Pad2)*%
X164465000Y-53094998D02*
X164465000Y-74295000D01*
X158360002Y-46990000D02*
X164465000Y-53094998D01*
X153670000Y-46990000D02*
X158360002Y-46990000D01*
%TO.N,Net-(D6-Pad2)*%
X159864999Y-58899999D02*
X159864999Y-89455000D01*
X159864999Y-89455000D02*
X164465000Y-94055001D01*
X153670000Y-52705000D02*
X159864999Y-58899999D01*
%TO.N,Net-(D7-Pad2)*%
X159414989Y-108614989D02*
X164465000Y-113665000D01*
X159414989Y-64164989D02*
X159414989Y-108614989D01*
X153670000Y-58420000D02*
X159414989Y-64164989D01*
%TO.N,Net-(D8-Pad2)*%
X158964980Y-127849980D02*
X164465000Y-133350000D01*
X158964980Y-68794980D02*
X158964980Y-127849980D01*
X153670000Y-63500000D02*
X158964980Y-68794980D01*
%TO.N,Net-(D9-Pad2)*%
X181259990Y-71404990D02*
X184150000Y-74295000D01*
X181259990Y-62124992D02*
X181259990Y-71404990D01*
X167005000Y-46990000D02*
X167005000Y-47870002D01*
X167005000Y-47870002D02*
X181259990Y-62124992D01*
%TO.N,Net-(D10-Pad2)*%
X184150000Y-85890998D02*
X184150000Y-94055001D01*
X173199999Y-58899999D02*
X173199999Y-74940997D01*
X173199999Y-74940997D02*
X184150000Y-85890998D01*
X167005000Y-52705000D02*
X173199999Y-58899999D01*
%TO.N,Net-(D11-Pad2)*%
X184150000Y-102740999D02*
X184150000Y-113665000D01*
X172179999Y-90770998D02*
X184150000Y-102740999D01*
X172749990Y-75701008D02*
X172179999Y-76270999D01*
X172749990Y-64164990D02*
X172749990Y-75701008D01*
X172179999Y-76270999D02*
X172179999Y-90770998D01*
X167005000Y-58420000D02*
X172749990Y-64164990D01*
%TO.N,Net-(D12-Pad2)*%
X173919001Y-95420000D02*
X181704999Y-103205998D01*
X172610997Y-95420000D02*
X173919001Y-95420000D01*
X169389999Y-92199002D02*
X172610997Y-95420000D01*
X181704999Y-130904999D02*
X184150000Y-133350000D01*
X181704999Y-103205998D02*
X181704999Y-130904999D01*
X171729989Y-76848987D02*
X169389999Y-79188977D01*
X169389999Y-79188977D02*
X169389999Y-92199002D01*
X167005000Y-72123998D02*
X171729989Y-76848987D01*
X167005000Y-63500000D02*
X167005000Y-72123998D01*
%TD*%
D14*
X180950001Y-60740201D02*
X174652871Y-54443072D01*
X175725000Y-54443072D01*
X175849482Y-54430812D01*
X175969180Y-54394502D01*
X176079494Y-54335537D01*
X176176185Y-54256185D01*
X176255537Y-54159494D01*
X176314502Y-54049180D01*
X176350812Y-53929482D01*
X176363072Y-53805000D01*
X176363072Y-51605000D01*
X176350812Y-51480518D01*
X176314502Y-51360820D01*
X176255537Y-51250506D01*
X176176185Y-51153815D01*
X176079494Y-51074463D01*
X175969180Y-51015498D01*
X175849482Y-50979188D01*
X175725000Y-50966928D01*
X173525000Y-50966928D01*
X173400518Y-50979188D01*
X173280820Y-51015498D01*
X173170506Y-51074463D01*
X173073815Y-51153815D01*
X172994463Y-51250506D01*
X172935498Y-51360820D01*
X172899188Y-51480518D01*
X172886928Y-51605000D01*
X172886928Y-52677129D01*
X168329230Y-48119431D01*
X168352663Y-48095998D01*
X168542537Y-47811831D01*
X168673325Y-47496081D01*
X168740000Y-47160883D01*
X168740000Y-46819117D01*
X168673325Y-46483919D01*
X168542537Y-46168169D01*
X168356671Y-45890000D01*
X172886928Y-45890000D01*
X172886928Y-48090000D01*
X172899188Y-48214482D01*
X172935498Y-48334180D01*
X172994463Y-48444494D01*
X173073815Y-48541185D01*
X173170506Y-48620537D01*
X173280820Y-48679502D01*
X173400518Y-48715812D01*
X173525000Y-48728072D01*
X175725000Y-48728072D01*
X175849482Y-48715812D01*
X175969180Y-48679502D01*
X176079494Y-48620537D01*
X176176185Y-48541185D01*
X176255537Y-48444494D01*
X176314502Y-48334180D01*
X176350812Y-48214482D01*
X176363072Y-48090000D01*
X176363072Y-45890000D01*
X176350812Y-45765518D01*
X176314502Y-45645820D01*
X176255537Y-45535506D01*
X176176185Y-45438815D01*
X176079494Y-45359463D01*
X175969180Y-45300498D01*
X175849482Y-45264188D01*
X175725000Y-45251928D01*
X173525000Y-45251928D01*
X173400518Y-45264188D01*
X173280820Y-45300498D01*
X173170506Y-45359463D01*
X173073815Y-45438815D01*
X172994463Y-45535506D01*
X172935498Y-45645820D01*
X172899188Y-45765518D01*
X172886928Y-45890000D01*
X168356671Y-45890000D01*
X168352663Y-45884002D01*
X168110998Y-45642337D01*
X167826831Y-45452463D01*
X167511081Y-45321675D01*
X167175883Y-45255000D01*
X166834117Y-45255000D01*
X166498919Y-45321675D01*
X166183169Y-45452463D01*
X165899002Y-45642337D01*
X165657337Y-45884002D01*
X165467463Y-46168169D01*
X165336675Y-46483919D01*
X165270000Y-46819117D01*
X165270000Y-47160883D01*
X165336675Y-47496081D01*
X165467463Y-47811831D01*
X165657337Y-48095998D01*
X165899002Y-48337663D01*
X166183169Y-48527537D01*
X166498919Y-48658325D01*
X166773050Y-48712853D01*
X174742124Y-56681928D01*
X173525000Y-56681928D01*
X173400518Y-56694188D01*
X173280820Y-56730498D01*
X173170506Y-56789463D01*
X173073815Y-56868815D01*
X172994463Y-56965506D01*
X172935498Y-57075820D01*
X172899188Y-57195518D01*
X172886928Y-57320000D01*
X172886928Y-57512126D01*
X168647714Y-53272912D01*
X168673325Y-53211081D01*
X168740000Y-52875883D01*
X168740000Y-52534117D01*
X168673325Y-52198919D01*
X168542537Y-51883169D01*
X168352663Y-51599002D01*
X168110998Y-51357337D01*
X167826831Y-51167463D01*
X167511081Y-51036675D01*
X167175883Y-50970000D01*
X166834117Y-50970000D01*
X166498919Y-51036675D01*
X166183169Y-51167463D01*
X165899002Y-51357337D01*
X165657337Y-51599002D01*
X165467463Y-51883169D01*
X165336675Y-52198919D01*
X165270000Y-52534117D01*
X165270000Y-52875883D01*
X165336675Y-53211081D01*
X165467463Y-53526831D01*
X165657337Y-53810998D01*
X165899002Y-54052663D01*
X166183169Y-54242537D01*
X166498919Y-54373325D01*
X166834117Y-54440000D01*
X167175883Y-54440000D01*
X167511081Y-54373325D01*
X167572912Y-54347714D01*
X172439999Y-59214801D01*
X172439999Y-62780197D01*
X168647714Y-58987912D01*
X168673325Y-58926081D01*
X168740000Y-58590883D01*
X168740000Y-58249117D01*
X168673325Y-57913919D01*
X168542537Y-57598169D01*
X168352663Y-57314002D01*
X168110998Y-57072337D01*
X167826831Y-56882463D01*
X167511081Y-56751675D01*
X167175883Y-56685000D01*
X166834117Y-56685000D01*
X166498919Y-56751675D01*
X166183169Y-56882463D01*
X165899002Y-57072337D01*
X165657337Y-57314002D01*
X165467463Y-57598169D01*
X165336675Y-57913919D01*
X165270000Y-58249117D01*
X165270000Y-58590883D01*
X165336675Y-58926081D01*
X165467463Y-59241831D01*
X165657337Y-59525998D01*
X165899002Y-59767663D01*
X166183169Y-59957537D01*
X166498919Y-60088325D01*
X166834117Y-60155000D01*
X167175883Y-60155000D01*
X167511081Y-60088325D01*
X167572912Y-60062714D01*
X171989990Y-64479792D01*
X171989991Y-70476330D01*
X171920998Y-70407337D01*
X171636831Y-70217463D01*
X171321081Y-70086675D01*
X170985883Y-70020000D01*
X170644117Y-70020000D01*
X170308919Y-70086675D01*
X169993169Y-70217463D01*
X169709002Y-70407337D01*
X169467337Y-70649002D01*
X169277463Y-70933169D01*
X169146675Y-71248919D01*
X169080000Y-71584117D01*
X169080000Y-71925883D01*
X169146675Y-72261081D01*
X169277463Y-72576831D01*
X169467337Y-72860998D01*
X169709002Y-73102663D01*
X169993169Y-73292537D01*
X170308919Y-73423325D01*
X170644117Y-73490000D01*
X170985883Y-73490000D01*
X171321081Y-73423325D01*
X171636831Y-73292537D01*
X171920998Y-73102663D01*
X171989991Y-73033670D01*
X171989991Y-75386205D01*
X171669001Y-75707196D01*
X171665705Y-75709901D01*
X167765000Y-71809197D01*
X167765000Y-65063148D01*
X167826831Y-65037537D01*
X168110998Y-64847663D01*
X168352663Y-64605998D01*
X168542537Y-64321831D01*
X168673325Y-64006081D01*
X168740000Y-63670883D01*
X168740000Y-63329117D01*
X168673325Y-62993919D01*
X168542537Y-62678169D01*
X168352663Y-62394002D01*
X168110998Y-62152337D01*
X167826831Y-61962463D01*
X167511081Y-61831675D01*
X167175883Y-61765000D01*
X166834117Y-61765000D01*
X166498919Y-61831675D01*
X166183169Y-61962463D01*
X165899002Y-62152337D01*
X165657337Y-62394002D01*
X165467463Y-62678169D01*
X165336675Y-62993919D01*
X165270000Y-63329117D01*
X165270000Y-63670883D01*
X165336675Y-64006081D01*
X165467463Y-64321831D01*
X165657337Y-64605998D01*
X165899002Y-64847663D01*
X166183169Y-65037537D01*
X166245000Y-65063148D01*
X166245001Y-72086666D01*
X166241324Y-72123998D01*
X166245001Y-72161331D01*
X166245309Y-72164453D01*
X166255998Y-72272983D01*
X166299454Y-72416244D01*
X166370026Y-72548274D01*
X166397979Y-72582334D01*
X166465000Y-72663999D01*
X166493998Y-72687797D01*
X168007739Y-74201539D01*
X167506399Y-74301261D01*
X167026859Y-74499893D01*
X166595285Y-74788262D01*
X166228262Y-75155285D01*
X165939893Y-75586859D01*
X165741261Y-76066399D01*
X165640000Y-76575475D01*
X165640000Y-77094525D01*
X165741261Y-77603601D01*
X165939893Y-78083141D01*
X166228262Y-78514715D01*
X166595285Y-78881738D01*
X167026859Y-79170107D01*
X167506399Y-79368739D01*
X168015475Y-79470000D01*
X168534525Y-79470000D01*
X168629999Y-79451009D01*
X168630000Y-92161670D01*
X168626323Y-92199002D01*
X168630000Y-92236335D01*
X168638241Y-92320001D01*
X168640997Y-92347987D01*
X168684453Y-92491248D01*
X168755025Y-92623278D01*
X168824012Y-92707338D01*
X168849999Y-92739003D01*
X168878997Y-92762801D01*
X172029864Y-95913669D01*
X171927068Y-96161843D01*
X171870000Y-96448741D01*
X171870000Y-96741261D01*
X171927068Y-97028159D01*
X172039010Y-97298412D01*
X172201525Y-97541633D01*
X172408368Y-97748476D01*
X172651589Y-97910991D01*
X172921842Y-98022933D01*
X173208740Y-98080001D01*
X173501260Y-98080001D01*
X173788158Y-98022933D01*
X174058411Y-97910991D01*
X174301632Y-97748476D01*
X174508475Y-97541633D01*
X174670990Y-97298412D01*
X174686110Y-97261910D01*
X180944999Y-103520800D01*
X180945000Y-130867666D01*
X180941323Y-130904999D01*
X180955997Y-131053984D01*
X180999453Y-131197245D01*
X181070025Y-131329275D01*
X181141200Y-131416001D01*
X181164999Y-131445000D01*
X181193997Y-131468798D01*
X182507286Y-132782088D01*
X182481675Y-132843919D01*
X182415000Y-133179117D01*
X182415000Y-133520883D01*
X182481675Y-133856081D01*
X182612463Y-134171831D01*
X182768261Y-134405000D01*
X182733740Y-134405000D01*
X182446842Y-134462068D01*
X182176589Y-134574010D01*
X181933368Y-134736525D01*
X181726525Y-134943368D01*
X181564010Y-135186589D01*
X181452068Y-135456842D01*
X181395000Y-135743740D01*
X181395000Y-136036260D01*
X181452068Y-136323158D01*
X181564010Y-136593411D01*
X181726525Y-136836632D01*
X181933368Y-137043475D01*
X182176589Y-137205990D01*
X182446842Y-137317932D01*
X182733740Y-137375000D01*
X183026260Y-137375000D01*
X183313158Y-137317932D01*
X183583411Y-137205990D01*
X183826632Y-137043475D01*
X184033475Y-136836632D01*
X184195990Y-136593411D01*
X184307932Y-136323158D01*
X184365000Y-136036260D01*
X184365000Y-135743740D01*
X184342471Y-135630475D01*
X185325000Y-135630475D01*
X185325000Y-136149525D01*
X185426261Y-136658601D01*
X185624893Y-137138141D01*
X185913262Y-137569715D01*
X186280285Y-137936738D01*
X186711859Y-138225107D01*
X187191399Y-138423739D01*
X187700475Y-138525000D01*
X188219525Y-138525000D01*
X188728601Y-138423739D01*
X189208141Y-138225107D01*
X189639715Y-137936738D01*
X190006738Y-137569715D01*
X190295107Y-137138141D01*
X190493739Y-136658601D01*
X190595000Y-136149525D01*
X190595000Y-135743740D01*
X191555000Y-135743740D01*
X191555000Y-136036260D01*
X191612068Y-136323158D01*
X191724010Y-136593411D01*
X191886525Y-136836632D01*
X192093368Y-137043475D01*
X192336589Y-137205990D01*
X192606842Y-137317932D01*
X192893740Y-137375000D01*
X193186260Y-137375000D01*
X193473158Y-137317932D01*
X193743411Y-137205990D01*
X193986632Y-137043475D01*
X194193475Y-136836632D01*
X194355990Y-136593411D01*
X194467932Y-136323158D01*
X194525000Y-136036260D01*
X194525000Y-135743740D01*
X194467932Y-135456842D01*
X194355990Y-135186589D01*
X194193475Y-134943368D01*
X193986632Y-134736525D01*
X193743411Y-134574010D01*
X193473158Y-134462068D01*
X193186260Y-134405000D01*
X192893740Y-134405000D01*
X192606842Y-134462068D01*
X192336589Y-134574010D01*
X192093368Y-134736525D01*
X191886525Y-134943368D01*
X191724010Y-135186589D01*
X191612068Y-135456842D01*
X191555000Y-135743740D01*
X190595000Y-135743740D01*
X190595000Y-135630475D01*
X190493739Y-135121399D01*
X190295107Y-134641859D01*
X190006738Y-134210285D01*
X189639715Y-133843262D01*
X189208141Y-133554893D01*
X188728601Y-133356261D01*
X188219525Y-133255000D01*
X187700475Y-133255000D01*
X187191399Y-133356261D01*
X186711859Y-133554893D01*
X186280285Y-133843262D01*
X185913262Y-134210285D01*
X185624893Y-134641859D01*
X185426261Y-135121399D01*
X185325000Y-135630475D01*
X184342471Y-135630475D01*
X184307932Y-135456842D01*
X184195990Y-135186589D01*
X184128110Y-135085000D01*
X184320883Y-135085000D01*
X184656081Y-135018325D01*
X184971831Y-134887537D01*
X185255998Y-134697663D01*
X185497663Y-134455998D01*
X185687537Y-134171831D01*
X185818325Y-133856081D01*
X185885000Y-133520883D01*
X185885000Y-133179117D01*
X185818325Y-132843919D01*
X185687537Y-132528169D01*
X185497663Y-132244002D01*
X185255998Y-132002337D01*
X184971831Y-131812463D01*
X184656081Y-131681675D01*
X184320883Y-131615000D01*
X183979117Y-131615000D01*
X183643919Y-131681675D01*
X183582088Y-131707286D01*
X182513919Y-130639117D01*
X188765000Y-130639117D01*
X188765000Y-130980883D01*
X188831675Y-131316081D01*
X188962463Y-131631831D01*
X189152337Y-131915998D01*
X189394002Y-132157663D01*
X189678169Y-132347537D01*
X189993919Y-132478325D01*
X190329117Y-132545000D01*
X190670883Y-132545000D01*
X191006081Y-132478325D01*
X191321831Y-132347537D01*
X191605998Y-132157663D01*
X191847663Y-131915998D01*
X192037537Y-131631831D01*
X192168325Y-131316081D01*
X192235000Y-130980883D01*
X192235000Y-130639117D01*
X192168325Y-130303919D01*
X192037537Y-129988169D01*
X191847663Y-129704002D01*
X191605998Y-129462337D01*
X191321831Y-129272463D01*
X191006081Y-129141675D01*
X190670883Y-129075000D01*
X190329117Y-129075000D01*
X189993919Y-129141675D01*
X189678169Y-129272463D01*
X189394002Y-129462337D01*
X189152337Y-129704002D01*
X188962463Y-129988169D01*
X188831675Y-130303919D01*
X188765000Y-130639117D01*
X182513919Y-130639117D01*
X182464999Y-130590198D01*
X182464999Y-117636544D01*
X182733740Y-117690000D01*
X183026260Y-117690000D01*
X183313158Y-117632932D01*
X183583411Y-117520990D01*
X183826632Y-117358475D01*
X184033475Y-117151632D01*
X184195990Y-116908411D01*
X184307932Y-116638158D01*
X184365000Y-116351260D01*
X184365000Y-116058740D01*
X184342471Y-115945475D01*
X185325000Y-115945475D01*
X185325000Y-116464525D01*
X185426261Y-116973601D01*
X185624893Y-117453141D01*
X185913262Y-117884715D01*
X186280285Y-118251738D01*
X186711859Y-118540107D01*
X187191399Y-118738739D01*
X187700475Y-118840000D01*
X188219525Y-118840000D01*
X188728601Y-118738739D01*
X189208141Y-118540107D01*
X189639715Y-118251738D01*
X190006738Y-117884715D01*
X190295107Y-117453141D01*
X190493739Y-116973601D01*
X190595000Y-116464525D01*
X190595000Y-116058740D01*
X191555000Y-116058740D01*
X191555000Y-116351260D01*
X191612068Y-116638158D01*
X191724010Y-116908411D01*
X191886525Y-117151632D01*
X192093368Y-117358475D01*
X192336589Y-117520990D01*
X192606842Y-117632932D01*
X192893740Y-117690000D01*
X193186260Y-117690000D01*
X193473158Y-117632932D01*
X193743411Y-117520990D01*
X193986632Y-117358475D01*
X194193475Y-117151632D01*
X194355990Y-116908411D01*
X194467932Y-116638158D01*
X194525000Y-116351260D01*
X194525000Y-116058740D01*
X194467932Y-115771842D01*
X194355990Y-115501589D01*
X194193475Y-115258368D01*
X193986632Y-115051525D01*
X193743411Y-114889010D01*
X193473158Y-114777068D01*
X193186260Y-114720000D01*
X192893740Y-114720000D01*
X192606842Y-114777068D01*
X192336589Y-114889010D01*
X192093368Y-115051525D01*
X191886525Y-115258368D01*
X191724010Y-115501589D01*
X191612068Y-115771842D01*
X191555000Y-116058740D01*
X190595000Y-116058740D01*
X190595000Y-115945475D01*
X190493739Y-115436399D01*
X190295107Y-114956859D01*
X190006738Y-114525285D01*
X189639715Y-114158262D01*
X189208141Y-113869893D01*
X188728601Y-113671261D01*
X188219525Y-113570000D01*
X187700475Y-113570000D01*
X187191399Y-113671261D01*
X186711859Y-113869893D01*
X186280285Y-114158262D01*
X185913262Y-114525285D01*
X185624893Y-114956859D01*
X185426261Y-115436399D01*
X185325000Y-115945475D01*
X184342471Y-115945475D01*
X184307932Y-115771842D01*
X184195990Y-115501589D01*
X184128110Y-115400000D01*
X184320883Y-115400000D01*
X184656081Y-115333325D01*
X184971831Y-115202537D01*
X185255998Y-115012663D01*
X185497663Y-114770998D01*
X185687537Y-114486831D01*
X185818325Y-114171081D01*
X185885000Y-113835883D01*
X185885000Y-113494117D01*
X185818325Y-113158919D01*
X185687537Y-112843169D01*
X185497663Y-112559002D01*
X185255998Y-112317337D01*
X184971831Y-112127463D01*
X184910000Y-112101852D01*
X184910000Y-110954117D01*
X188765000Y-110954117D01*
X188765000Y-111295883D01*
X188831675Y-111631081D01*
X188962463Y-111946831D01*
X189152337Y-112230998D01*
X189394002Y-112472663D01*
X189678169Y-112662537D01*
X189993919Y-112793325D01*
X190329117Y-112860000D01*
X190670883Y-112860000D01*
X191006081Y-112793325D01*
X191321831Y-112662537D01*
X191605998Y-112472663D01*
X191847663Y-112230998D01*
X192037537Y-111946831D01*
X192168325Y-111631081D01*
X192235000Y-111295883D01*
X192235000Y-110954117D01*
X192168325Y-110618919D01*
X192037537Y-110303169D01*
X191847663Y-110019002D01*
X191605998Y-109777337D01*
X191321831Y-109587463D01*
X191006081Y-109456675D01*
X190670883Y-109390000D01*
X190329117Y-109390000D01*
X189993919Y-109456675D01*
X189678169Y-109587463D01*
X189394002Y-109777337D01*
X189152337Y-110019002D01*
X188962463Y-110303169D01*
X188831675Y-110618919D01*
X188765000Y-110954117D01*
X184910000Y-110954117D01*
X184910000Y-102778324D01*
X184913676Y-102740999D01*
X184910000Y-102703674D01*
X184910000Y-102703666D01*
X184899003Y-102592013D01*
X184855546Y-102448752D01*
X184784974Y-102316723D01*
X184690001Y-102200998D01*
X184661004Y-102177201D01*
X172939999Y-90456197D01*
X172939999Y-78266544D01*
X173208740Y-78320000D01*
X173501260Y-78320000D01*
X173788158Y-78262932D01*
X174058411Y-78150990D01*
X174301632Y-77988475D01*
X174508475Y-77781632D01*
X174670990Y-77538411D01*
X174686110Y-77501909D01*
X183390000Y-86205800D01*
X183390001Y-92491852D01*
X183328169Y-92517464D01*
X183044002Y-92707338D01*
X182802337Y-92949003D01*
X182612463Y-93233170D01*
X182481675Y-93548920D01*
X182415000Y-93884118D01*
X182415000Y-94225884D01*
X182481675Y-94561082D01*
X182612463Y-94876832D01*
X182768261Y-95110001D01*
X182733740Y-95110001D01*
X182446842Y-95167069D01*
X182176589Y-95279011D01*
X181933368Y-95441526D01*
X181726525Y-95648369D01*
X181564010Y-95891590D01*
X181452068Y-96161843D01*
X181395000Y-96448741D01*
X181395000Y-96741261D01*
X181452068Y-97028159D01*
X181564010Y-97298412D01*
X181726525Y-97541633D01*
X181933368Y-97748476D01*
X182176589Y-97910991D01*
X182446842Y-98022933D01*
X182733740Y-98080001D01*
X183026260Y-98080001D01*
X183313158Y-98022933D01*
X183583411Y-97910991D01*
X183826632Y-97748476D01*
X184033475Y-97541633D01*
X184195990Y-97298412D01*
X184307932Y-97028159D01*
X184365000Y-96741261D01*
X184365000Y-96448741D01*
X184342471Y-96335476D01*
X185325000Y-96335476D01*
X185325000Y-96854526D01*
X185426261Y-97363602D01*
X185624893Y-97843142D01*
X185913262Y-98274716D01*
X186280285Y-98641739D01*
X186711859Y-98930108D01*
X187191399Y-99128740D01*
X187700475Y-99230001D01*
X188219525Y-99230001D01*
X188728601Y-99128740D01*
X189208141Y-98930108D01*
X189639715Y-98641739D01*
X190006738Y-98274716D01*
X190295107Y-97843142D01*
X190493739Y-97363602D01*
X190595000Y-96854526D01*
X190595000Y-96448741D01*
X191555000Y-96448741D01*
X191555000Y-96741261D01*
X191612068Y-97028159D01*
X191724010Y-97298412D01*
X191886525Y-97541633D01*
X192093368Y-97748476D01*
X192336589Y-97910991D01*
X192606842Y-98022933D01*
X192893740Y-98080001D01*
X193186260Y-98080001D01*
X193473158Y-98022933D01*
X193743411Y-97910991D01*
X193986632Y-97748476D01*
X194193475Y-97541633D01*
X194355990Y-97298412D01*
X194467932Y-97028159D01*
X194525000Y-96741261D01*
X194525000Y-96448741D01*
X194467932Y-96161843D01*
X194355990Y-95891590D01*
X194193475Y-95648369D01*
X193986632Y-95441526D01*
X193743411Y-95279011D01*
X193473158Y-95167069D01*
X193186260Y-95110001D01*
X192893740Y-95110001D01*
X192606842Y-95167069D01*
X192336589Y-95279011D01*
X192093368Y-95441526D01*
X191886525Y-95648369D01*
X191724010Y-95891590D01*
X191612068Y-96161843D01*
X191555000Y-96448741D01*
X190595000Y-96448741D01*
X190595000Y-96335476D01*
X190493739Y-95826400D01*
X190295107Y-95346860D01*
X190006738Y-94915286D01*
X189639715Y-94548263D01*
X189208141Y-94259894D01*
X188728601Y-94061262D01*
X188219525Y-93960001D01*
X187700475Y-93960001D01*
X187191399Y-94061262D01*
X186711859Y-94259894D01*
X186280285Y-94548263D01*
X185913262Y-94915286D01*
X185624893Y-95346860D01*
X185426261Y-95826400D01*
X185325000Y-96335476D01*
X184342471Y-96335476D01*
X184307932Y-96161843D01*
X184195990Y-95891590D01*
X184128110Y-95790001D01*
X184320883Y-95790001D01*
X184656081Y-95723326D01*
X184971831Y-95592538D01*
X185255998Y-95402664D01*
X185497663Y-95160999D01*
X185687537Y-94876832D01*
X185818325Y-94561082D01*
X185885000Y-94225884D01*
X185885000Y-93884118D01*
X185818325Y-93548920D01*
X185687537Y-93233170D01*
X185497663Y-92949003D01*
X185255998Y-92707338D01*
X184971831Y-92517464D01*
X184910000Y-92491853D01*
X184910000Y-91344118D01*
X188765000Y-91344118D01*
X188765000Y-91685884D01*
X188831675Y-92021082D01*
X188962463Y-92336832D01*
X189152337Y-92620999D01*
X189394002Y-92862664D01*
X189678169Y-93052538D01*
X189993919Y-93183326D01*
X190329117Y-93250001D01*
X190670883Y-93250001D01*
X191006081Y-93183326D01*
X191321831Y-93052538D01*
X191605998Y-92862664D01*
X191847663Y-92620999D01*
X192037537Y-92336832D01*
X192168325Y-92021082D01*
X192235000Y-91685884D01*
X192235000Y-91344118D01*
X192168325Y-91008920D01*
X192037537Y-90693170D01*
X191847663Y-90409003D01*
X191605998Y-90167338D01*
X191321831Y-89977464D01*
X191006081Y-89846676D01*
X190670883Y-89780001D01*
X190329117Y-89780001D01*
X189993919Y-89846676D01*
X189678169Y-89977464D01*
X189394002Y-90167338D01*
X189152337Y-90409003D01*
X188962463Y-90693170D01*
X188831675Y-91008920D01*
X188765000Y-91344118D01*
X184910000Y-91344118D01*
X184910000Y-85928321D01*
X184913676Y-85890998D01*
X184910000Y-85853675D01*
X184910000Y-85853665D01*
X184899003Y-85742012D01*
X184855546Y-85598751D01*
X184784975Y-85466723D01*
X184784974Y-85466721D01*
X184713799Y-85379995D01*
X184690001Y-85350997D01*
X184661004Y-85327200D01*
X173959999Y-74626196D01*
X173959999Y-65238072D01*
X175725000Y-65238072D01*
X175849482Y-65225812D01*
X175969180Y-65189502D01*
X176079494Y-65130537D01*
X176176185Y-65051185D01*
X176255537Y-64954494D01*
X176314502Y-64844180D01*
X176350812Y-64724482D01*
X176363072Y-64600000D01*
X176363072Y-62400000D01*
X176350812Y-62275518D01*
X176314502Y-62155820D01*
X176255537Y-62045506D01*
X176176185Y-61948815D01*
X176079494Y-61869463D01*
X175969180Y-61810498D01*
X175849482Y-61774188D01*
X175725000Y-61761928D01*
X173959999Y-61761928D01*
X173959999Y-60158072D01*
X175725000Y-60158072D01*
X175849482Y-60145812D01*
X175969180Y-60109502D01*
X176079494Y-60050537D01*
X176176185Y-59971185D01*
X176255537Y-59874494D01*
X176314502Y-59764180D01*
X176350812Y-59644482D01*
X176363072Y-59520000D01*
X176363072Y-58302876D01*
X180499990Y-62439794D01*
X180499991Y-71367658D01*
X180496314Y-71404990D01*
X180510988Y-71553975D01*
X180554444Y-71697236D01*
X180625016Y-71829266D01*
X180696191Y-71915992D01*
X180719990Y-71944991D01*
X180748988Y-71968789D01*
X182507286Y-73727088D01*
X182481675Y-73788919D01*
X182415000Y-74124117D01*
X182415000Y-74465883D01*
X182481675Y-74801081D01*
X182612463Y-75116831D01*
X182768261Y-75350000D01*
X182733740Y-75350000D01*
X182446842Y-75407068D01*
X182176589Y-75519010D01*
X181933368Y-75681525D01*
X181726525Y-75888368D01*
X181564010Y-76131589D01*
X181452068Y-76401842D01*
X181395000Y-76688740D01*
X181395000Y-76981260D01*
X181452068Y-77268158D01*
X181564010Y-77538411D01*
X181726525Y-77781632D01*
X181933368Y-77988475D01*
X182176589Y-78150990D01*
X182446842Y-78262932D01*
X182733740Y-78320000D01*
X183026260Y-78320000D01*
X183313158Y-78262932D01*
X183583411Y-78150990D01*
X183826632Y-77988475D01*
X184033475Y-77781632D01*
X184195990Y-77538411D01*
X184307932Y-77268158D01*
X184365000Y-76981260D01*
X184365000Y-76688740D01*
X184342471Y-76575475D01*
X185325000Y-76575475D01*
X185325000Y-77094525D01*
X185426261Y-77603601D01*
X185624893Y-78083141D01*
X185913262Y-78514715D01*
X186280285Y-78881738D01*
X186711859Y-79170107D01*
X187191399Y-79368739D01*
X187700475Y-79470000D01*
X188219525Y-79470000D01*
X188728601Y-79368739D01*
X189208141Y-79170107D01*
X189639715Y-78881738D01*
X190006738Y-78514715D01*
X190295107Y-78083141D01*
X190493739Y-77603601D01*
X190595000Y-77094525D01*
X190595000Y-76688740D01*
X191555000Y-76688740D01*
X191555000Y-76981260D01*
X191612068Y-77268158D01*
X191724010Y-77538411D01*
X191886525Y-77781632D01*
X192093368Y-77988475D01*
X192336589Y-78150990D01*
X192606842Y-78262932D01*
X192893740Y-78320000D01*
X193186260Y-78320000D01*
X193473158Y-78262932D01*
X193743411Y-78150990D01*
X193986632Y-77988475D01*
X194193475Y-77781632D01*
X194355990Y-77538411D01*
X194467932Y-77268158D01*
X194525000Y-76981260D01*
X194525000Y-76688740D01*
X194467932Y-76401842D01*
X194355990Y-76131589D01*
X194193475Y-75888368D01*
X193986632Y-75681525D01*
X193743411Y-75519010D01*
X193473158Y-75407068D01*
X193186260Y-75350000D01*
X192893740Y-75350000D01*
X192606842Y-75407068D01*
X192336589Y-75519010D01*
X192093368Y-75681525D01*
X191886525Y-75888368D01*
X191724010Y-76131589D01*
X191612068Y-76401842D01*
X191555000Y-76688740D01*
X190595000Y-76688740D01*
X190595000Y-76575475D01*
X190493739Y-76066399D01*
X190295107Y-75586859D01*
X190006738Y-75155285D01*
X189639715Y-74788262D01*
X189208141Y-74499893D01*
X188728601Y-74301261D01*
X188219525Y-74200000D01*
X187700475Y-74200000D01*
X187191399Y-74301261D01*
X186711859Y-74499893D01*
X186280285Y-74788262D01*
X185913262Y-75155285D01*
X185624893Y-75586859D01*
X185426261Y-76066399D01*
X185325000Y-76575475D01*
X184342471Y-76575475D01*
X184307932Y-76401842D01*
X184195990Y-76131589D01*
X184128110Y-76030000D01*
X184320883Y-76030000D01*
X184656081Y-75963325D01*
X184971831Y-75832537D01*
X185255998Y-75642663D01*
X185497663Y-75400998D01*
X185687537Y-75116831D01*
X185818325Y-74801081D01*
X185885000Y-74465883D01*
X185885000Y-74124117D01*
X185818325Y-73788919D01*
X185687537Y-73473169D01*
X185497663Y-73189002D01*
X185255998Y-72947337D01*
X184971831Y-72757463D01*
X184656081Y-72626675D01*
X184320883Y-72560000D01*
X183979117Y-72560000D01*
X183643919Y-72626675D01*
X183582088Y-72652286D01*
X182513919Y-71584117D01*
X188765000Y-71584117D01*
X188765000Y-71925883D01*
X188831675Y-72261081D01*
X188962463Y-72576831D01*
X189152337Y-72860998D01*
X189394002Y-73102663D01*
X189678169Y-73292537D01*
X189993919Y-73423325D01*
X190329117Y-73490000D01*
X190670883Y-73490000D01*
X191006081Y-73423325D01*
X191321831Y-73292537D01*
X191605998Y-73102663D01*
X191847663Y-72860998D01*
X192037537Y-72576831D01*
X192168325Y-72261081D01*
X192235000Y-71925883D01*
X192235000Y-71584117D01*
X192168325Y-71248919D01*
X192037537Y-70933169D01*
X191847663Y-70649002D01*
X191605998Y-70407337D01*
X191321831Y-70217463D01*
X191006081Y-70086675D01*
X190670883Y-70020000D01*
X190329117Y-70020000D01*
X189993919Y-70086675D01*
X189678169Y-70217463D01*
X189394002Y-70407337D01*
X189152337Y-70649002D01*
X188962463Y-70933169D01*
X188831675Y-71248919D01*
X188765000Y-71584117D01*
X182513919Y-71584117D01*
X182019990Y-71090189D01*
X182019990Y-65938000D01*
X194277581Y-65938000D01*
X194310000Y-65941193D01*
X194342419Y-65938000D01*
X194439383Y-65928450D01*
X194563793Y-65890710D01*
X194678450Y-65829425D01*
X194778948Y-65746948D01*
X194861425Y-65646450D01*
X194922710Y-65531793D01*
X194960450Y-65407383D01*
X194973193Y-65278000D01*
X194970000Y-65245581D01*
X194970000Y-48620701D01*
X199780000Y-48620701D01*
X199780000Y-49169299D01*
X199887026Y-49707354D01*
X200096965Y-50214192D01*
X200401750Y-50670334D01*
X200789666Y-51058250D01*
X201245808Y-51363035D01*
X201752646Y-51572974D01*
X202290701Y-51680000D01*
X202839299Y-51680000D01*
X203377354Y-51572974D01*
X203884192Y-51363035D01*
X204340334Y-51058250D01*
X204728250Y-50670334D01*
X205033035Y-50214192D01*
X205242974Y-49707354D01*
X205350000Y-49169299D01*
X205350000Y-48620701D01*
X205242974Y-48082646D01*
X205033035Y-47575808D01*
X204728250Y-47119666D01*
X204340334Y-46731750D01*
X203884192Y-46426965D01*
X203377354Y-46217026D01*
X202839299Y-46110000D01*
X202290701Y-46110000D01*
X201752646Y-46217026D01*
X201245808Y-46426965D01*
X200789666Y-46731750D01*
X200401750Y-47119666D01*
X200096965Y-47575808D01*
X199887026Y-48082646D01*
X199780000Y-48620701D01*
X194970000Y-48620701D01*
X194970000Y-43205000D01*
X207620000Y-43205000D01*
X207620001Y-146660000D01*
X128930000Y-146660000D01*
X128930000Y-141330701D01*
X131200000Y-141330701D01*
X131200000Y-141879299D01*
X131307026Y-142417354D01*
X131516965Y-142924192D01*
X131821750Y-143380334D01*
X132209666Y-143768250D01*
X132665808Y-144073035D01*
X133172646Y-144282974D01*
X133710701Y-144390000D01*
X134259299Y-144390000D01*
X134797354Y-144282974D01*
X135304192Y-144073035D01*
X135760334Y-143768250D01*
X136148250Y-143380334D01*
X136453035Y-142924192D01*
X136662974Y-142417354D01*
X136770000Y-141879299D01*
X136770000Y-141330701D01*
X199780000Y-141330701D01*
X199780000Y-141879299D01*
X199887026Y-142417354D01*
X200096965Y-142924192D01*
X200401750Y-143380334D01*
X200789666Y-143768250D01*
X201245808Y-144073035D01*
X201752646Y-144282974D01*
X202290701Y-144390000D01*
X202839299Y-144390000D01*
X203377354Y-144282974D01*
X203884192Y-144073035D01*
X204340334Y-143768250D01*
X204728250Y-143380334D01*
X205033035Y-142924192D01*
X205242974Y-142417354D01*
X205350000Y-141879299D01*
X205350000Y-141330701D01*
X205242974Y-140792646D01*
X205033035Y-140285808D01*
X204728250Y-139829666D01*
X204340334Y-139441750D01*
X203884192Y-139136965D01*
X203377354Y-138927026D01*
X202839299Y-138820000D01*
X202290701Y-138820000D01*
X201752646Y-138927026D01*
X201245808Y-139136965D01*
X200789666Y-139441750D01*
X200401750Y-139829666D01*
X200096965Y-140285808D01*
X199887026Y-140792646D01*
X199780000Y-141330701D01*
X136770000Y-141330701D01*
X136662974Y-140792646D01*
X136453035Y-140285808D01*
X136148250Y-139829666D01*
X135760334Y-139441750D01*
X135304192Y-139136965D01*
X134797354Y-138927026D01*
X134259299Y-138820000D01*
X133710701Y-138820000D01*
X133172646Y-138927026D01*
X132665808Y-139136965D01*
X132209666Y-139441750D01*
X131821750Y-139829666D01*
X131516965Y-140285808D01*
X131307026Y-140792646D01*
X131200000Y-141330701D01*
X128930000Y-141330701D01*
X128930000Y-48620701D01*
X131200000Y-48620701D01*
X131200000Y-49169299D01*
X131307026Y-49707354D01*
X131516965Y-50214192D01*
X131821750Y-50670334D01*
X132209666Y-51058250D01*
X132665808Y-51363035D01*
X133172646Y-51572974D01*
X133710701Y-51680000D01*
X134259299Y-51680000D01*
X134797354Y-51572974D01*
X135304192Y-51363035D01*
X135760334Y-51058250D01*
X136148250Y-50670334D01*
X136453035Y-50214192D01*
X136662974Y-49707354D01*
X136770000Y-49169299D01*
X136770000Y-48620701D01*
X136662974Y-48082646D01*
X136453035Y-47575808D01*
X136148250Y-47119666D01*
X135847701Y-46819117D01*
X138600000Y-46819117D01*
X138600000Y-47160883D01*
X138666675Y-47496081D01*
X138797463Y-47811831D01*
X138987337Y-48095998D01*
X139229002Y-48337663D01*
X139513169Y-48527537D01*
X139828919Y-48658325D01*
X140164117Y-48725000D01*
X140505883Y-48725000D01*
X140841081Y-48658325D01*
X140902912Y-48632714D01*
X145769999Y-53499801D01*
X145770000Y-72230198D01*
X145347912Y-72652286D01*
X145286081Y-72626675D01*
X144950883Y-72560000D01*
X144855999Y-72560000D01*
X144855999Y-56503324D01*
X144859675Y-56465999D01*
X144855999Y-56428674D01*
X144855999Y-56428666D01*
X144845002Y-56317013D01*
X144801545Y-56173752D01*
X144730973Y-56041723D01*
X144636000Y-55925998D01*
X144607003Y-55902201D01*
X141977714Y-53272912D01*
X142003325Y-53211081D01*
X142070000Y-52875883D01*
X142070000Y-52534117D01*
X142003325Y-52198919D01*
X141872537Y-51883169D01*
X141682663Y-51599002D01*
X141440998Y-51357337D01*
X141156831Y-51167463D01*
X140841081Y-51036675D01*
X140505883Y-50970000D01*
X140164117Y-50970000D01*
X139828919Y-51036675D01*
X139513169Y-51167463D01*
X139229002Y-51357337D01*
X138987337Y-51599002D01*
X138797463Y-51883169D01*
X138666675Y-52198919D01*
X138600000Y-52534117D01*
X138600000Y-52875883D01*
X138666675Y-53211081D01*
X138797463Y-53526831D01*
X138987337Y-53810998D01*
X139229002Y-54052663D01*
X139513169Y-54242537D01*
X139828919Y-54373325D01*
X140164117Y-54440000D01*
X140505883Y-54440000D01*
X140841081Y-54373325D01*
X140902912Y-54347714D01*
X143335999Y-56780801D01*
X143336000Y-72555196D01*
X143094999Y-72796198D01*
X143094999Y-60457324D01*
X143098675Y-60419999D01*
X143094999Y-60382674D01*
X143094999Y-60382666D01*
X143084002Y-60271013D01*
X143040545Y-60127752D01*
X142969973Y-59995723D01*
X142875000Y-59879998D01*
X142846003Y-59856201D01*
X141977714Y-58987912D01*
X142003325Y-58926081D01*
X142070000Y-58590883D01*
X142070000Y-58249117D01*
X142003325Y-57913919D01*
X141872537Y-57598169D01*
X141682663Y-57314002D01*
X141440998Y-57072337D01*
X141156831Y-56882463D01*
X140841081Y-56751675D01*
X140505883Y-56685000D01*
X140164117Y-56685000D01*
X139828919Y-56751675D01*
X139513169Y-56882463D01*
X139229002Y-57072337D01*
X138987337Y-57314002D01*
X138797463Y-57598169D01*
X138666675Y-57913919D01*
X138600000Y-58249117D01*
X138600000Y-58590883D01*
X138666675Y-58926081D01*
X138797463Y-59241831D01*
X138987337Y-59525998D01*
X139229002Y-59767663D01*
X139513169Y-59957537D01*
X139828919Y-60088325D01*
X140164117Y-60155000D01*
X140505883Y-60155000D01*
X140841081Y-60088325D01*
X140902912Y-60062714D01*
X141574999Y-60734801D01*
X141574999Y-62286338D01*
X141440998Y-62152337D01*
X141156831Y-61962463D01*
X140841081Y-61831675D01*
X140505883Y-61765000D01*
X140164117Y-61765000D01*
X139828919Y-61831675D01*
X139513169Y-61962463D01*
X139229002Y-62152337D01*
X138987337Y-62394002D01*
X138797463Y-62678169D01*
X138666675Y-62993919D01*
X138600000Y-63329117D01*
X138600000Y-63670883D01*
X138666675Y-64006081D01*
X138797463Y-64321831D01*
X138987337Y-64605998D01*
X139229002Y-64847663D01*
X139513169Y-65037537D01*
X139575000Y-65063148D01*
X139575001Y-128867667D01*
X139571324Y-128905000D01*
X139575001Y-128942333D01*
X139585998Y-129053986D01*
X139599180Y-129097442D01*
X139629454Y-129197246D01*
X139700026Y-129329276D01*
X139771201Y-129416002D01*
X139795000Y-129445001D01*
X139823998Y-129468799D01*
X143137286Y-132782088D01*
X143111675Y-132843919D01*
X143045000Y-133179117D01*
X143045000Y-133520883D01*
X143111675Y-133856081D01*
X143242463Y-134171831D01*
X143398261Y-134405000D01*
X143363740Y-134405000D01*
X143076842Y-134462068D01*
X142806589Y-134574010D01*
X142563368Y-134736525D01*
X142356525Y-134943368D01*
X142194010Y-135186589D01*
X142082068Y-135456842D01*
X142025000Y-135743740D01*
X142025000Y-136036260D01*
X142082068Y-136323158D01*
X142194010Y-136593411D01*
X142356525Y-136836632D01*
X142563368Y-137043475D01*
X142806589Y-137205990D01*
X143076842Y-137317932D01*
X143363740Y-137375000D01*
X143656260Y-137375000D01*
X143943158Y-137317932D01*
X144213411Y-137205990D01*
X144456632Y-137043475D01*
X144663475Y-136836632D01*
X144825990Y-136593411D01*
X144937932Y-136323158D01*
X144995000Y-136036260D01*
X144995000Y-135743740D01*
X144972471Y-135630475D01*
X145955000Y-135630475D01*
X145955000Y-136149525D01*
X146056261Y-136658601D01*
X146254893Y-137138141D01*
X146543262Y-137569715D01*
X146910285Y-137936738D01*
X147341859Y-138225107D01*
X147821399Y-138423739D01*
X148330475Y-138525000D01*
X148849525Y-138525000D01*
X149358601Y-138423739D01*
X149838141Y-138225107D01*
X150269715Y-137936738D01*
X150636738Y-137569715D01*
X150925107Y-137138141D01*
X151123739Y-136658601D01*
X151225000Y-136149525D01*
X151225000Y-135743740D01*
X152185000Y-135743740D01*
X152185000Y-136036260D01*
X152242068Y-136323158D01*
X152354010Y-136593411D01*
X152516525Y-136836632D01*
X152723368Y-137043475D01*
X152966589Y-137205990D01*
X153236842Y-137317932D01*
X153523740Y-137375000D01*
X153816260Y-137375000D01*
X154103158Y-137317932D01*
X154373411Y-137205990D01*
X154616632Y-137043475D01*
X154823475Y-136836632D01*
X154985990Y-136593411D01*
X155097932Y-136323158D01*
X155155000Y-136036260D01*
X155155000Y-135743740D01*
X155097932Y-135456842D01*
X154985990Y-135186589D01*
X154823475Y-134943368D01*
X154616632Y-134736525D01*
X154373411Y-134574010D01*
X154103158Y-134462068D01*
X153816260Y-134405000D01*
X153523740Y-134405000D01*
X153236842Y-134462068D01*
X152966589Y-134574010D01*
X152723368Y-134736525D01*
X152516525Y-134943368D01*
X152354010Y-135186589D01*
X152242068Y-135456842D01*
X152185000Y-135743740D01*
X151225000Y-135743740D01*
X151225000Y-135630475D01*
X151123739Y-135121399D01*
X150925107Y-134641859D01*
X150636738Y-134210285D01*
X150269715Y-133843262D01*
X149838141Y-133554893D01*
X149358601Y-133356261D01*
X148849525Y-133255000D01*
X148330475Y-133255000D01*
X147821399Y-133356261D01*
X147341859Y-133554893D01*
X146910285Y-133843262D01*
X146543262Y-134210285D01*
X146254893Y-134641859D01*
X146056261Y-135121399D01*
X145955000Y-135630475D01*
X144972471Y-135630475D01*
X144937932Y-135456842D01*
X144825990Y-135186589D01*
X144758110Y-135085000D01*
X144950883Y-135085000D01*
X145286081Y-135018325D01*
X145601831Y-134887537D01*
X145885998Y-134697663D01*
X146127663Y-134455998D01*
X146317537Y-134171831D01*
X146448325Y-133856081D01*
X146515000Y-133520883D01*
X146515000Y-133179117D01*
X146448325Y-132843919D01*
X146317537Y-132528169D01*
X146127663Y-132244002D01*
X145885998Y-132002337D01*
X145601831Y-131812463D01*
X145286081Y-131681675D01*
X144950883Y-131615000D01*
X144609117Y-131615000D01*
X144273919Y-131681675D01*
X144212088Y-131707286D01*
X143143919Y-130639117D01*
X149395000Y-130639117D01*
X149395000Y-130980883D01*
X149461675Y-131316081D01*
X149592463Y-131631831D01*
X149782337Y-131915998D01*
X150024002Y-132157663D01*
X150308169Y-132347537D01*
X150623919Y-132478325D01*
X150959117Y-132545000D01*
X151300883Y-132545000D01*
X151636081Y-132478325D01*
X151951831Y-132347537D01*
X152235998Y-132157663D01*
X152477663Y-131915998D01*
X152667537Y-131631831D01*
X152798325Y-131316081D01*
X152865000Y-130980883D01*
X152865000Y-130639117D01*
X152798325Y-130303919D01*
X152667537Y-129988169D01*
X152477663Y-129704002D01*
X152235998Y-129462337D01*
X151951831Y-129272463D01*
X151636081Y-129141675D01*
X151300883Y-129075000D01*
X150959117Y-129075000D01*
X150623919Y-129141675D01*
X150308169Y-129272463D01*
X150024002Y-129462337D01*
X149782337Y-129704002D01*
X149592463Y-129988169D01*
X149461675Y-130303919D01*
X149395000Y-130639117D01*
X143143919Y-130639117D01*
X141095000Y-128590199D01*
X141095000Y-65063148D01*
X141156831Y-65037537D01*
X141440998Y-64847663D01*
X141574999Y-64713662D01*
X141575000Y-111182666D01*
X141571323Y-111219999D01*
X141585997Y-111368984D01*
X141629453Y-111512245D01*
X141700025Y-111644275D01*
X141771200Y-111731001D01*
X141794999Y-111760000D01*
X141823997Y-111783798D01*
X143137286Y-113097088D01*
X143111675Y-113158919D01*
X143045000Y-113494117D01*
X143045000Y-113835883D01*
X143111675Y-114171081D01*
X143242463Y-114486831D01*
X143398261Y-114720000D01*
X143363740Y-114720000D01*
X143076842Y-114777068D01*
X142806589Y-114889010D01*
X142563368Y-115051525D01*
X142356525Y-115258368D01*
X142194010Y-115501589D01*
X142082068Y-115771842D01*
X142025000Y-116058740D01*
X142025000Y-116351260D01*
X142082068Y-116638158D01*
X142194010Y-116908411D01*
X142356525Y-117151632D01*
X142563368Y-117358475D01*
X142806589Y-117520990D01*
X143076842Y-117632932D01*
X143363740Y-117690000D01*
X143656260Y-117690000D01*
X143943158Y-117632932D01*
X144213411Y-117520990D01*
X144456632Y-117358475D01*
X144663475Y-117151632D01*
X144825990Y-116908411D01*
X144937932Y-116638158D01*
X144995000Y-116351260D01*
X144995000Y-116058740D01*
X144972471Y-115945475D01*
X145955000Y-115945475D01*
X145955000Y-116464525D01*
X146056261Y-116973601D01*
X146254893Y-117453141D01*
X146543262Y-117884715D01*
X146910285Y-118251738D01*
X147341859Y-118540107D01*
X147821399Y-118738739D01*
X148330475Y-118840000D01*
X148849525Y-118840000D01*
X149358601Y-118738739D01*
X149838141Y-118540107D01*
X150269715Y-118251738D01*
X150636738Y-117884715D01*
X150925107Y-117453141D01*
X151123739Y-116973601D01*
X151225000Y-116464525D01*
X151225000Y-116058740D01*
X152185000Y-116058740D01*
X152185000Y-116351260D01*
X152242068Y-116638158D01*
X152354010Y-116908411D01*
X152516525Y-117151632D01*
X152723368Y-117358475D01*
X152966589Y-117520990D01*
X153236842Y-117632932D01*
X153523740Y-117690000D01*
X153816260Y-117690000D01*
X154103158Y-117632932D01*
X154373411Y-117520990D01*
X154616632Y-117358475D01*
X154823475Y-117151632D01*
X154985990Y-116908411D01*
X155097932Y-116638158D01*
X155155000Y-116351260D01*
X155155000Y-116058740D01*
X155097932Y-115771842D01*
X154985990Y-115501589D01*
X154823475Y-115258368D01*
X154616632Y-115051525D01*
X154373411Y-114889010D01*
X154103158Y-114777068D01*
X153816260Y-114720000D01*
X153523740Y-114720000D01*
X153236842Y-114777068D01*
X152966589Y-114889010D01*
X152723368Y-115051525D01*
X152516525Y-115258368D01*
X152354010Y-115501589D01*
X152242068Y-115771842D01*
X152185000Y-116058740D01*
X151225000Y-116058740D01*
X151225000Y-115945475D01*
X151123739Y-115436399D01*
X150925107Y-114956859D01*
X150636738Y-114525285D01*
X150269715Y-114158262D01*
X149838141Y-113869893D01*
X149358601Y-113671261D01*
X148849525Y-113570000D01*
X148330475Y-113570000D01*
X147821399Y-113671261D01*
X147341859Y-113869893D01*
X146910285Y-114158262D01*
X146543262Y-114525285D01*
X146254893Y-114956859D01*
X146056261Y-115436399D01*
X145955000Y-115945475D01*
X144972471Y-115945475D01*
X144937932Y-115771842D01*
X144825990Y-115501589D01*
X144758110Y-115400000D01*
X144950883Y-115400000D01*
X145286081Y-115333325D01*
X145601831Y-115202537D01*
X145885998Y-115012663D01*
X146127663Y-114770998D01*
X146317537Y-114486831D01*
X146448325Y-114171081D01*
X146515000Y-113835883D01*
X146515000Y-113494117D01*
X146448325Y-113158919D01*
X146317537Y-112843169D01*
X146127663Y-112559002D01*
X145885998Y-112317337D01*
X145601831Y-112127463D01*
X145286081Y-111996675D01*
X144950883Y-111930000D01*
X144609117Y-111930000D01*
X144273919Y-111996675D01*
X144212088Y-112022286D01*
X143143919Y-110954117D01*
X149395000Y-110954117D01*
X149395000Y-111295883D01*
X149461675Y-111631081D01*
X149592463Y-111946831D01*
X149782337Y-112230998D01*
X150024002Y-112472663D01*
X150308169Y-112662537D01*
X150623919Y-112793325D01*
X150959117Y-112860000D01*
X151300883Y-112860000D01*
X151636081Y-112793325D01*
X151951831Y-112662537D01*
X152235998Y-112472663D01*
X152477663Y-112230998D01*
X152667537Y-111946831D01*
X152798325Y-111631081D01*
X152865000Y-111295883D01*
X152865000Y-110954117D01*
X152798325Y-110618919D01*
X152667537Y-110303169D01*
X152477663Y-110019002D01*
X152235998Y-109777337D01*
X151951831Y-109587463D01*
X151636081Y-109456675D01*
X151300883Y-109390000D01*
X150959117Y-109390000D01*
X150623919Y-109456675D01*
X150308169Y-109587463D01*
X150024002Y-109777337D01*
X149782337Y-110019002D01*
X149592463Y-110303169D01*
X149461675Y-110618919D01*
X149395000Y-110954117D01*
X143143919Y-110954117D01*
X143094999Y-110905198D01*
X143094999Y-98026545D01*
X143363740Y-98080001D01*
X143656260Y-98080001D01*
X143943158Y-98022933D01*
X144213411Y-97910991D01*
X144456632Y-97748476D01*
X144663475Y-97541633D01*
X144825990Y-97298412D01*
X144937932Y-97028159D01*
X144995000Y-96741261D01*
X144995000Y-96448741D01*
X144972471Y-96335476D01*
X145955000Y-96335476D01*
X145955000Y-96854526D01*
X146056261Y-97363602D01*
X146254893Y-97843142D01*
X146543262Y-98274716D01*
X146910285Y-98641739D01*
X147341859Y-98930108D01*
X147821399Y-99128740D01*
X148330475Y-99230001D01*
X148849525Y-99230001D01*
X149358601Y-99128740D01*
X149838141Y-98930108D01*
X150269715Y-98641739D01*
X150636738Y-98274716D01*
X150925107Y-97843142D01*
X151123739Y-97363602D01*
X151225000Y-96854526D01*
X151225000Y-96448741D01*
X152185000Y-96448741D01*
X152185000Y-96741261D01*
X152242068Y-97028159D01*
X152354010Y-97298412D01*
X152516525Y-97541633D01*
X152723368Y-97748476D01*
X152966589Y-97910991D01*
X153236842Y-98022933D01*
X153523740Y-98080001D01*
X153816260Y-98080001D01*
X154103158Y-98022933D01*
X154373411Y-97910991D01*
X154616632Y-97748476D01*
X154823475Y-97541633D01*
X154985990Y-97298412D01*
X155097932Y-97028159D01*
X155155000Y-96741261D01*
X155155000Y-96448741D01*
X155097932Y-96161843D01*
X154985990Y-95891590D01*
X154823475Y-95648369D01*
X154616632Y-95441526D01*
X154373411Y-95279011D01*
X154103158Y-95167069D01*
X153816260Y-95110001D01*
X153523740Y-95110001D01*
X153236842Y-95167069D01*
X152966589Y-95279011D01*
X152723368Y-95441526D01*
X152516525Y-95648369D01*
X152354010Y-95891590D01*
X152242068Y-96161843D01*
X152185000Y-96448741D01*
X151225000Y-96448741D01*
X151225000Y-96335476D01*
X151123739Y-95826400D01*
X150925107Y-95346860D01*
X150636738Y-94915286D01*
X150269715Y-94548263D01*
X149838141Y-94259894D01*
X149358601Y-94061262D01*
X148849525Y-93960001D01*
X148330475Y-93960001D01*
X147821399Y-94061262D01*
X147341859Y-94259894D01*
X146910285Y-94548263D01*
X146543262Y-94915286D01*
X146254893Y-95346860D01*
X146056261Y-95826400D01*
X145955000Y-96335476D01*
X144972471Y-96335476D01*
X144937932Y-96161843D01*
X144825990Y-95891590D01*
X144758110Y-95790001D01*
X144950883Y-95790001D01*
X145286081Y-95723326D01*
X145601831Y-95592538D01*
X145885998Y-95402664D01*
X146127663Y-95160999D01*
X146317537Y-94876832D01*
X146448325Y-94561082D01*
X146515000Y-94225884D01*
X146515000Y-93884118D01*
X146448325Y-93548920D01*
X146317537Y-93233170D01*
X146127663Y-92949003D01*
X145885998Y-92707338D01*
X145601831Y-92517464D01*
X145540000Y-92491853D01*
X145540000Y-91344118D01*
X149395000Y-91344118D01*
X149395000Y-91685884D01*
X149461675Y-92021082D01*
X149592463Y-92336832D01*
X149782337Y-92620999D01*
X150024002Y-92862664D01*
X150308169Y-93052538D01*
X150623919Y-93183326D01*
X150959117Y-93250001D01*
X151300883Y-93250001D01*
X151636081Y-93183326D01*
X151951831Y-93052538D01*
X152235998Y-92862664D01*
X152477663Y-92620999D01*
X152667537Y-92336832D01*
X152798325Y-92021082D01*
X152865000Y-91685884D01*
X152865000Y-91344118D01*
X152798325Y-91008920D01*
X152667537Y-90693170D01*
X152477663Y-90409003D01*
X152235998Y-90167338D01*
X151951831Y-89977464D01*
X151636081Y-89846676D01*
X151300883Y-89780001D01*
X150959117Y-89780001D01*
X150623919Y-89846676D01*
X150308169Y-89977464D01*
X150024002Y-90167338D01*
X149782337Y-90409003D01*
X149592463Y-90693170D01*
X149461675Y-91008920D01*
X149395000Y-91344118D01*
X145540000Y-91344118D01*
X145540000Y-76575475D01*
X145955000Y-76575475D01*
X145955000Y-77094525D01*
X146056261Y-77603601D01*
X146254893Y-78083141D01*
X146543262Y-78514715D01*
X146910285Y-78881738D01*
X147341859Y-79170107D01*
X147821399Y-79368739D01*
X148330475Y-79470000D01*
X148849525Y-79470000D01*
X149358601Y-79368739D01*
X149838141Y-79170107D01*
X150269715Y-78881738D01*
X150636738Y-78514715D01*
X150925107Y-78083141D01*
X151123739Y-77603601D01*
X151225000Y-77094525D01*
X151225000Y-76688740D01*
X152185000Y-76688740D01*
X152185000Y-76981260D01*
X152242068Y-77268158D01*
X152354010Y-77538411D01*
X152516525Y-77781632D01*
X152723368Y-77988475D01*
X152966589Y-78150990D01*
X153236842Y-78262932D01*
X153523740Y-78320000D01*
X153816260Y-78320000D01*
X154103158Y-78262932D01*
X154373411Y-78150990D01*
X154616632Y-77988475D01*
X154823475Y-77781632D01*
X154985990Y-77538411D01*
X155097932Y-77268158D01*
X155155000Y-76981260D01*
X155155000Y-76688740D01*
X155097932Y-76401842D01*
X154985990Y-76131589D01*
X154823475Y-75888368D01*
X154616632Y-75681525D01*
X154373411Y-75519010D01*
X154103158Y-75407068D01*
X153816260Y-75350000D01*
X153523740Y-75350000D01*
X153236842Y-75407068D01*
X152966589Y-75519010D01*
X152723368Y-75681525D01*
X152516525Y-75888368D01*
X152354010Y-76131589D01*
X152242068Y-76401842D01*
X152185000Y-76688740D01*
X151225000Y-76688740D01*
X151225000Y-76575475D01*
X151123739Y-76066399D01*
X150925107Y-75586859D01*
X150636738Y-75155285D01*
X150269715Y-74788262D01*
X149838141Y-74499893D01*
X149358601Y-74301261D01*
X148849525Y-74200000D01*
X148330475Y-74200000D01*
X147821399Y-74301261D01*
X147341859Y-74499893D01*
X146910285Y-74788262D01*
X146543262Y-75155285D01*
X146254893Y-75586859D01*
X146056261Y-76066399D01*
X145955000Y-76575475D01*
X145540000Y-76575475D01*
X145540000Y-76403323D01*
X145543676Y-76365998D01*
X145540000Y-76328673D01*
X145540000Y-76328665D01*
X145529003Y-76217012D01*
X145485546Y-76073751D01*
X145414974Y-75941722D01*
X145395506Y-75918000D01*
X145601831Y-75832537D01*
X145885998Y-75642663D01*
X146127663Y-75400998D01*
X146317537Y-75116831D01*
X146448325Y-74801081D01*
X146515000Y-74465883D01*
X146515000Y-74124117D01*
X146448325Y-73788919D01*
X146422714Y-73727088D01*
X147041002Y-73108800D01*
X147070000Y-73085002D01*
X147164973Y-72969277D01*
X147235545Y-72837248D01*
X147279002Y-72693987D01*
X147289999Y-72582334D01*
X147289999Y-72582325D01*
X147293675Y-72545002D01*
X147289999Y-72507679D01*
X147289999Y-71584117D01*
X149395000Y-71584117D01*
X149395000Y-71925883D01*
X149461675Y-72261081D01*
X149592463Y-72576831D01*
X149782337Y-72860998D01*
X150024002Y-73102663D01*
X150308169Y-73292537D01*
X150623919Y-73423325D01*
X150959117Y-73490000D01*
X151300883Y-73490000D01*
X151636081Y-73423325D01*
X151951831Y-73292537D01*
X152235998Y-73102663D01*
X152477663Y-72860998D01*
X152667537Y-72576831D01*
X152798325Y-72261081D01*
X152865000Y-71925883D01*
X152865000Y-71584117D01*
X152798325Y-71248919D01*
X152667537Y-70933169D01*
X152477663Y-70649002D01*
X152235998Y-70407337D01*
X151951831Y-70217463D01*
X151636081Y-70086675D01*
X151300883Y-70020000D01*
X150959117Y-70020000D01*
X150623919Y-70086675D01*
X150308169Y-70217463D01*
X150024002Y-70407337D01*
X149782337Y-70649002D01*
X149592463Y-70933169D01*
X149461675Y-71248919D01*
X149395000Y-71584117D01*
X147289999Y-71584117D01*
X147289999Y-65238072D01*
X149055000Y-65238072D01*
X149179482Y-65225812D01*
X149299180Y-65189502D01*
X149409494Y-65130537D01*
X149506185Y-65051185D01*
X149585537Y-64954494D01*
X149644502Y-64844180D01*
X149680812Y-64724482D01*
X149693072Y-64600000D01*
X149693072Y-62400000D01*
X149680812Y-62275518D01*
X149644502Y-62155820D01*
X149585537Y-62045506D01*
X149506185Y-61948815D01*
X149409494Y-61869463D01*
X149299180Y-61810498D01*
X149179482Y-61774188D01*
X149055000Y-61761928D01*
X147289999Y-61761928D01*
X147289999Y-60158072D01*
X149055000Y-60158072D01*
X149179482Y-60145812D01*
X149299180Y-60109502D01*
X149409494Y-60050537D01*
X149506185Y-59971185D01*
X149585537Y-59874494D01*
X149644502Y-59764180D01*
X149680812Y-59644482D01*
X149693072Y-59520000D01*
X149693072Y-57320000D01*
X149680812Y-57195518D01*
X149644502Y-57075820D01*
X149585537Y-56965506D01*
X149506185Y-56868815D01*
X149409494Y-56789463D01*
X149299180Y-56730498D01*
X149179482Y-56694188D01*
X149055000Y-56681928D01*
X147289999Y-56681928D01*
X147289999Y-54443072D01*
X149055000Y-54443072D01*
X149179482Y-54430812D01*
X149299180Y-54394502D01*
X149409494Y-54335537D01*
X149506185Y-54256185D01*
X149585537Y-54159494D01*
X149644502Y-54049180D01*
X149680812Y-53929482D01*
X149693072Y-53805000D01*
X149693072Y-52534117D01*
X151935000Y-52534117D01*
X151935000Y-52875883D01*
X152001675Y-53211081D01*
X152132463Y-53526831D01*
X152322337Y-53810998D01*
X152564002Y-54052663D01*
X152848169Y-54242537D01*
X153163919Y-54373325D01*
X153499117Y-54440000D01*
X153840883Y-54440000D01*
X154176081Y-54373325D01*
X154237912Y-54347714D01*
X159104999Y-59214801D01*
X159104999Y-62780197D01*
X155312714Y-58987912D01*
X155338325Y-58926081D01*
X155405000Y-58590883D01*
X155405000Y-58249117D01*
X155338325Y-57913919D01*
X155207537Y-57598169D01*
X155017663Y-57314002D01*
X154775998Y-57072337D01*
X154491831Y-56882463D01*
X154176081Y-56751675D01*
X153840883Y-56685000D01*
X153499117Y-56685000D01*
X153163919Y-56751675D01*
X152848169Y-56882463D01*
X152564002Y-57072337D01*
X152322337Y-57314002D01*
X152132463Y-57598169D01*
X152001675Y-57913919D01*
X151935000Y-58249117D01*
X151935000Y-58590883D01*
X152001675Y-58926081D01*
X152132463Y-59241831D01*
X152322337Y-59525998D01*
X152564002Y-59767663D01*
X152848169Y-59957537D01*
X153163919Y-60088325D01*
X153499117Y-60155000D01*
X153840883Y-60155000D01*
X154176081Y-60088325D01*
X154237912Y-60062714D01*
X158654989Y-64479791D01*
X158654989Y-67410187D01*
X155312714Y-64067912D01*
X155338325Y-64006081D01*
X155405000Y-63670883D01*
X155405000Y-63329117D01*
X155338325Y-62993919D01*
X155207537Y-62678169D01*
X155017663Y-62394002D01*
X154775998Y-62152337D01*
X154491831Y-61962463D01*
X154176081Y-61831675D01*
X153840883Y-61765000D01*
X153499117Y-61765000D01*
X153163919Y-61831675D01*
X152848169Y-61962463D01*
X152564002Y-62152337D01*
X152322337Y-62394002D01*
X152132463Y-62678169D01*
X152001675Y-62993919D01*
X151935000Y-63329117D01*
X151935000Y-63670883D01*
X152001675Y-64006081D01*
X152132463Y-64321831D01*
X152322337Y-64605998D01*
X152564002Y-64847663D01*
X152848169Y-65037537D01*
X153163919Y-65168325D01*
X153499117Y-65235000D01*
X153840883Y-65235000D01*
X154176081Y-65168325D01*
X154237912Y-65142714D01*
X158204980Y-69109782D01*
X158204981Y-127812647D01*
X158201304Y-127849980D01*
X158215978Y-127998965D01*
X158259434Y-128142226D01*
X158330006Y-128274256D01*
X158384947Y-128341201D01*
X158424980Y-128389981D01*
X158453978Y-128413779D01*
X162822286Y-132782088D01*
X162796675Y-132843919D01*
X162730000Y-133179117D01*
X162730000Y-133520883D01*
X162796675Y-133856081D01*
X162927463Y-134171831D01*
X163083261Y-134405000D01*
X163048740Y-134405000D01*
X162761842Y-134462068D01*
X162491589Y-134574010D01*
X162248368Y-134736525D01*
X162041525Y-134943368D01*
X161879010Y-135186589D01*
X161767068Y-135456842D01*
X161710000Y-135743740D01*
X161710000Y-136036260D01*
X161767068Y-136323158D01*
X161879010Y-136593411D01*
X162041525Y-136836632D01*
X162248368Y-137043475D01*
X162491589Y-137205990D01*
X162761842Y-137317932D01*
X163048740Y-137375000D01*
X163341260Y-137375000D01*
X163628158Y-137317932D01*
X163898411Y-137205990D01*
X164141632Y-137043475D01*
X164348475Y-136836632D01*
X164510990Y-136593411D01*
X164622932Y-136323158D01*
X164680000Y-136036260D01*
X164680000Y-135743740D01*
X164657471Y-135630475D01*
X165640000Y-135630475D01*
X165640000Y-136149525D01*
X165741261Y-136658601D01*
X165939893Y-137138141D01*
X166228262Y-137569715D01*
X166595285Y-137936738D01*
X167026859Y-138225107D01*
X167506399Y-138423739D01*
X168015475Y-138525000D01*
X168534525Y-138525000D01*
X169043601Y-138423739D01*
X169523141Y-138225107D01*
X169954715Y-137936738D01*
X170321738Y-137569715D01*
X170610107Y-137138141D01*
X170808739Y-136658601D01*
X170910000Y-136149525D01*
X170910000Y-135743740D01*
X171870000Y-135743740D01*
X171870000Y-136036260D01*
X171927068Y-136323158D01*
X172039010Y-136593411D01*
X172201525Y-136836632D01*
X172408368Y-137043475D01*
X172651589Y-137205990D01*
X172921842Y-137317932D01*
X173208740Y-137375000D01*
X173501260Y-137375000D01*
X173788158Y-137317932D01*
X174058411Y-137205990D01*
X174301632Y-137043475D01*
X174508475Y-136836632D01*
X174670990Y-136593411D01*
X174782932Y-136323158D01*
X174840000Y-136036260D01*
X174840000Y-135743740D01*
X174782932Y-135456842D01*
X174670990Y-135186589D01*
X174508475Y-134943368D01*
X174301632Y-134736525D01*
X174058411Y-134574010D01*
X173788158Y-134462068D01*
X173501260Y-134405000D01*
X173208740Y-134405000D01*
X172921842Y-134462068D01*
X172651589Y-134574010D01*
X172408368Y-134736525D01*
X172201525Y-134943368D01*
X172039010Y-135186589D01*
X171927068Y-135456842D01*
X171870000Y-135743740D01*
X170910000Y-135743740D01*
X170910000Y-135630475D01*
X170808739Y-135121399D01*
X170610107Y-134641859D01*
X170321738Y-134210285D01*
X169954715Y-133843262D01*
X169523141Y-133554893D01*
X169043601Y-133356261D01*
X168534525Y-133255000D01*
X168015475Y-133255000D01*
X167506399Y-133356261D01*
X167026859Y-133554893D01*
X166595285Y-133843262D01*
X166228262Y-134210285D01*
X165939893Y-134641859D01*
X165741261Y-135121399D01*
X165640000Y-135630475D01*
X164657471Y-135630475D01*
X164622932Y-135456842D01*
X164510990Y-135186589D01*
X164443110Y-135085000D01*
X164635883Y-135085000D01*
X164971081Y-135018325D01*
X165286831Y-134887537D01*
X165570998Y-134697663D01*
X165812663Y-134455998D01*
X166002537Y-134171831D01*
X166133325Y-133856081D01*
X166200000Y-133520883D01*
X166200000Y-133179117D01*
X166133325Y-132843919D01*
X166002537Y-132528169D01*
X165812663Y-132244002D01*
X165570998Y-132002337D01*
X165286831Y-131812463D01*
X164971081Y-131681675D01*
X164635883Y-131615000D01*
X164294117Y-131615000D01*
X163958919Y-131681675D01*
X163897088Y-131707286D01*
X162828919Y-130639117D01*
X169080000Y-130639117D01*
X169080000Y-130980883D01*
X169146675Y-131316081D01*
X169277463Y-131631831D01*
X169467337Y-131915998D01*
X169709002Y-132157663D01*
X169993169Y-132347537D01*
X170308919Y-132478325D01*
X170644117Y-132545000D01*
X170985883Y-132545000D01*
X171321081Y-132478325D01*
X171636831Y-132347537D01*
X171920998Y-132157663D01*
X172162663Y-131915998D01*
X172352537Y-131631831D01*
X172483325Y-131316081D01*
X172550000Y-130980883D01*
X172550000Y-130639117D01*
X172483325Y-130303919D01*
X172352537Y-129988169D01*
X172162663Y-129704002D01*
X171920998Y-129462337D01*
X171636831Y-129272463D01*
X171321081Y-129141675D01*
X170985883Y-129075000D01*
X170644117Y-129075000D01*
X170308919Y-129141675D01*
X169993169Y-129272463D01*
X169709002Y-129462337D01*
X169467337Y-129704002D01*
X169277463Y-129988169D01*
X169146675Y-130303919D01*
X169080000Y-130639117D01*
X162828919Y-130639117D01*
X159724980Y-127535179D01*
X159724980Y-109999781D01*
X162822286Y-113097088D01*
X162796675Y-113158919D01*
X162730000Y-113494117D01*
X162730000Y-113835883D01*
X162796675Y-114171081D01*
X162927463Y-114486831D01*
X163083261Y-114720000D01*
X163048740Y-114720000D01*
X162761842Y-114777068D01*
X162491589Y-114889010D01*
X162248368Y-115051525D01*
X162041525Y-115258368D01*
X161879010Y-115501589D01*
X161767068Y-115771842D01*
X161710000Y-116058740D01*
X161710000Y-116351260D01*
X161767068Y-116638158D01*
X161879010Y-116908411D01*
X162041525Y-117151632D01*
X162248368Y-117358475D01*
X162491589Y-117520990D01*
X162761842Y-117632932D01*
X163048740Y-117690000D01*
X163341260Y-117690000D01*
X163628158Y-117632932D01*
X163898411Y-117520990D01*
X164141632Y-117358475D01*
X164348475Y-117151632D01*
X164510990Y-116908411D01*
X164622932Y-116638158D01*
X164680000Y-116351260D01*
X164680000Y-116058740D01*
X164657471Y-115945475D01*
X165640000Y-115945475D01*
X165640000Y-116464525D01*
X165741261Y-116973601D01*
X165939893Y-117453141D01*
X166228262Y-117884715D01*
X166595285Y-118251738D01*
X167026859Y-118540107D01*
X167506399Y-118738739D01*
X168015475Y-118840000D01*
X168534525Y-118840000D01*
X169043601Y-118738739D01*
X169523141Y-118540107D01*
X169954715Y-118251738D01*
X170321738Y-117884715D01*
X170610107Y-117453141D01*
X170808739Y-116973601D01*
X170910000Y-116464525D01*
X170910000Y-116058740D01*
X171870000Y-116058740D01*
X171870000Y-116351260D01*
X171927068Y-116638158D01*
X172039010Y-116908411D01*
X172201525Y-117151632D01*
X172408368Y-117358475D01*
X172651589Y-117520990D01*
X172921842Y-117632932D01*
X173208740Y-117690000D01*
X173501260Y-117690000D01*
X173788158Y-117632932D01*
X174058411Y-117520990D01*
X174301632Y-117358475D01*
X174508475Y-117151632D01*
X174670990Y-116908411D01*
X174782932Y-116638158D01*
X174840000Y-116351260D01*
X174840000Y-116058740D01*
X174782932Y-115771842D01*
X174670990Y-115501589D01*
X174508475Y-115258368D01*
X174301632Y-115051525D01*
X174058411Y-114889010D01*
X173788158Y-114777068D01*
X173501260Y-114720000D01*
X173208740Y-114720000D01*
X172921842Y-114777068D01*
X172651589Y-114889010D01*
X172408368Y-115051525D01*
X172201525Y-115258368D01*
X172039010Y-115501589D01*
X171927068Y-115771842D01*
X171870000Y-116058740D01*
X170910000Y-116058740D01*
X170910000Y-115945475D01*
X170808739Y-115436399D01*
X170610107Y-114956859D01*
X170321738Y-114525285D01*
X169954715Y-114158262D01*
X169523141Y-113869893D01*
X169043601Y-113671261D01*
X168534525Y-113570000D01*
X168015475Y-113570000D01*
X167506399Y-113671261D01*
X167026859Y-113869893D01*
X166595285Y-114158262D01*
X166228262Y-114525285D01*
X165939893Y-114956859D01*
X165741261Y-115436399D01*
X165640000Y-115945475D01*
X164657471Y-115945475D01*
X164622932Y-115771842D01*
X164510990Y-115501589D01*
X164443110Y-115400000D01*
X164635883Y-115400000D01*
X164971081Y-115333325D01*
X165286831Y-115202537D01*
X165570998Y-115012663D01*
X165812663Y-114770998D01*
X166002537Y-114486831D01*
X166133325Y-114171081D01*
X166200000Y-113835883D01*
X166200000Y-113494117D01*
X166133325Y-113158919D01*
X166002537Y-112843169D01*
X165812663Y-112559002D01*
X165570998Y-112317337D01*
X165286831Y-112127463D01*
X164971081Y-111996675D01*
X164635883Y-111930000D01*
X164294117Y-111930000D01*
X163958919Y-111996675D01*
X163897088Y-112022286D01*
X162828919Y-110954117D01*
X169080000Y-110954117D01*
X169080000Y-111295883D01*
X169146675Y-111631081D01*
X169277463Y-111946831D01*
X169467337Y-112230998D01*
X169709002Y-112472663D01*
X169993169Y-112662537D01*
X170308919Y-112793325D01*
X170644117Y-112860000D01*
X170985883Y-112860000D01*
X171321081Y-112793325D01*
X171636831Y-112662537D01*
X171920998Y-112472663D01*
X172162663Y-112230998D01*
X172352537Y-111946831D01*
X172483325Y-111631081D01*
X172550000Y-111295883D01*
X172550000Y-110954117D01*
X172483325Y-110618919D01*
X172352537Y-110303169D01*
X172162663Y-110019002D01*
X171920998Y-109777337D01*
X171636831Y-109587463D01*
X171321081Y-109456675D01*
X170985883Y-109390000D01*
X170644117Y-109390000D01*
X170308919Y-109456675D01*
X169993169Y-109587463D01*
X169709002Y-109777337D01*
X169467337Y-110019002D01*
X169277463Y-110303169D01*
X169146675Y-110618919D01*
X169080000Y-110954117D01*
X162828919Y-110954117D01*
X160174989Y-108300188D01*
X160174989Y-90839791D01*
X162822286Y-93487089D01*
X162796675Y-93548920D01*
X162730000Y-93884118D01*
X162730000Y-94225884D01*
X162796675Y-94561082D01*
X162927463Y-94876832D01*
X163083261Y-95110001D01*
X163048740Y-95110001D01*
X162761842Y-95167069D01*
X162491589Y-95279011D01*
X162248368Y-95441526D01*
X162041525Y-95648369D01*
X161879010Y-95891590D01*
X161767068Y-96161843D01*
X161710000Y-96448741D01*
X161710000Y-96741261D01*
X161767068Y-97028159D01*
X161879010Y-97298412D01*
X162041525Y-97541633D01*
X162248368Y-97748476D01*
X162491589Y-97910991D01*
X162761842Y-98022933D01*
X163048740Y-98080001D01*
X163341260Y-98080001D01*
X163628158Y-98022933D01*
X163898411Y-97910991D01*
X164141632Y-97748476D01*
X164348475Y-97541633D01*
X164510990Y-97298412D01*
X164622932Y-97028159D01*
X164680000Y-96741261D01*
X164680000Y-96448741D01*
X164657471Y-96335476D01*
X165640000Y-96335476D01*
X165640000Y-96854526D01*
X165741261Y-97363602D01*
X165939893Y-97843142D01*
X166228262Y-98274716D01*
X166595285Y-98641739D01*
X167026859Y-98930108D01*
X167506399Y-99128740D01*
X168015475Y-99230001D01*
X168534525Y-99230001D01*
X169043601Y-99128740D01*
X169523141Y-98930108D01*
X169954715Y-98641739D01*
X170321738Y-98274716D01*
X170610107Y-97843142D01*
X170808739Y-97363602D01*
X170910000Y-96854526D01*
X170910000Y-96335476D01*
X170808739Y-95826400D01*
X170610107Y-95346860D01*
X170321738Y-94915286D01*
X169954715Y-94548263D01*
X169523141Y-94259894D01*
X169043601Y-94061262D01*
X168534525Y-93960001D01*
X168015475Y-93960001D01*
X167506399Y-94061262D01*
X167026859Y-94259894D01*
X166595285Y-94548263D01*
X166228262Y-94915286D01*
X165939893Y-95346860D01*
X165741261Y-95826400D01*
X165640000Y-96335476D01*
X164657471Y-96335476D01*
X164622932Y-96161843D01*
X164510990Y-95891590D01*
X164443110Y-95790001D01*
X164635883Y-95790001D01*
X164971081Y-95723326D01*
X165286831Y-95592538D01*
X165570998Y-95402664D01*
X165812663Y-95160999D01*
X166002537Y-94876832D01*
X166133325Y-94561082D01*
X166200000Y-94225884D01*
X166200000Y-93884118D01*
X166133325Y-93548920D01*
X166002537Y-93233170D01*
X165812663Y-92949003D01*
X165570998Y-92707338D01*
X165286831Y-92517464D01*
X164971081Y-92386676D01*
X164635883Y-92320001D01*
X164294117Y-92320001D01*
X163958919Y-92386676D01*
X163897088Y-92412287D01*
X160624999Y-89140199D01*
X160624999Y-65238072D01*
X162390000Y-65238072D01*
X162514482Y-65225812D01*
X162634180Y-65189502D01*
X162744494Y-65130537D01*
X162841185Y-65051185D01*
X162920537Y-64954494D01*
X162979502Y-64844180D01*
X163015812Y-64724482D01*
X163028072Y-64600000D01*
X163028072Y-62400000D01*
X163015812Y-62275518D01*
X162979502Y-62155820D01*
X162920537Y-62045506D01*
X162841185Y-61948815D01*
X162744494Y-61869463D01*
X162634180Y-61810498D01*
X162514482Y-61774188D01*
X162390000Y-61761928D01*
X160624999Y-61761928D01*
X160624999Y-60158072D01*
X162390000Y-60158072D01*
X162514482Y-60145812D01*
X162634180Y-60109502D01*
X162744494Y-60050537D01*
X162841185Y-59971185D01*
X162920537Y-59874494D01*
X162979502Y-59764180D01*
X163015812Y-59644482D01*
X163028072Y-59520000D01*
X163028072Y-57320000D01*
X163015812Y-57195518D01*
X162979502Y-57075820D01*
X162920537Y-56965506D01*
X162841185Y-56868815D01*
X162744494Y-56789463D01*
X162634180Y-56730498D01*
X162514482Y-56694188D01*
X162390000Y-56681928D01*
X160190000Y-56681928D01*
X160065518Y-56694188D01*
X159945820Y-56730498D01*
X159835506Y-56789463D01*
X159738815Y-56868815D01*
X159659463Y-56965506D01*
X159600498Y-57075820D01*
X159564188Y-57195518D01*
X159551928Y-57320000D01*
X159551928Y-57512126D01*
X155312714Y-53272912D01*
X155338325Y-53211081D01*
X155405000Y-52875883D01*
X155405000Y-52534117D01*
X155338325Y-52198919D01*
X155207537Y-51883169D01*
X155017663Y-51599002D01*
X154775998Y-51357337D01*
X154491831Y-51167463D01*
X154176081Y-51036675D01*
X153840883Y-50970000D01*
X153499117Y-50970000D01*
X153163919Y-51036675D01*
X152848169Y-51167463D01*
X152564002Y-51357337D01*
X152322337Y-51599002D01*
X152132463Y-51883169D01*
X152001675Y-52198919D01*
X151935000Y-52534117D01*
X149693072Y-52534117D01*
X149693072Y-51605000D01*
X149680812Y-51480518D01*
X149644502Y-51360820D01*
X149585537Y-51250506D01*
X149506185Y-51153815D01*
X149409494Y-51074463D01*
X149299180Y-51015498D01*
X149179482Y-50979188D01*
X149055000Y-50966928D01*
X146855000Y-50966928D01*
X146730518Y-50979188D01*
X146610820Y-51015498D01*
X146500506Y-51074463D01*
X146403815Y-51153815D01*
X146324463Y-51250506D01*
X146265498Y-51360820D01*
X146229188Y-51480518D01*
X146216928Y-51605000D01*
X146216928Y-51797126D01*
X141977714Y-47557912D01*
X142003325Y-47496081D01*
X142070000Y-47160883D01*
X142070000Y-46819117D01*
X142003325Y-46483919D01*
X141872537Y-46168169D01*
X141686671Y-45890000D01*
X146216928Y-45890000D01*
X146216928Y-48090000D01*
X146229188Y-48214482D01*
X146265498Y-48334180D01*
X146324463Y-48444494D01*
X146403815Y-48541185D01*
X146500506Y-48620537D01*
X146610820Y-48679502D01*
X146730518Y-48715812D01*
X146855000Y-48728072D01*
X149055000Y-48728072D01*
X149179482Y-48715812D01*
X149299180Y-48679502D01*
X149409494Y-48620537D01*
X149506185Y-48541185D01*
X149585537Y-48444494D01*
X149644502Y-48334180D01*
X149680812Y-48214482D01*
X149693072Y-48090000D01*
X149693072Y-46819117D01*
X151935000Y-46819117D01*
X151935000Y-47160883D01*
X152001675Y-47496081D01*
X152132463Y-47811831D01*
X152322337Y-48095998D01*
X152564002Y-48337663D01*
X152848169Y-48527537D01*
X153163919Y-48658325D01*
X153499117Y-48725000D01*
X153840883Y-48725000D01*
X154176081Y-48658325D01*
X154491831Y-48527537D01*
X154775998Y-48337663D01*
X155017663Y-48095998D01*
X155207537Y-47811831D01*
X155233148Y-47750000D01*
X158045201Y-47750000D01*
X161262128Y-50966928D01*
X160190000Y-50966928D01*
X160065518Y-50979188D01*
X159945820Y-51015498D01*
X159835506Y-51074463D01*
X159738815Y-51153815D01*
X159659463Y-51250506D01*
X159600498Y-51360820D01*
X159564188Y-51480518D01*
X159551928Y-51605000D01*
X159551928Y-53805000D01*
X159564188Y-53929482D01*
X159600498Y-54049180D01*
X159659463Y-54159494D01*
X159738815Y-54256185D01*
X159835506Y-54335537D01*
X159945820Y-54394502D01*
X160065518Y-54430812D01*
X160190000Y-54443072D01*
X162390000Y-54443072D01*
X162514482Y-54430812D01*
X162634180Y-54394502D01*
X162744494Y-54335537D01*
X162841185Y-54256185D01*
X162920537Y-54159494D01*
X162979502Y-54049180D01*
X163015812Y-53929482D01*
X163028072Y-53805000D01*
X163028072Y-52732872D01*
X163705000Y-53409800D01*
X163705001Y-72731851D01*
X163643169Y-72757463D01*
X163359002Y-72947337D01*
X163117337Y-73189002D01*
X162927463Y-73473169D01*
X162796675Y-73788919D01*
X162730000Y-74124117D01*
X162730000Y-74465883D01*
X162796675Y-74801081D01*
X162927463Y-75116831D01*
X163083261Y-75350000D01*
X163048740Y-75350000D01*
X162761842Y-75407068D01*
X162491589Y-75519010D01*
X162248368Y-75681525D01*
X162041525Y-75888368D01*
X161879010Y-76131589D01*
X161767068Y-76401842D01*
X161710000Y-76688740D01*
X161710000Y-76981260D01*
X161767068Y-77268158D01*
X161879010Y-77538411D01*
X162041525Y-77781632D01*
X162248368Y-77988475D01*
X162491589Y-78150990D01*
X162761842Y-78262932D01*
X163048740Y-78320000D01*
X163341260Y-78320000D01*
X163628158Y-78262932D01*
X163898411Y-78150990D01*
X164141632Y-77988475D01*
X164348475Y-77781632D01*
X164510990Y-77538411D01*
X164622932Y-77268158D01*
X164680000Y-76981260D01*
X164680000Y-76688740D01*
X164622932Y-76401842D01*
X164510990Y-76131589D01*
X164443110Y-76030000D01*
X164635883Y-76030000D01*
X164971081Y-75963325D01*
X165286831Y-75832537D01*
X165570998Y-75642663D01*
X165812663Y-75400998D01*
X166002537Y-75116831D01*
X166133325Y-74801081D01*
X166200000Y-74465883D01*
X166200000Y-74124117D01*
X166133325Y-73788919D01*
X166002537Y-73473169D01*
X165812663Y-73189002D01*
X165570998Y-72947337D01*
X165286831Y-72757463D01*
X165225000Y-72731852D01*
X165225000Y-53132321D01*
X165228676Y-53094998D01*
X165225000Y-53057675D01*
X165225000Y-53057665D01*
X165214003Y-52946012D01*
X165170546Y-52802751D01*
X165148081Y-52760723D01*
X165099974Y-52670721D01*
X165028799Y-52583995D01*
X165005001Y-52554997D01*
X164976004Y-52531200D01*
X161172875Y-48728072D01*
X162390000Y-48728072D01*
X162514482Y-48715812D01*
X162634180Y-48679502D01*
X162744494Y-48620537D01*
X162841185Y-48541185D01*
X162920537Y-48444494D01*
X162979502Y-48334180D01*
X163015812Y-48214482D01*
X163028072Y-48090000D01*
X163028072Y-45890000D01*
X163015812Y-45765518D01*
X162979502Y-45645820D01*
X162920537Y-45535506D01*
X162841185Y-45438815D01*
X162744494Y-45359463D01*
X162634180Y-45300498D01*
X162514482Y-45264188D01*
X162390000Y-45251928D01*
X160190000Y-45251928D01*
X160065518Y-45264188D01*
X159945820Y-45300498D01*
X159835506Y-45359463D01*
X159738815Y-45438815D01*
X159659463Y-45535506D01*
X159600498Y-45645820D01*
X159564188Y-45765518D01*
X159551928Y-45890000D01*
X159551928Y-47107125D01*
X158923806Y-46479003D01*
X158900003Y-46449999D01*
X158784278Y-46355026D01*
X158652249Y-46284454D01*
X158508988Y-46240997D01*
X158397335Y-46230000D01*
X158397324Y-46230000D01*
X158360002Y-46226324D01*
X158322680Y-46230000D01*
X155233148Y-46230000D01*
X155207537Y-46168169D01*
X155017663Y-45884002D01*
X154775998Y-45642337D01*
X154491831Y-45452463D01*
X154176081Y-45321675D01*
X153840883Y-45255000D01*
X153499117Y-45255000D01*
X153163919Y-45321675D01*
X152848169Y-45452463D01*
X152564002Y-45642337D01*
X152322337Y-45884002D01*
X152132463Y-46168169D01*
X152001675Y-46483919D01*
X151935000Y-46819117D01*
X149693072Y-46819117D01*
X149693072Y-45890000D01*
X149680812Y-45765518D01*
X149644502Y-45645820D01*
X149585537Y-45535506D01*
X149506185Y-45438815D01*
X149409494Y-45359463D01*
X149299180Y-45300498D01*
X149179482Y-45264188D01*
X149055000Y-45251928D01*
X146855000Y-45251928D01*
X146730518Y-45264188D01*
X146610820Y-45300498D01*
X146500506Y-45359463D01*
X146403815Y-45438815D01*
X146324463Y-45535506D01*
X146265498Y-45645820D01*
X146229188Y-45765518D01*
X146216928Y-45890000D01*
X141686671Y-45890000D01*
X141682663Y-45884002D01*
X141440998Y-45642337D01*
X141156831Y-45452463D01*
X140841081Y-45321675D01*
X140505883Y-45255000D01*
X140164117Y-45255000D01*
X139828919Y-45321675D01*
X139513169Y-45452463D01*
X139229002Y-45642337D01*
X138987337Y-45884002D01*
X138797463Y-46168169D01*
X138666675Y-46483919D01*
X138600000Y-46819117D01*
X135847701Y-46819117D01*
X135760334Y-46731750D01*
X135304192Y-46426965D01*
X134797354Y-46217026D01*
X134259299Y-46110000D01*
X133710701Y-46110000D01*
X133172646Y-46217026D01*
X132665808Y-46426965D01*
X132209666Y-46731750D01*
X131821750Y-47119666D01*
X131516965Y-47575808D01*
X131307026Y-48082646D01*
X131200000Y-48620701D01*
X128930000Y-48620701D01*
X128930000Y-43205000D01*
X180950000Y-43205000D01*
X180950001Y-60740201D01*
%TA.AperFunction,NonConductor*%
D15*
G36*
X180950001Y-60740201D02*
G01*
X174652871Y-54443072D01*
X175725000Y-54443072D01*
X175849482Y-54430812D01*
X175969180Y-54394502D01*
X176079494Y-54335537D01*
X176176185Y-54256185D01*
X176255537Y-54159494D01*
X176314502Y-54049180D01*
X176350812Y-53929482D01*
X176363072Y-53805000D01*
X176363072Y-51605000D01*
X176350812Y-51480518D01*
X176314502Y-51360820D01*
X176255537Y-51250506D01*
X176176185Y-51153815D01*
X176079494Y-51074463D01*
X175969180Y-51015498D01*
X175849482Y-50979188D01*
X175725000Y-50966928D01*
X173525000Y-50966928D01*
X173400518Y-50979188D01*
X173280820Y-51015498D01*
X173170506Y-51074463D01*
X173073815Y-51153815D01*
X172994463Y-51250506D01*
X172935498Y-51360820D01*
X172899188Y-51480518D01*
X172886928Y-51605000D01*
X172886928Y-52677129D01*
X168329230Y-48119431D01*
X168352663Y-48095998D01*
X168542537Y-47811831D01*
X168673325Y-47496081D01*
X168740000Y-47160883D01*
X168740000Y-46819117D01*
X168673325Y-46483919D01*
X168542537Y-46168169D01*
X168356671Y-45890000D01*
X172886928Y-45890000D01*
X172886928Y-48090000D01*
X172899188Y-48214482D01*
X172935498Y-48334180D01*
X172994463Y-48444494D01*
X173073815Y-48541185D01*
X173170506Y-48620537D01*
X173280820Y-48679502D01*
X173400518Y-48715812D01*
X173525000Y-48728072D01*
X175725000Y-48728072D01*
X175849482Y-48715812D01*
X175969180Y-48679502D01*
X176079494Y-48620537D01*
X176176185Y-48541185D01*
X176255537Y-48444494D01*
X176314502Y-48334180D01*
X176350812Y-48214482D01*
X176363072Y-48090000D01*
X176363072Y-45890000D01*
X176350812Y-45765518D01*
X176314502Y-45645820D01*
X176255537Y-45535506D01*
X176176185Y-45438815D01*
X176079494Y-45359463D01*
X175969180Y-45300498D01*
X175849482Y-45264188D01*
X175725000Y-45251928D01*
X173525000Y-45251928D01*
X173400518Y-45264188D01*
X173280820Y-45300498D01*
X173170506Y-45359463D01*
X173073815Y-45438815D01*
X172994463Y-45535506D01*
X172935498Y-45645820D01*
X172899188Y-45765518D01*
X172886928Y-45890000D01*
X168356671Y-45890000D01*
X168352663Y-45884002D01*
X168110998Y-45642337D01*
X167826831Y-45452463D01*
X167511081Y-45321675D01*
X167175883Y-45255000D01*
X166834117Y-45255000D01*
X166498919Y-45321675D01*
X166183169Y-45452463D01*
X165899002Y-45642337D01*
X165657337Y-45884002D01*
X165467463Y-46168169D01*
X165336675Y-46483919D01*
X165270000Y-46819117D01*
X165270000Y-47160883D01*
X165336675Y-47496081D01*
X165467463Y-47811831D01*
X165657337Y-48095998D01*
X165899002Y-48337663D01*
X166183169Y-48527537D01*
X166498919Y-48658325D01*
X166773050Y-48712853D01*
X174742124Y-56681928D01*
X173525000Y-56681928D01*
X173400518Y-56694188D01*
X173280820Y-56730498D01*
X173170506Y-56789463D01*
X173073815Y-56868815D01*
X172994463Y-56965506D01*
X172935498Y-57075820D01*
X172899188Y-57195518D01*
X172886928Y-57320000D01*
X172886928Y-57512126D01*
X168647714Y-53272912D01*
X168673325Y-53211081D01*
X168740000Y-52875883D01*
X168740000Y-52534117D01*
X168673325Y-52198919D01*
X168542537Y-51883169D01*
X168352663Y-51599002D01*
X168110998Y-51357337D01*
X167826831Y-51167463D01*
X167511081Y-51036675D01*
X167175883Y-50970000D01*
X166834117Y-50970000D01*
X166498919Y-51036675D01*
X166183169Y-51167463D01*
X165899002Y-51357337D01*
X165657337Y-51599002D01*
X165467463Y-51883169D01*
X165336675Y-52198919D01*
X165270000Y-52534117D01*
X165270000Y-52875883D01*
X165336675Y-53211081D01*
X165467463Y-53526831D01*
X165657337Y-53810998D01*
X165899002Y-54052663D01*
X166183169Y-54242537D01*
X166498919Y-54373325D01*
X166834117Y-54440000D01*
X167175883Y-54440000D01*
X167511081Y-54373325D01*
X167572912Y-54347714D01*
X172439999Y-59214801D01*
X172439999Y-62780197D01*
X168647714Y-58987912D01*
X168673325Y-58926081D01*
X168740000Y-58590883D01*
X168740000Y-58249117D01*
X168673325Y-57913919D01*
X168542537Y-57598169D01*
X168352663Y-57314002D01*
X168110998Y-57072337D01*
X167826831Y-56882463D01*
X167511081Y-56751675D01*
X167175883Y-56685000D01*
X166834117Y-56685000D01*
X166498919Y-56751675D01*
X166183169Y-56882463D01*
X165899002Y-57072337D01*
X165657337Y-57314002D01*
X165467463Y-57598169D01*
X165336675Y-57913919D01*
X165270000Y-58249117D01*
X165270000Y-58590883D01*
X165336675Y-58926081D01*
X165467463Y-59241831D01*
X165657337Y-59525998D01*
X165899002Y-59767663D01*
X166183169Y-59957537D01*
X166498919Y-60088325D01*
X166834117Y-60155000D01*
X167175883Y-60155000D01*
X167511081Y-60088325D01*
X167572912Y-60062714D01*
X171989990Y-64479792D01*
X171989991Y-70476330D01*
X171920998Y-70407337D01*
X171636831Y-70217463D01*
X171321081Y-70086675D01*
X170985883Y-70020000D01*
X170644117Y-70020000D01*
X170308919Y-70086675D01*
X169993169Y-70217463D01*
X169709002Y-70407337D01*
X169467337Y-70649002D01*
X169277463Y-70933169D01*
X169146675Y-71248919D01*
X169080000Y-71584117D01*
X169080000Y-71925883D01*
X169146675Y-72261081D01*
X169277463Y-72576831D01*
X169467337Y-72860998D01*
X169709002Y-73102663D01*
X169993169Y-73292537D01*
X170308919Y-73423325D01*
X170644117Y-73490000D01*
X170985883Y-73490000D01*
X171321081Y-73423325D01*
X171636831Y-73292537D01*
X171920998Y-73102663D01*
X171989991Y-73033670D01*
X171989991Y-75386205D01*
X171669001Y-75707196D01*
X171665705Y-75709901D01*
X167765000Y-71809197D01*
X167765000Y-65063148D01*
X167826831Y-65037537D01*
X168110998Y-64847663D01*
X168352663Y-64605998D01*
X168542537Y-64321831D01*
X168673325Y-64006081D01*
X168740000Y-63670883D01*
X168740000Y-63329117D01*
X168673325Y-62993919D01*
X168542537Y-62678169D01*
X168352663Y-62394002D01*
X168110998Y-62152337D01*
X167826831Y-61962463D01*
X167511081Y-61831675D01*
X167175883Y-61765000D01*
X166834117Y-61765000D01*
X166498919Y-61831675D01*
X166183169Y-61962463D01*
X165899002Y-62152337D01*
X165657337Y-62394002D01*
X165467463Y-62678169D01*
X165336675Y-62993919D01*
X165270000Y-63329117D01*
X165270000Y-63670883D01*
X165336675Y-64006081D01*
X165467463Y-64321831D01*
X165657337Y-64605998D01*
X165899002Y-64847663D01*
X166183169Y-65037537D01*
X166245000Y-65063148D01*
X166245001Y-72086666D01*
X166241324Y-72123998D01*
X166245001Y-72161331D01*
X166245309Y-72164453D01*
X166255998Y-72272983D01*
X166299454Y-72416244D01*
X166370026Y-72548274D01*
X166397979Y-72582334D01*
X166465000Y-72663999D01*
X166493998Y-72687797D01*
X168007739Y-74201539D01*
X167506399Y-74301261D01*
X167026859Y-74499893D01*
X166595285Y-74788262D01*
X166228262Y-75155285D01*
X165939893Y-75586859D01*
X165741261Y-76066399D01*
X165640000Y-76575475D01*
X165640000Y-77094525D01*
X165741261Y-77603601D01*
X165939893Y-78083141D01*
X166228262Y-78514715D01*
X166595285Y-78881738D01*
X167026859Y-79170107D01*
X167506399Y-79368739D01*
X168015475Y-79470000D01*
X168534525Y-79470000D01*
X168629999Y-79451009D01*
X168630000Y-92161670D01*
X168626323Y-92199002D01*
X168630000Y-92236335D01*
X168638241Y-92320001D01*
X168640997Y-92347987D01*
X168684453Y-92491248D01*
X168755025Y-92623278D01*
X168824012Y-92707338D01*
X168849999Y-92739003D01*
X168878997Y-92762801D01*
X172029864Y-95913669D01*
X171927068Y-96161843D01*
X171870000Y-96448741D01*
X171870000Y-96741261D01*
X171927068Y-97028159D01*
X172039010Y-97298412D01*
X172201525Y-97541633D01*
X172408368Y-97748476D01*
X172651589Y-97910991D01*
X172921842Y-98022933D01*
X173208740Y-98080001D01*
X173501260Y-98080001D01*
X173788158Y-98022933D01*
X174058411Y-97910991D01*
X174301632Y-97748476D01*
X174508475Y-97541633D01*
X174670990Y-97298412D01*
X174686110Y-97261910D01*
X180944999Y-103520800D01*
X180945000Y-130867666D01*
X180941323Y-130904999D01*
X180955997Y-131053984D01*
X180999453Y-131197245D01*
X181070025Y-131329275D01*
X181141200Y-131416001D01*
X181164999Y-131445000D01*
X181193997Y-131468798D01*
X182507286Y-132782088D01*
X182481675Y-132843919D01*
X182415000Y-133179117D01*
X182415000Y-133520883D01*
X182481675Y-133856081D01*
X182612463Y-134171831D01*
X182768261Y-134405000D01*
X182733740Y-134405000D01*
X182446842Y-134462068D01*
X182176589Y-134574010D01*
X181933368Y-134736525D01*
X181726525Y-134943368D01*
X181564010Y-135186589D01*
X181452068Y-135456842D01*
X181395000Y-135743740D01*
X181395000Y-136036260D01*
X181452068Y-136323158D01*
X181564010Y-136593411D01*
X181726525Y-136836632D01*
X181933368Y-137043475D01*
X182176589Y-137205990D01*
X182446842Y-137317932D01*
X182733740Y-137375000D01*
X183026260Y-137375000D01*
X183313158Y-137317932D01*
X183583411Y-137205990D01*
X183826632Y-137043475D01*
X184033475Y-136836632D01*
X184195990Y-136593411D01*
X184307932Y-136323158D01*
X184365000Y-136036260D01*
X184365000Y-135743740D01*
X184342471Y-135630475D01*
X185325000Y-135630475D01*
X185325000Y-136149525D01*
X185426261Y-136658601D01*
X185624893Y-137138141D01*
X185913262Y-137569715D01*
X186280285Y-137936738D01*
X186711859Y-138225107D01*
X187191399Y-138423739D01*
X187700475Y-138525000D01*
X188219525Y-138525000D01*
X188728601Y-138423739D01*
X189208141Y-138225107D01*
X189639715Y-137936738D01*
X190006738Y-137569715D01*
X190295107Y-137138141D01*
X190493739Y-136658601D01*
X190595000Y-136149525D01*
X190595000Y-135743740D01*
X191555000Y-135743740D01*
X191555000Y-136036260D01*
X191612068Y-136323158D01*
X191724010Y-136593411D01*
X191886525Y-136836632D01*
X192093368Y-137043475D01*
X192336589Y-137205990D01*
X192606842Y-137317932D01*
X192893740Y-137375000D01*
X193186260Y-137375000D01*
X193473158Y-137317932D01*
X193743411Y-137205990D01*
X193986632Y-137043475D01*
X194193475Y-136836632D01*
X194355990Y-136593411D01*
X194467932Y-136323158D01*
X194525000Y-136036260D01*
X194525000Y-135743740D01*
X194467932Y-135456842D01*
X194355990Y-135186589D01*
X194193475Y-134943368D01*
X193986632Y-134736525D01*
X193743411Y-134574010D01*
X193473158Y-134462068D01*
X193186260Y-134405000D01*
X192893740Y-134405000D01*
X192606842Y-134462068D01*
X192336589Y-134574010D01*
X192093368Y-134736525D01*
X191886525Y-134943368D01*
X191724010Y-135186589D01*
X191612068Y-135456842D01*
X191555000Y-135743740D01*
X190595000Y-135743740D01*
X190595000Y-135630475D01*
X190493739Y-135121399D01*
X190295107Y-134641859D01*
X190006738Y-134210285D01*
X189639715Y-133843262D01*
X189208141Y-133554893D01*
X188728601Y-133356261D01*
X188219525Y-133255000D01*
X187700475Y-133255000D01*
X187191399Y-133356261D01*
X186711859Y-133554893D01*
X186280285Y-133843262D01*
X185913262Y-134210285D01*
X185624893Y-134641859D01*
X185426261Y-135121399D01*
X185325000Y-135630475D01*
X184342471Y-135630475D01*
X184307932Y-135456842D01*
X184195990Y-135186589D01*
X184128110Y-135085000D01*
X184320883Y-135085000D01*
X184656081Y-135018325D01*
X184971831Y-134887537D01*
X185255998Y-134697663D01*
X185497663Y-134455998D01*
X185687537Y-134171831D01*
X185818325Y-133856081D01*
X185885000Y-133520883D01*
X185885000Y-133179117D01*
X185818325Y-132843919D01*
X185687537Y-132528169D01*
X185497663Y-132244002D01*
X185255998Y-132002337D01*
X184971831Y-131812463D01*
X184656081Y-131681675D01*
X184320883Y-131615000D01*
X183979117Y-131615000D01*
X183643919Y-131681675D01*
X183582088Y-131707286D01*
X182513919Y-130639117D01*
X188765000Y-130639117D01*
X188765000Y-130980883D01*
X188831675Y-131316081D01*
X188962463Y-131631831D01*
X189152337Y-131915998D01*
X189394002Y-132157663D01*
X189678169Y-132347537D01*
X189993919Y-132478325D01*
X190329117Y-132545000D01*
X190670883Y-132545000D01*
X191006081Y-132478325D01*
X191321831Y-132347537D01*
X191605998Y-132157663D01*
X191847663Y-131915998D01*
X192037537Y-131631831D01*
X192168325Y-131316081D01*
X192235000Y-130980883D01*
X192235000Y-130639117D01*
X192168325Y-130303919D01*
X192037537Y-129988169D01*
X191847663Y-129704002D01*
X191605998Y-129462337D01*
X191321831Y-129272463D01*
X191006081Y-129141675D01*
X190670883Y-129075000D01*
X190329117Y-129075000D01*
X189993919Y-129141675D01*
X189678169Y-129272463D01*
X189394002Y-129462337D01*
X189152337Y-129704002D01*
X188962463Y-129988169D01*
X188831675Y-130303919D01*
X188765000Y-130639117D01*
X182513919Y-130639117D01*
X182464999Y-130590198D01*
X182464999Y-117636544D01*
X182733740Y-117690000D01*
X183026260Y-117690000D01*
X183313158Y-117632932D01*
X183583411Y-117520990D01*
X183826632Y-117358475D01*
X184033475Y-117151632D01*
X184195990Y-116908411D01*
X184307932Y-116638158D01*
X184365000Y-116351260D01*
X184365000Y-116058740D01*
X184342471Y-115945475D01*
X185325000Y-115945475D01*
X185325000Y-116464525D01*
X185426261Y-116973601D01*
X185624893Y-117453141D01*
X185913262Y-117884715D01*
X186280285Y-118251738D01*
X186711859Y-118540107D01*
X187191399Y-118738739D01*
X187700475Y-118840000D01*
X188219525Y-118840000D01*
X188728601Y-118738739D01*
X189208141Y-118540107D01*
X189639715Y-118251738D01*
X190006738Y-117884715D01*
X190295107Y-117453141D01*
X190493739Y-116973601D01*
X190595000Y-116464525D01*
X190595000Y-116058740D01*
X191555000Y-116058740D01*
X191555000Y-116351260D01*
X191612068Y-116638158D01*
X191724010Y-116908411D01*
X191886525Y-117151632D01*
X192093368Y-117358475D01*
X192336589Y-117520990D01*
X192606842Y-117632932D01*
X192893740Y-117690000D01*
X193186260Y-117690000D01*
X193473158Y-117632932D01*
X193743411Y-117520990D01*
X193986632Y-117358475D01*
X194193475Y-117151632D01*
X194355990Y-116908411D01*
X194467932Y-116638158D01*
X194525000Y-116351260D01*
X194525000Y-116058740D01*
X194467932Y-115771842D01*
X194355990Y-115501589D01*
X194193475Y-115258368D01*
X193986632Y-115051525D01*
X193743411Y-114889010D01*
X193473158Y-114777068D01*
X193186260Y-114720000D01*
X192893740Y-114720000D01*
X192606842Y-114777068D01*
X192336589Y-114889010D01*
X192093368Y-115051525D01*
X191886525Y-115258368D01*
X191724010Y-115501589D01*
X191612068Y-115771842D01*
X191555000Y-116058740D01*
X190595000Y-116058740D01*
X190595000Y-115945475D01*
X190493739Y-115436399D01*
X190295107Y-114956859D01*
X190006738Y-114525285D01*
X189639715Y-114158262D01*
X189208141Y-113869893D01*
X188728601Y-113671261D01*
X188219525Y-113570000D01*
X187700475Y-113570000D01*
X187191399Y-113671261D01*
X186711859Y-113869893D01*
X186280285Y-114158262D01*
X185913262Y-114525285D01*
X185624893Y-114956859D01*
X185426261Y-115436399D01*
X185325000Y-115945475D01*
X184342471Y-115945475D01*
X184307932Y-115771842D01*
X184195990Y-115501589D01*
X184128110Y-115400000D01*
X184320883Y-115400000D01*
X184656081Y-115333325D01*
X184971831Y-115202537D01*
X185255998Y-115012663D01*
X185497663Y-114770998D01*
X185687537Y-114486831D01*
X185818325Y-114171081D01*
X185885000Y-113835883D01*
X185885000Y-113494117D01*
X185818325Y-113158919D01*
X185687537Y-112843169D01*
X185497663Y-112559002D01*
X185255998Y-112317337D01*
X184971831Y-112127463D01*
X184910000Y-112101852D01*
X184910000Y-110954117D01*
X188765000Y-110954117D01*
X188765000Y-111295883D01*
X188831675Y-111631081D01*
X188962463Y-111946831D01*
X189152337Y-112230998D01*
X189394002Y-112472663D01*
X189678169Y-112662537D01*
X189993919Y-112793325D01*
X190329117Y-112860000D01*
X190670883Y-112860000D01*
X191006081Y-112793325D01*
X191321831Y-112662537D01*
X191605998Y-112472663D01*
X191847663Y-112230998D01*
X192037537Y-111946831D01*
X192168325Y-111631081D01*
X192235000Y-111295883D01*
X192235000Y-110954117D01*
X192168325Y-110618919D01*
X192037537Y-110303169D01*
X191847663Y-110019002D01*
X191605998Y-109777337D01*
X191321831Y-109587463D01*
X191006081Y-109456675D01*
X190670883Y-109390000D01*
X190329117Y-109390000D01*
X189993919Y-109456675D01*
X189678169Y-109587463D01*
X189394002Y-109777337D01*
X189152337Y-110019002D01*
X188962463Y-110303169D01*
X188831675Y-110618919D01*
X188765000Y-110954117D01*
X184910000Y-110954117D01*
X184910000Y-102778324D01*
X184913676Y-102740999D01*
X184910000Y-102703674D01*
X184910000Y-102703666D01*
X184899003Y-102592013D01*
X184855546Y-102448752D01*
X184784974Y-102316723D01*
X184690001Y-102200998D01*
X184661004Y-102177201D01*
X172939999Y-90456197D01*
X172939999Y-78266544D01*
X173208740Y-78320000D01*
X173501260Y-78320000D01*
X173788158Y-78262932D01*
X174058411Y-78150990D01*
X174301632Y-77988475D01*
X174508475Y-77781632D01*
X174670990Y-77538411D01*
X174686110Y-77501909D01*
X183390000Y-86205800D01*
X183390001Y-92491852D01*
X183328169Y-92517464D01*
X183044002Y-92707338D01*
X182802337Y-92949003D01*
X182612463Y-93233170D01*
X182481675Y-93548920D01*
X182415000Y-93884118D01*
X182415000Y-94225884D01*
X182481675Y-94561082D01*
X182612463Y-94876832D01*
X182768261Y-95110001D01*
X182733740Y-95110001D01*
X182446842Y-95167069D01*
X182176589Y-95279011D01*
X181933368Y-95441526D01*
X181726525Y-95648369D01*
X181564010Y-95891590D01*
X181452068Y-96161843D01*
X181395000Y-96448741D01*
X181395000Y-96741261D01*
X181452068Y-97028159D01*
X181564010Y-97298412D01*
X181726525Y-97541633D01*
X181933368Y-97748476D01*
X182176589Y-97910991D01*
X182446842Y-98022933D01*
X182733740Y-98080001D01*
X183026260Y-98080001D01*
X183313158Y-98022933D01*
X183583411Y-97910991D01*
X183826632Y-97748476D01*
X184033475Y-97541633D01*
X184195990Y-97298412D01*
X184307932Y-97028159D01*
X184365000Y-96741261D01*
X184365000Y-96448741D01*
X184342471Y-96335476D01*
X185325000Y-96335476D01*
X185325000Y-96854526D01*
X185426261Y-97363602D01*
X185624893Y-97843142D01*
X185913262Y-98274716D01*
X186280285Y-98641739D01*
X186711859Y-98930108D01*
X187191399Y-99128740D01*
X187700475Y-99230001D01*
X188219525Y-99230001D01*
X188728601Y-99128740D01*
X189208141Y-98930108D01*
X189639715Y-98641739D01*
X190006738Y-98274716D01*
X190295107Y-97843142D01*
X190493739Y-97363602D01*
X190595000Y-96854526D01*
X190595000Y-96448741D01*
X191555000Y-96448741D01*
X191555000Y-96741261D01*
X191612068Y-97028159D01*
X191724010Y-97298412D01*
X191886525Y-97541633D01*
X192093368Y-97748476D01*
X192336589Y-97910991D01*
X192606842Y-98022933D01*
X192893740Y-98080001D01*
X193186260Y-98080001D01*
X193473158Y-98022933D01*
X193743411Y-97910991D01*
X193986632Y-97748476D01*
X194193475Y-97541633D01*
X194355990Y-97298412D01*
X194467932Y-97028159D01*
X194525000Y-96741261D01*
X194525000Y-96448741D01*
X194467932Y-96161843D01*
X194355990Y-95891590D01*
X194193475Y-95648369D01*
X193986632Y-95441526D01*
X193743411Y-95279011D01*
X193473158Y-95167069D01*
X193186260Y-95110001D01*
X192893740Y-95110001D01*
X192606842Y-95167069D01*
X192336589Y-95279011D01*
X192093368Y-95441526D01*
X191886525Y-95648369D01*
X191724010Y-95891590D01*
X191612068Y-96161843D01*
X191555000Y-96448741D01*
X190595000Y-96448741D01*
X190595000Y-96335476D01*
X190493739Y-95826400D01*
X190295107Y-95346860D01*
X190006738Y-94915286D01*
X189639715Y-94548263D01*
X189208141Y-94259894D01*
X188728601Y-94061262D01*
X188219525Y-93960001D01*
X187700475Y-93960001D01*
X187191399Y-94061262D01*
X186711859Y-94259894D01*
X186280285Y-94548263D01*
X185913262Y-94915286D01*
X185624893Y-95346860D01*
X185426261Y-95826400D01*
X185325000Y-96335476D01*
X184342471Y-96335476D01*
X184307932Y-96161843D01*
X184195990Y-95891590D01*
X184128110Y-95790001D01*
X184320883Y-95790001D01*
X184656081Y-95723326D01*
X184971831Y-95592538D01*
X185255998Y-95402664D01*
X185497663Y-95160999D01*
X185687537Y-94876832D01*
X185818325Y-94561082D01*
X185885000Y-94225884D01*
X185885000Y-93884118D01*
X185818325Y-93548920D01*
X185687537Y-93233170D01*
X185497663Y-92949003D01*
X185255998Y-92707338D01*
X184971831Y-92517464D01*
X184910000Y-92491853D01*
X184910000Y-91344118D01*
X188765000Y-91344118D01*
X188765000Y-91685884D01*
X188831675Y-92021082D01*
X188962463Y-92336832D01*
X189152337Y-92620999D01*
X189394002Y-92862664D01*
X189678169Y-93052538D01*
X189993919Y-93183326D01*
X190329117Y-93250001D01*
X190670883Y-93250001D01*
X191006081Y-93183326D01*
X191321831Y-93052538D01*
X191605998Y-92862664D01*
X191847663Y-92620999D01*
X192037537Y-92336832D01*
X192168325Y-92021082D01*
X192235000Y-91685884D01*
X192235000Y-91344118D01*
X192168325Y-91008920D01*
X192037537Y-90693170D01*
X191847663Y-90409003D01*
X191605998Y-90167338D01*
X191321831Y-89977464D01*
X191006081Y-89846676D01*
X190670883Y-89780001D01*
X190329117Y-89780001D01*
X189993919Y-89846676D01*
X189678169Y-89977464D01*
X189394002Y-90167338D01*
X189152337Y-90409003D01*
X188962463Y-90693170D01*
X188831675Y-91008920D01*
X188765000Y-91344118D01*
X184910000Y-91344118D01*
X184910000Y-85928321D01*
X184913676Y-85890998D01*
X184910000Y-85853675D01*
X184910000Y-85853665D01*
X184899003Y-85742012D01*
X184855546Y-85598751D01*
X184784975Y-85466723D01*
X184784974Y-85466721D01*
X184713799Y-85379995D01*
X184690001Y-85350997D01*
X184661004Y-85327200D01*
X173959999Y-74626196D01*
X173959999Y-65238072D01*
X175725000Y-65238072D01*
X175849482Y-65225812D01*
X175969180Y-65189502D01*
X176079494Y-65130537D01*
X176176185Y-65051185D01*
X176255537Y-64954494D01*
X176314502Y-64844180D01*
X176350812Y-64724482D01*
X176363072Y-64600000D01*
X176363072Y-62400000D01*
X176350812Y-62275518D01*
X176314502Y-62155820D01*
X176255537Y-62045506D01*
X176176185Y-61948815D01*
X176079494Y-61869463D01*
X175969180Y-61810498D01*
X175849482Y-61774188D01*
X175725000Y-61761928D01*
X173959999Y-61761928D01*
X173959999Y-60158072D01*
X175725000Y-60158072D01*
X175849482Y-60145812D01*
X175969180Y-60109502D01*
X176079494Y-60050537D01*
X176176185Y-59971185D01*
X176255537Y-59874494D01*
X176314502Y-59764180D01*
X176350812Y-59644482D01*
X176363072Y-59520000D01*
X176363072Y-58302876D01*
X180499990Y-62439794D01*
X180499991Y-71367658D01*
X180496314Y-71404990D01*
X180510988Y-71553975D01*
X180554444Y-71697236D01*
X180625016Y-71829266D01*
X180696191Y-71915992D01*
X180719990Y-71944991D01*
X180748988Y-71968789D01*
X182507286Y-73727088D01*
X182481675Y-73788919D01*
X182415000Y-74124117D01*
X182415000Y-74465883D01*
X182481675Y-74801081D01*
X182612463Y-75116831D01*
X182768261Y-75350000D01*
X182733740Y-75350000D01*
X182446842Y-75407068D01*
X182176589Y-75519010D01*
X181933368Y-75681525D01*
X181726525Y-75888368D01*
X181564010Y-76131589D01*
X181452068Y-76401842D01*
X181395000Y-76688740D01*
X181395000Y-76981260D01*
X181452068Y-77268158D01*
X181564010Y-77538411D01*
X181726525Y-77781632D01*
X181933368Y-77988475D01*
X182176589Y-78150990D01*
X182446842Y-78262932D01*
X182733740Y-78320000D01*
X183026260Y-78320000D01*
X183313158Y-78262932D01*
X183583411Y-78150990D01*
X183826632Y-77988475D01*
X184033475Y-77781632D01*
X184195990Y-77538411D01*
X184307932Y-77268158D01*
X184365000Y-76981260D01*
X184365000Y-76688740D01*
X184342471Y-76575475D01*
X185325000Y-76575475D01*
X185325000Y-77094525D01*
X185426261Y-77603601D01*
X185624893Y-78083141D01*
X185913262Y-78514715D01*
X186280285Y-78881738D01*
X186711859Y-79170107D01*
X187191399Y-79368739D01*
X187700475Y-79470000D01*
X188219525Y-79470000D01*
X188728601Y-79368739D01*
X189208141Y-79170107D01*
X189639715Y-78881738D01*
X190006738Y-78514715D01*
X190295107Y-78083141D01*
X190493739Y-77603601D01*
X190595000Y-77094525D01*
X190595000Y-76688740D01*
X191555000Y-76688740D01*
X191555000Y-76981260D01*
X191612068Y-77268158D01*
X191724010Y-77538411D01*
X191886525Y-77781632D01*
X192093368Y-77988475D01*
X192336589Y-78150990D01*
X192606842Y-78262932D01*
X192893740Y-78320000D01*
X193186260Y-78320000D01*
X193473158Y-78262932D01*
X193743411Y-78150990D01*
X193986632Y-77988475D01*
X194193475Y-77781632D01*
X194355990Y-77538411D01*
X194467932Y-77268158D01*
X194525000Y-76981260D01*
X194525000Y-76688740D01*
X194467932Y-76401842D01*
X194355990Y-76131589D01*
X194193475Y-75888368D01*
X193986632Y-75681525D01*
X193743411Y-75519010D01*
X193473158Y-75407068D01*
X193186260Y-75350000D01*
X192893740Y-75350000D01*
X192606842Y-75407068D01*
X192336589Y-75519010D01*
X192093368Y-75681525D01*
X191886525Y-75888368D01*
X191724010Y-76131589D01*
X191612068Y-76401842D01*
X191555000Y-76688740D01*
X190595000Y-76688740D01*
X190595000Y-76575475D01*
X190493739Y-76066399D01*
X190295107Y-75586859D01*
X190006738Y-75155285D01*
X189639715Y-74788262D01*
X189208141Y-74499893D01*
X188728601Y-74301261D01*
X188219525Y-74200000D01*
X187700475Y-74200000D01*
X187191399Y-74301261D01*
X186711859Y-74499893D01*
X186280285Y-74788262D01*
X185913262Y-75155285D01*
X185624893Y-75586859D01*
X185426261Y-76066399D01*
X185325000Y-76575475D01*
X184342471Y-76575475D01*
X184307932Y-76401842D01*
X184195990Y-76131589D01*
X184128110Y-76030000D01*
X184320883Y-76030000D01*
X184656081Y-75963325D01*
X184971831Y-75832537D01*
X185255998Y-75642663D01*
X185497663Y-75400998D01*
X185687537Y-75116831D01*
X185818325Y-74801081D01*
X185885000Y-74465883D01*
X185885000Y-74124117D01*
X185818325Y-73788919D01*
X185687537Y-73473169D01*
X185497663Y-73189002D01*
X185255998Y-72947337D01*
X184971831Y-72757463D01*
X184656081Y-72626675D01*
X184320883Y-72560000D01*
X183979117Y-72560000D01*
X183643919Y-72626675D01*
X183582088Y-72652286D01*
X182513919Y-71584117D01*
X188765000Y-71584117D01*
X188765000Y-71925883D01*
X188831675Y-72261081D01*
X188962463Y-72576831D01*
X189152337Y-72860998D01*
X189394002Y-73102663D01*
X189678169Y-73292537D01*
X189993919Y-73423325D01*
X190329117Y-73490000D01*
X190670883Y-73490000D01*
X191006081Y-73423325D01*
X191321831Y-73292537D01*
X191605998Y-73102663D01*
X191847663Y-72860998D01*
X192037537Y-72576831D01*
X192168325Y-72261081D01*
X192235000Y-71925883D01*
X192235000Y-71584117D01*
X192168325Y-71248919D01*
X192037537Y-70933169D01*
X191847663Y-70649002D01*
X191605998Y-70407337D01*
X191321831Y-70217463D01*
X191006081Y-70086675D01*
X190670883Y-70020000D01*
X190329117Y-70020000D01*
X189993919Y-70086675D01*
X189678169Y-70217463D01*
X189394002Y-70407337D01*
X189152337Y-70649002D01*
X188962463Y-70933169D01*
X188831675Y-71248919D01*
X188765000Y-71584117D01*
X182513919Y-71584117D01*
X182019990Y-71090189D01*
X182019990Y-65938000D01*
X194277581Y-65938000D01*
X194310000Y-65941193D01*
X194342419Y-65938000D01*
X194439383Y-65928450D01*
X194563793Y-65890710D01*
X194678450Y-65829425D01*
X194778948Y-65746948D01*
X194861425Y-65646450D01*
X194922710Y-65531793D01*
X194960450Y-65407383D01*
X194973193Y-65278000D01*
X194970000Y-65245581D01*
X194970000Y-48620701D01*
X199780000Y-48620701D01*
X199780000Y-49169299D01*
X199887026Y-49707354D01*
X200096965Y-50214192D01*
X200401750Y-50670334D01*
X200789666Y-51058250D01*
X201245808Y-51363035D01*
X201752646Y-51572974D01*
X202290701Y-51680000D01*
X202839299Y-51680000D01*
X203377354Y-51572974D01*
X203884192Y-51363035D01*
X204340334Y-51058250D01*
X204728250Y-50670334D01*
X205033035Y-50214192D01*
X205242974Y-49707354D01*
X205350000Y-49169299D01*
X205350000Y-48620701D01*
X205242974Y-48082646D01*
X205033035Y-47575808D01*
X204728250Y-47119666D01*
X204340334Y-46731750D01*
X203884192Y-46426965D01*
X203377354Y-46217026D01*
X202839299Y-46110000D01*
X202290701Y-46110000D01*
X201752646Y-46217026D01*
X201245808Y-46426965D01*
X200789666Y-46731750D01*
X200401750Y-47119666D01*
X200096965Y-47575808D01*
X199887026Y-48082646D01*
X199780000Y-48620701D01*
X194970000Y-48620701D01*
X194970000Y-43205000D01*
X207620000Y-43205000D01*
X207620001Y-146660000D01*
X128930000Y-146660000D01*
X128930000Y-141330701D01*
X131200000Y-141330701D01*
X131200000Y-141879299D01*
X131307026Y-142417354D01*
X131516965Y-142924192D01*
X131821750Y-143380334D01*
X132209666Y-143768250D01*
X132665808Y-144073035D01*
X133172646Y-144282974D01*
X133710701Y-144390000D01*
X134259299Y-144390000D01*
X134797354Y-144282974D01*
X135304192Y-144073035D01*
X135760334Y-143768250D01*
X136148250Y-143380334D01*
X136453035Y-142924192D01*
X136662974Y-142417354D01*
X136770000Y-141879299D01*
X136770000Y-141330701D01*
X199780000Y-141330701D01*
X199780000Y-141879299D01*
X199887026Y-142417354D01*
X200096965Y-142924192D01*
X200401750Y-143380334D01*
X200789666Y-143768250D01*
X201245808Y-144073035D01*
X201752646Y-144282974D01*
X202290701Y-144390000D01*
X202839299Y-144390000D01*
X203377354Y-144282974D01*
X203884192Y-144073035D01*
X204340334Y-143768250D01*
X204728250Y-143380334D01*
X205033035Y-142924192D01*
X205242974Y-142417354D01*
X205350000Y-141879299D01*
X205350000Y-141330701D01*
X205242974Y-140792646D01*
X205033035Y-140285808D01*
X204728250Y-139829666D01*
X204340334Y-139441750D01*
X203884192Y-139136965D01*
X203377354Y-138927026D01*
X202839299Y-138820000D01*
X202290701Y-138820000D01*
X201752646Y-138927026D01*
X201245808Y-139136965D01*
X200789666Y-139441750D01*
X200401750Y-139829666D01*
X200096965Y-140285808D01*
X199887026Y-140792646D01*
X199780000Y-141330701D01*
X136770000Y-141330701D01*
X136662974Y-140792646D01*
X136453035Y-140285808D01*
X136148250Y-139829666D01*
X135760334Y-139441750D01*
X135304192Y-139136965D01*
X134797354Y-138927026D01*
X134259299Y-138820000D01*
X133710701Y-138820000D01*
X133172646Y-138927026D01*
X132665808Y-139136965D01*
X132209666Y-139441750D01*
X131821750Y-139829666D01*
X131516965Y-140285808D01*
X131307026Y-140792646D01*
X131200000Y-141330701D01*
X128930000Y-141330701D01*
X128930000Y-48620701D01*
X131200000Y-48620701D01*
X131200000Y-49169299D01*
X131307026Y-49707354D01*
X131516965Y-50214192D01*
X131821750Y-50670334D01*
X132209666Y-51058250D01*
X132665808Y-51363035D01*
X133172646Y-51572974D01*
X133710701Y-51680000D01*
X134259299Y-51680000D01*
X134797354Y-51572974D01*
X135304192Y-51363035D01*
X135760334Y-51058250D01*
X136148250Y-50670334D01*
X136453035Y-50214192D01*
X136662974Y-49707354D01*
X136770000Y-49169299D01*
X136770000Y-48620701D01*
X136662974Y-48082646D01*
X136453035Y-47575808D01*
X136148250Y-47119666D01*
X135847701Y-46819117D01*
X138600000Y-46819117D01*
X138600000Y-47160883D01*
X138666675Y-47496081D01*
X138797463Y-47811831D01*
X138987337Y-48095998D01*
X139229002Y-48337663D01*
X139513169Y-48527537D01*
X139828919Y-48658325D01*
X140164117Y-48725000D01*
X140505883Y-48725000D01*
X140841081Y-48658325D01*
X140902912Y-48632714D01*
X145769999Y-53499801D01*
X145770000Y-72230198D01*
X145347912Y-72652286D01*
X145286081Y-72626675D01*
X144950883Y-72560000D01*
X144855999Y-72560000D01*
X144855999Y-56503324D01*
X144859675Y-56465999D01*
X144855999Y-56428674D01*
X144855999Y-56428666D01*
X144845002Y-56317013D01*
X144801545Y-56173752D01*
X144730973Y-56041723D01*
X144636000Y-55925998D01*
X144607003Y-55902201D01*
X141977714Y-53272912D01*
X142003325Y-53211081D01*
X142070000Y-52875883D01*
X142070000Y-52534117D01*
X142003325Y-52198919D01*
X141872537Y-51883169D01*
X141682663Y-51599002D01*
X141440998Y-51357337D01*
X141156831Y-51167463D01*
X140841081Y-51036675D01*
X140505883Y-50970000D01*
X140164117Y-50970000D01*
X139828919Y-51036675D01*
X139513169Y-51167463D01*
X139229002Y-51357337D01*
X138987337Y-51599002D01*
X138797463Y-51883169D01*
X138666675Y-52198919D01*
X138600000Y-52534117D01*
X138600000Y-52875883D01*
X138666675Y-53211081D01*
X138797463Y-53526831D01*
X138987337Y-53810998D01*
X139229002Y-54052663D01*
X139513169Y-54242537D01*
X139828919Y-54373325D01*
X140164117Y-54440000D01*
X140505883Y-54440000D01*
X140841081Y-54373325D01*
X140902912Y-54347714D01*
X143335999Y-56780801D01*
X143336000Y-72555196D01*
X143094999Y-72796198D01*
X143094999Y-60457324D01*
X143098675Y-60419999D01*
X143094999Y-60382674D01*
X143094999Y-60382666D01*
X143084002Y-60271013D01*
X143040545Y-60127752D01*
X142969973Y-59995723D01*
X142875000Y-59879998D01*
X142846003Y-59856201D01*
X141977714Y-58987912D01*
X142003325Y-58926081D01*
X142070000Y-58590883D01*
X142070000Y-58249117D01*
X142003325Y-57913919D01*
X141872537Y-57598169D01*
X141682663Y-57314002D01*
X141440998Y-57072337D01*
X141156831Y-56882463D01*
X140841081Y-56751675D01*
X140505883Y-56685000D01*
X140164117Y-56685000D01*
X139828919Y-56751675D01*
X139513169Y-56882463D01*
X139229002Y-57072337D01*
X138987337Y-57314002D01*
X138797463Y-57598169D01*
X138666675Y-57913919D01*
X138600000Y-58249117D01*
X138600000Y-58590883D01*
X138666675Y-58926081D01*
X138797463Y-59241831D01*
X138987337Y-59525998D01*
X139229002Y-59767663D01*
X139513169Y-59957537D01*
X139828919Y-60088325D01*
X140164117Y-60155000D01*
X140505883Y-60155000D01*
X140841081Y-60088325D01*
X140902912Y-60062714D01*
X141574999Y-60734801D01*
X141574999Y-62286338D01*
X141440998Y-62152337D01*
X141156831Y-61962463D01*
X140841081Y-61831675D01*
X140505883Y-61765000D01*
X140164117Y-61765000D01*
X139828919Y-61831675D01*
X139513169Y-61962463D01*
X139229002Y-62152337D01*
X138987337Y-62394002D01*
X138797463Y-62678169D01*
X138666675Y-62993919D01*
X138600000Y-63329117D01*
X138600000Y-63670883D01*
X138666675Y-64006081D01*
X138797463Y-64321831D01*
X138987337Y-64605998D01*
X139229002Y-64847663D01*
X139513169Y-65037537D01*
X139575000Y-65063148D01*
X139575001Y-128867667D01*
X139571324Y-128905000D01*
X139575001Y-128942333D01*
X139585998Y-129053986D01*
X139599180Y-129097442D01*
X139629454Y-129197246D01*
X139700026Y-129329276D01*
X139771201Y-129416002D01*
X139795000Y-129445001D01*
X139823998Y-129468799D01*
X143137286Y-132782088D01*
X143111675Y-132843919D01*
X143045000Y-133179117D01*
X143045000Y-133520883D01*
X143111675Y-133856081D01*
X143242463Y-134171831D01*
X143398261Y-134405000D01*
X143363740Y-134405000D01*
X143076842Y-134462068D01*
X142806589Y-134574010D01*
X142563368Y-134736525D01*
X142356525Y-134943368D01*
X142194010Y-135186589D01*
X142082068Y-135456842D01*
X142025000Y-135743740D01*
X142025000Y-136036260D01*
X142082068Y-136323158D01*
X142194010Y-136593411D01*
X142356525Y-136836632D01*
X142563368Y-137043475D01*
X142806589Y-137205990D01*
X143076842Y-137317932D01*
X143363740Y-137375000D01*
X143656260Y-137375000D01*
X143943158Y-137317932D01*
X144213411Y-137205990D01*
X144456632Y-137043475D01*
X144663475Y-136836632D01*
X144825990Y-136593411D01*
X144937932Y-136323158D01*
X144995000Y-136036260D01*
X144995000Y-135743740D01*
X144972471Y-135630475D01*
X145955000Y-135630475D01*
X145955000Y-136149525D01*
X146056261Y-136658601D01*
X146254893Y-137138141D01*
X146543262Y-137569715D01*
X146910285Y-137936738D01*
X147341859Y-138225107D01*
X147821399Y-138423739D01*
X148330475Y-138525000D01*
X148849525Y-138525000D01*
X149358601Y-138423739D01*
X149838141Y-138225107D01*
X150269715Y-137936738D01*
X150636738Y-137569715D01*
X150925107Y-137138141D01*
X151123739Y-136658601D01*
X151225000Y-136149525D01*
X151225000Y-135743740D01*
X152185000Y-135743740D01*
X152185000Y-136036260D01*
X152242068Y-136323158D01*
X152354010Y-136593411D01*
X152516525Y-136836632D01*
X152723368Y-137043475D01*
X152966589Y-137205990D01*
X153236842Y-137317932D01*
X153523740Y-137375000D01*
X153816260Y-137375000D01*
X154103158Y-137317932D01*
X154373411Y-137205990D01*
X154616632Y-137043475D01*
X154823475Y-136836632D01*
X154985990Y-136593411D01*
X155097932Y-136323158D01*
X155155000Y-136036260D01*
X155155000Y-135743740D01*
X155097932Y-135456842D01*
X154985990Y-135186589D01*
X154823475Y-134943368D01*
X154616632Y-134736525D01*
X154373411Y-134574010D01*
X154103158Y-134462068D01*
X153816260Y-134405000D01*
X153523740Y-134405000D01*
X153236842Y-134462068D01*
X152966589Y-134574010D01*
X152723368Y-134736525D01*
X152516525Y-134943368D01*
X152354010Y-135186589D01*
X152242068Y-135456842D01*
X152185000Y-135743740D01*
X151225000Y-135743740D01*
X151225000Y-135630475D01*
X151123739Y-135121399D01*
X150925107Y-134641859D01*
X150636738Y-134210285D01*
X150269715Y-133843262D01*
X149838141Y-133554893D01*
X149358601Y-133356261D01*
X148849525Y-133255000D01*
X148330475Y-133255000D01*
X147821399Y-133356261D01*
X147341859Y-133554893D01*
X146910285Y-133843262D01*
X146543262Y-134210285D01*
X146254893Y-134641859D01*
X146056261Y-135121399D01*
X145955000Y-135630475D01*
X144972471Y-135630475D01*
X144937932Y-135456842D01*
X144825990Y-135186589D01*
X144758110Y-135085000D01*
X144950883Y-135085000D01*
X145286081Y-135018325D01*
X145601831Y-134887537D01*
X145885998Y-134697663D01*
X146127663Y-134455998D01*
X146317537Y-134171831D01*
X146448325Y-133856081D01*
X146515000Y-133520883D01*
X146515000Y-133179117D01*
X146448325Y-132843919D01*
X146317537Y-132528169D01*
X146127663Y-132244002D01*
X145885998Y-132002337D01*
X145601831Y-131812463D01*
X145286081Y-131681675D01*
X144950883Y-131615000D01*
X144609117Y-131615000D01*
X144273919Y-131681675D01*
X144212088Y-131707286D01*
X143143919Y-130639117D01*
X149395000Y-130639117D01*
X149395000Y-130980883D01*
X149461675Y-131316081D01*
X149592463Y-131631831D01*
X149782337Y-131915998D01*
X150024002Y-132157663D01*
X150308169Y-132347537D01*
X150623919Y-132478325D01*
X150959117Y-132545000D01*
X151300883Y-132545000D01*
X151636081Y-132478325D01*
X151951831Y-132347537D01*
X152235998Y-132157663D01*
X152477663Y-131915998D01*
X152667537Y-131631831D01*
X152798325Y-131316081D01*
X152865000Y-130980883D01*
X152865000Y-130639117D01*
X152798325Y-130303919D01*
X152667537Y-129988169D01*
X152477663Y-129704002D01*
X152235998Y-129462337D01*
X151951831Y-129272463D01*
X151636081Y-129141675D01*
X151300883Y-129075000D01*
X150959117Y-129075000D01*
X150623919Y-129141675D01*
X150308169Y-129272463D01*
X150024002Y-129462337D01*
X149782337Y-129704002D01*
X149592463Y-129988169D01*
X149461675Y-130303919D01*
X149395000Y-130639117D01*
X143143919Y-130639117D01*
X141095000Y-128590199D01*
X141095000Y-65063148D01*
X141156831Y-65037537D01*
X141440998Y-64847663D01*
X141574999Y-64713662D01*
X141575000Y-111182666D01*
X141571323Y-111219999D01*
X141585997Y-111368984D01*
X141629453Y-111512245D01*
X141700025Y-111644275D01*
X141771200Y-111731001D01*
X141794999Y-111760000D01*
X141823997Y-111783798D01*
X143137286Y-113097088D01*
X143111675Y-113158919D01*
X143045000Y-113494117D01*
X143045000Y-113835883D01*
X143111675Y-114171081D01*
X143242463Y-114486831D01*
X143398261Y-114720000D01*
X143363740Y-114720000D01*
X143076842Y-114777068D01*
X142806589Y-114889010D01*
X142563368Y-115051525D01*
X142356525Y-115258368D01*
X142194010Y-115501589D01*
X142082068Y-115771842D01*
X142025000Y-116058740D01*
X142025000Y-116351260D01*
X142082068Y-116638158D01*
X142194010Y-116908411D01*
X142356525Y-117151632D01*
X142563368Y-117358475D01*
X142806589Y-117520990D01*
X143076842Y-117632932D01*
X143363740Y-117690000D01*
X143656260Y-117690000D01*
X143943158Y-117632932D01*
X144213411Y-117520990D01*
X144456632Y-117358475D01*
X144663475Y-117151632D01*
X144825990Y-116908411D01*
X144937932Y-116638158D01*
X144995000Y-116351260D01*
X144995000Y-116058740D01*
X144972471Y-115945475D01*
X145955000Y-115945475D01*
X145955000Y-116464525D01*
X146056261Y-116973601D01*
X146254893Y-117453141D01*
X146543262Y-117884715D01*
X146910285Y-118251738D01*
X147341859Y-118540107D01*
X147821399Y-118738739D01*
X148330475Y-118840000D01*
X148849525Y-118840000D01*
X149358601Y-118738739D01*
X149838141Y-118540107D01*
X150269715Y-118251738D01*
X150636738Y-117884715D01*
X150925107Y-117453141D01*
X151123739Y-116973601D01*
X151225000Y-116464525D01*
X151225000Y-116058740D01*
X152185000Y-116058740D01*
X152185000Y-116351260D01*
X152242068Y-116638158D01*
X152354010Y-116908411D01*
X152516525Y-117151632D01*
X152723368Y-117358475D01*
X152966589Y-117520990D01*
X153236842Y-117632932D01*
X153523740Y-117690000D01*
X153816260Y-117690000D01*
X154103158Y-117632932D01*
X154373411Y-117520990D01*
X154616632Y-117358475D01*
X154823475Y-117151632D01*
X154985990Y-116908411D01*
X155097932Y-116638158D01*
X155155000Y-116351260D01*
X155155000Y-116058740D01*
X155097932Y-115771842D01*
X154985990Y-115501589D01*
X154823475Y-115258368D01*
X154616632Y-115051525D01*
X154373411Y-114889010D01*
X154103158Y-114777068D01*
X153816260Y-114720000D01*
X153523740Y-114720000D01*
X153236842Y-114777068D01*
X152966589Y-114889010D01*
X152723368Y-115051525D01*
X152516525Y-115258368D01*
X152354010Y-115501589D01*
X152242068Y-115771842D01*
X152185000Y-116058740D01*
X151225000Y-116058740D01*
X151225000Y-115945475D01*
X151123739Y-115436399D01*
X150925107Y-114956859D01*
X150636738Y-114525285D01*
X150269715Y-114158262D01*
X149838141Y-113869893D01*
X149358601Y-113671261D01*
X148849525Y-113570000D01*
X148330475Y-113570000D01*
X147821399Y-113671261D01*
X147341859Y-113869893D01*
X146910285Y-114158262D01*
X146543262Y-114525285D01*
X146254893Y-114956859D01*
X146056261Y-115436399D01*
X145955000Y-115945475D01*
X144972471Y-115945475D01*
X144937932Y-115771842D01*
X144825990Y-115501589D01*
X144758110Y-115400000D01*
X144950883Y-115400000D01*
X145286081Y-115333325D01*
X145601831Y-115202537D01*
X145885998Y-115012663D01*
X146127663Y-114770998D01*
X146317537Y-114486831D01*
X146448325Y-114171081D01*
X146515000Y-113835883D01*
X146515000Y-113494117D01*
X146448325Y-113158919D01*
X146317537Y-112843169D01*
X146127663Y-112559002D01*
X145885998Y-112317337D01*
X145601831Y-112127463D01*
X145286081Y-111996675D01*
X144950883Y-111930000D01*
X144609117Y-111930000D01*
X144273919Y-111996675D01*
X144212088Y-112022286D01*
X143143919Y-110954117D01*
X149395000Y-110954117D01*
X149395000Y-111295883D01*
X149461675Y-111631081D01*
X149592463Y-111946831D01*
X149782337Y-112230998D01*
X150024002Y-112472663D01*
X150308169Y-112662537D01*
X150623919Y-112793325D01*
X150959117Y-112860000D01*
X151300883Y-112860000D01*
X151636081Y-112793325D01*
X151951831Y-112662537D01*
X152235998Y-112472663D01*
X152477663Y-112230998D01*
X152667537Y-111946831D01*
X152798325Y-111631081D01*
X152865000Y-111295883D01*
X152865000Y-110954117D01*
X152798325Y-110618919D01*
X152667537Y-110303169D01*
X152477663Y-110019002D01*
X152235998Y-109777337D01*
X151951831Y-109587463D01*
X151636081Y-109456675D01*
X151300883Y-109390000D01*
X150959117Y-109390000D01*
X150623919Y-109456675D01*
X150308169Y-109587463D01*
X150024002Y-109777337D01*
X149782337Y-110019002D01*
X149592463Y-110303169D01*
X149461675Y-110618919D01*
X149395000Y-110954117D01*
X143143919Y-110954117D01*
X143094999Y-110905198D01*
X143094999Y-98026545D01*
X143363740Y-98080001D01*
X143656260Y-98080001D01*
X143943158Y-98022933D01*
X144213411Y-97910991D01*
X144456632Y-97748476D01*
X144663475Y-97541633D01*
X144825990Y-97298412D01*
X144937932Y-97028159D01*
X144995000Y-96741261D01*
X144995000Y-96448741D01*
X144972471Y-96335476D01*
X145955000Y-96335476D01*
X145955000Y-96854526D01*
X146056261Y-97363602D01*
X146254893Y-97843142D01*
X146543262Y-98274716D01*
X146910285Y-98641739D01*
X147341859Y-98930108D01*
X147821399Y-99128740D01*
X148330475Y-99230001D01*
X148849525Y-99230001D01*
X149358601Y-99128740D01*
X149838141Y-98930108D01*
X150269715Y-98641739D01*
X150636738Y-98274716D01*
X150925107Y-97843142D01*
X151123739Y-97363602D01*
X151225000Y-96854526D01*
X151225000Y-96448741D01*
X152185000Y-96448741D01*
X152185000Y-96741261D01*
X152242068Y-97028159D01*
X152354010Y-97298412D01*
X152516525Y-97541633D01*
X152723368Y-97748476D01*
X152966589Y-97910991D01*
X153236842Y-98022933D01*
X153523740Y-98080001D01*
X153816260Y-98080001D01*
X154103158Y-98022933D01*
X154373411Y-97910991D01*
X154616632Y-97748476D01*
X154823475Y-97541633D01*
X154985990Y-97298412D01*
X155097932Y-97028159D01*
X155155000Y-96741261D01*
X155155000Y-96448741D01*
X155097932Y-96161843D01*
X154985990Y-95891590D01*
X154823475Y-95648369D01*
X154616632Y-95441526D01*
X154373411Y-95279011D01*
X154103158Y-95167069D01*
X153816260Y-95110001D01*
X153523740Y-95110001D01*
X153236842Y-95167069D01*
X152966589Y-95279011D01*
X152723368Y-95441526D01*
X152516525Y-95648369D01*
X152354010Y-95891590D01*
X152242068Y-96161843D01*
X152185000Y-96448741D01*
X151225000Y-96448741D01*
X151225000Y-96335476D01*
X151123739Y-95826400D01*
X150925107Y-95346860D01*
X150636738Y-94915286D01*
X150269715Y-94548263D01*
X149838141Y-94259894D01*
X149358601Y-94061262D01*
X148849525Y-93960001D01*
X148330475Y-93960001D01*
X147821399Y-94061262D01*
X147341859Y-94259894D01*
X146910285Y-94548263D01*
X146543262Y-94915286D01*
X146254893Y-95346860D01*
X146056261Y-95826400D01*
X145955000Y-96335476D01*
X144972471Y-96335476D01*
X144937932Y-96161843D01*
X144825990Y-95891590D01*
X144758110Y-95790001D01*
X144950883Y-95790001D01*
X145286081Y-95723326D01*
X145601831Y-95592538D01*
X145885998Y-95402664D01*
X146127663Y-95160999D01*
X146317537Y-94876832D01*
X146448325Y-94561082D01*
X146515000Y-94225884D01*
X146515000Y-93884118D01*
X146448325Y-93548920D01*
X146317537Y-93233170D01*
X146127663Y-92949003D01*
X145885998Y-92707338D01*
X145601831Y-92517464D01*
X145540000Y-92491853D01*
X145540000Y-91344118D01*
X149395000Y-91344118D01*
X149395000Y-91685884D01*
X149461675Y-92021082D01*
X149592463Y-92336832D01*
X149782337Y-92620999D01*
X150024002Y-92862664D01*
X150308169Y-93052538D01*
X150623919Y-93183326D01*
X150959117Y-93250001D01*
X151300883Y-93250001D01*
X151636081Y-93183326D01*
X151951831Y-93052538D01*
X152235998Y-92862664D01*
X152477663Y-92620999D01*
X152667537Y-92336832D01*
X152798325Y-92021082D01*
X152865000Y-91685884D01*
X152865000Y-91344118D01*
X152798325Y-91008920D01*
X152667537Y-90693170D01*
X152477663Y-90409003D01*
X152235998Y-90167338D01*
X151951831Y-89977464D01*
X151636081Y-89846676D01*
X151300883Y-89780001D01*
X150959117Y-89780001D01*
X150623919Y-89846676D01*
X150308169Y-89977464D01*
X150024002Y-90167338D01*
X149782337Y-90409003D01*
X149592463Y-90693170D01*
X149461675Y-91008920D01*
X149395000Y-91344118D01*
X145540000Y-91344118D01*
X145540000Y-76575475D01*
X145955000Y-76575475D01*
X145955000Y-77094525D01*
X146056261Y-77603601D01*
X146254893Y-78083141D01*
X146543262Y-78514715D01*
X146910285Y-78881738D01*
X147341859Y-79170107D01*
X147821399Y-79368739D01*
X148330475Y-79470000D01*
X148849525Y-79470000D01*
X149358601Y-79368739D01*
X149838141Y-79170107D01*
X150269715Y-78881738D01*
X150636738Y-78514715D01*
X150925107Y-78083141D01*
X151123739Y-77603601D01*
X151225000Y-77094525D01*
X151225000Y-76688740D01*
X152185000Y-76688740D01*
X152185000Y-76981260D01*
X152242068Y-77268158D01*
X152354010Y-77538411D01*
X152516525Y-77781632D01*
X152723368Y-77988475D01*
X152966589Y-78150990D01*
X153236842Y-78262932D01*
X153523740Y-78320000D01*
X153816260Y-78320000D01*
X154103158Y-78262932D01*
X154373411Y-78150990D01*
X154616632Y-77988475D01*
X154823475Y-77781632D01*
X154985990Y-77538411D01*
X155097932Y-77268158D01*
X155155000Y-76981260D01*
X155155000Y-76688740D01*
X155097932Y-76401842D01*
X154985990Y-76131589D01*
X154823475Y-75888368D01*
X154616632Y-75681525D01*
X154373411Y-75519010D01*
X154103158Y-75407068D01*
X153816260Y-75350000D01*
X153523740Y-75350000D01*
X153236842Y-75407068D01*
X152966589Y-75519010D01*
X152723368Y-75681525D01*
X152516525Y-75888368D01*
X152354010Y-76131589D01*
X152242068Y-76401842D01*
X152185000Y-76688740D01*
X151225000Y-76688740D01*
X151225000Y-76575475D01*
X151123739Y-76066399D01*
X150925107Y-75586859D01*
X150636738Y-75155285D01*
X150269715Y-74788262D01*
X149838141Y-74499893D01*
X149358601Y-74301261D01*
X148849525Y-74200000D01*
X148330475Y-74200000D01*
X147821399Y-74301261D01*
X147341859Y-74499893D01*
X146910285Y-74788262D01*
X146543262Y-75155285D01*
X146254893Y-75586859D01*
X146056261Y-76066399D01*
X145955000Y-76575475D01*
X145540000Y-76575475D01*
X145540000Y-76403323D01*
X145543676Y-76365998D01*
X145540000Y-76328673D01*
X145540000Y-76328665D01*
X145529003Y-76217012D01*
X145485546Y-76073751D01*
X145414974Y-75941722D01*
X145395506Y-75918000D01*
X145601831Y-75832537D01*
X145885998Y-75642663D01*
X146127663Y-75400998D01*
X146317537Y-75116831D01*
X146448325Y-74801081D01*
X146515000Y-74465883D01*
X146515000Y-74124117D01*
X146448325Y-73788919D01*
X146422714Y-73727088D01*
X147041002Y-73108800D01*
X147070000Y-73085002D01*
X147164973Y-72969277D01*
X147235545Y-72837248D01*
X147279002Y-72693987D01*
X147289999Y-72582334D01*
X147289999Y-72582325D01*
X147293675Y-72545002D01*
X147289999Y-72507679D01*
X147289999Y-71584117D01*
X149395000Y-71584117D01*
X149395000Y-71925883D01*
X149461675Y-72261081D01*
X149592463Y-72576831D01*
X149782337Y-72860998D01*
X150024002Y-73102663D01*
X150308169Y-73292537D01*
X150623919Y-73423325D01*
X150959117Y-73490000D01*
X151300883Y-73490000D01*
X151636081Y-73423325D01*
X151951831Y-73292537D01*
X152235998Y-73102663D01*
X152477663Y-72860998D01*
X152667537Y-72576831D01*
X152798325Y-72261081D01*
X152865000Y-71925883D01*
X152865000Y-71584117D01*
X152798325Y-71248919D01*
X152667537Y-70933169D01*
X152477663Y-70649002D01*
X152235998Y-70407337D01*
X151951831Y-70217463D01*
X151636081Y-70086675D01*
X151300883Y-70020000D01*
X150959117Y-70020000D01*
X150623919Y-70086675D01*
X150308169Y-70217463D01*
X150024002Y-70407337D01*
X149782337Y-70649002D01*
X149592463Y-70933169D01*
X149461675Y-71248919D01*
X149395000Y-71584117D01*
X147289999Y-71584117D01*
X147289999Y-65238072D01*
X149055000Y-65238072D01*
X149179482Y-65225812D01*
X149299180Y-65189502D01*
X149409494Y-65130537D01*
X149506185Y-65051185D01*
X149585537Y-64954494D01*
X149644502Y-64844180D01*
X149680812Y-64724482D01*
X149693072Y-64600000D01*
X149693072Y-62400000D01*
X149680812Y-62275518D01*
X149644502Y-62155820D01*
X149585537Y-62045506D01*
X149506185Y-61948815D01*
X149409494Y-61869463D01*
X149299180Y-61810498D01*
X149179482Y-61774188D01*
X149055000Y-61761928D01*
X147289999Y-61761928D01*
X147289999Y-60158072D01*
X149055000Y-60158072D01*
X149179482Y-60145812D01*
X149299180Y-60109502D01*
X149409494Y-60050537D01*
X149506185Y-59971185D01*
X149585537Y-59874494D01*
X149644502Y-59764180D01*
X149680812Y-59644482D01*
X149693072Y-59520000D01*
X149693072Y-57320000D01*
X149680812Y-57195518D01*
X149644502Y-57075820D01*
X149585537Y-56965506D01*
X149506185Y-56868815D01*
X149409494Y-56789463D01*
X149299180Y-56730498D01*
X149179482Y-56694188D01*
X149055000Y-56681928D01*
X147289999Y-56681928D01*
X147289999Y-54443072D01*
X149055000Y-54443072D01*
X149179482Y-54430812D01*
X149299180Y-54394502D01*
X149409494Y-54335537D01*
X149506185Y-54256185D01*
X149585537Y-54159494D01*
X149644502Y-54049180D01*
X149680812Y-53929482D01*
X149693072Y-53805000D01*
X149693072Y-52534117D01*
X151935000Y-52534117D01*
X151935000Y-52875883D01*
X152001675Y-53211081D01*
X152132463Y-53526831D01*
X152322337Y-53810998D01*
X152564002Y-54052663D01*
X152848169Y-54242537D01*
X153163919Y-54373325D01*
X153499117Y-54440000D01*
X153840883Y-54440000D01*
X154176081Y-54373325D01*
X154237912Y-54347714D01*
X159104999Y-59214801D01*
X159104999Y-62780197D01*
X155312714Y-58987912D01*
X155338325Y-58926081D01*
X155405000Y-58590883D01*
X155405000Y-58249117D01*
X155338325Y-57913919D01*
X155207537Y-57598169D01*
X155017663Y-57314002D01*
X154775998Y-57072337D01*
X154491831Y-56882463D01*
X154176081Y-56751675D01*
X153840883Y-56685000D01*
X153499117Y-56685000D01*
X153163919Y-56751675D01*
X152848169Y-56882463D01*
X152564002Y-57072337D01*
X152322337Y-57314002D01*
X152132463Y-57598169D01*
X152001675Y-57913919D01*
X151935000Y-58249117D01*
X151935000Y-58590883D01*
X152001675Y-58926081D01*
X152132463Y-59241831D01*
X152322337Y-59525998D01*
X152564002Y-59767663D01*
X152848169Y-59957537D01*
X153163919Y-60088325D01*
X153499117Y-60155000D01*
X153840883Y-60155000D01*
X154176081Y-60088325D01*
X154237912Y-60062714D01*
X158654989Y-64479791D01*
X158654989Y-67410187D01*
X155312714Y-64067912D01*
X155338325Y-64006081D01*
X155405000Y-63670883D01*
X155405000Y-63329117D01*
X155338325Y-62993919D01*
X155207537Y-62678169D01*
X155017663Y-62394002D01*
X154775998Y-62152337D01*
X154491831Y-61962463D01*
X154176081Y-61831675D01*
X153840883Y-61765000D01*
X153499117Y-61765000D01*
X153163919Y-61831675D01*
X152848169Y-61962463D01*
X152564002Y-62152337D01*
X152322337Y-62394002D01*
X152132463Y-62678169D01*
X152001675Y-62993919D01*
X151935000Y-63329117D01*
X151935000Y-63670883D01*
X152001675Y-64006081D01*
X152132463Y-64321831D01*
X152322337Y-64605998D01*
X152564002Y-64847663D01*
X152848169Y-65037537D01*
X153163919Y-65168325D01*
X153499117Y-65235000D01*
X153840883Y-65235000D01*
X154176081Y-65168325D01*
X154237912Y-65142714D01*
X158204980Y-69109782D01*
X158204981Y-127812647D01*
X158201304Y-127849980D01*
X158215978Y-127998965D01*
X158259434Y-128142226D01*
X158330006Y-128274256D01*
X158384947Y-128341201D01*
X158424980Y-128389981D01*
X158453978Y-128413779D01*
X162822286Y-132782088D01*
X162796675Y-132843919D01*
X162730000Y-133179117D01*
X162730000Y-133520883D01*
X162796675Y-133856081D01*
X162927463Y-134171831D01*
X163083261Y-134405000D01*
X163048740Y-134405000D01*
X162761842Y-134462068D01*
X162491589Y-134574010D01*
X162248368Y-134736525D01*
X162041525Y-134943368D01*
X161879010Y-135186589D01*
X161767068Y-135456842D01*
X161710000Y-135743740D01*
X161710000Y-136036260D01*
X161767068Y-136323158D01*
X161879010Y-136593411D01*
X162041525Y-136836632D01*
X162248368Y-137043475D01*
X162491589Y-137205990D01*
X162761842Y-137317932D01*
X163048740Y-137375000D01*
X163341260Y-137375000D01*
X163628158Y-137317932D01*
X163898411Y-137205990D01*
X164141632Y-137043475D01*
X164348475Y-136836632D01*
X164510990Y-136593411D01*
X164622932Y-136323158D01*
X164680000Y-136036260D01*
X164680000Y-135743740D01*
X164657471Y-135630475D01*
X165640000Y-135630475D01*
X165640000Y-136149525D01*
X165741261Y-136658601D01*
X165939893Y-137138141D01*
X166228262Y-137569715D01*
X166595285Y-137936738D01*
X167026859Y-138225107D01*
X167506399Y-138423739D01*
X168015475Y-138525000D01*
X168534525Y-138525000D01*
X169043601Y-138423739D01*
X169523141Y-138225107D01*
X169954715Y-137936738D01*
X170321738Y-137569715D01*
X170610107Y-137138141D01*
X170808739Y-136658601D01*
X170910000Y-136149525D01*
X170910000Y-135743740D01*
X171870000Y-135743740D01*
X171870000Y-136036260D01*
X171927068Y-136323158D01*
X172039010Y-136593411D01*
X172201525Y-136836632D01*
X172408368Y-137043475D01*
X172651589Y-137205990D01*
X172921842Y-137317932D01*
X173208740Y-137375000D01*
X173501260Y-137375000D01*
X173788158Y-137317932D01*
X174058411Y-137205990D01*
X174301632Y-137043475D01*
X174508475Y-136836632D01*
X174670990Y-136593411D01*
X174782932Y-136323158D01*
X174840000Y-136036260D01*
X174840000Y-135743740D01*
X174782932Y-135456842D01*
X174670990Y-135186589D01*
X174508475Y-134943368D01*
X174301632Y-134736525D01*
X174058411Y-134574010D01*
X173788158Y-134462068D01*
X173501260Y-134405000D01*
X173208740Y-134405000D01*
X172921842Y-134462068D01*
X172651589Y-134574010D01*
X172408368Y-134736525D01*
X172201525Y-134943368D01*
X172039010Y-135186589D01*
X171927068Y-135456842D01*
X171870000Y-135743740D01*
X170910000Y-135743740D01*
X170910000Y-135630475D01*
X170808739Y-135121399D01*
X170610107Y-134641859D01*
X170321738Y-134210285D01*
X169954715Y-133843262D01*
X169523141Y-133554893D01*
X169043601Y-133356261D01*
X168534525Y-133255000D01*
X168015475Y-133255000D01*
X167506399Y-133356261D01*
X167026859Y-133554893D01*
X166595285Y-133843262D01*
X166228262Y-134210285D01*
X165939893Y-134641859D01*
X165741261Y-135121399D01*
X165640000Y-135630475D01*
X164657471Y-135630475D01*
X164622932Y-135456842D01*
X164510990Y-135186589D01*
X164443110Y-135085000D01*
X164635883Y-135085000D01*
X164971081Y-135018325D01*
X165286831Y-134887537D01*
X165570998Y-134697663D01*
X165812663Y-134455998D01*
X166002537Y-134171831D01*
X166133325Y-133856081D01*
X166200000Y-133520883D01*
X166200000Y-133179117D01*
X166133325Y-132843919D01*
X166002537Y-132528169D01*
X165812663Y-132244002D01*
X165570998Y-132002337D01*
X165286831Y-131812463D01*
X164971081Y-131681675D01*
X164635883Y-131615000D01*
X164294117Y-131615000D01*
X163958919Y-131681675D01*
X163897088Y-131707286D01*
X162828919Y-130639117D01*
X169080000Y-130639117D01*
X169080000Y-130980883D01*
X169146675Y-131316081D01*
X169277463Y-131631831D01*
X169467337Y-131915998D01*
X169709002Y-132157663D01*
X169993169Y-132347537D01*
X170308919Y-132478325D01*
X170644117Y-132545000D01*
X170985883Y-132545000D01*
X171321081Y-132478325D01*
X171636831Y-132347537D01*
X171920998Y-132157663D01*
X172162663Y-131915998D01*
X172352537Y-131631831D01*
X172483325Y-131316081D01*
X172550000Y-130980883D01*
X172550000Y-130639117D01*
X172483325Y-130303919D01*
X172352537Y-129988169D01*
X172162663Y-129704002D01*
X171920998Y-129462337D01*
X171636831Y-129272463D01*
X171321081Y-129141675D01*
X170985883Y-129075000D01*
X170644117Y-129075000D01*
X170308919Y-129141675D01*
X169993169Y-129272463D01*
X169709002Y-129462337D01*
X169467337Y-129704002D01*
X169277463Y-129988169D01*
X169146675Y-130303919D01*
X169080000Y-130639117D01*
X162828919Y-130639117D01*
X159724980Y-127535179D01*
X159724980Y-109999781D01*
X162822286Y-113097088D01*
X162796675Y-113158919D01*
X162730000Y-113494117D01*
X162730000Y-113835883D01*
X162796675Y-114171081D01*
X162927463Y-114486831D01*
X163083261Y-114720000D01*
X163048740Y-114720000D01*
X162761842Y-114777068D01*
X162491589Y-114889010D01*
X162248368Y-115051525D01*
X162041525Y-115258368D01*
X161879010Y-115501589D01*
X161767068Y-115771842D01*
X161710000Y-116058740D01*
X161710000Y-116351260D01*
X161767068Y-116638158D01*
X161879010Y-116908411D01*
X162041525Y-117151632D01*
X162248368Y-117358475D01*
X162491589Y-117520990D01*
X162761842Y-117632932D01*
X163048740Y-117690000D01*
X163341260Y-117690000D01*
X163628158Y-117632932D01*
X163898411Y-117520990D01*
X164141632Y-117358475D01*
X164348475Y-117151632D01*
X164510990Y-116908411D01*
X164622932Y-116638158D01*
X164680000Y-116351260D01*
X164680000Y-116058740D01*
X164657471Y-115945475D01*
X165640000Y-115945475D01*
X165640000Y-116464525D01*
X165741261Y-116973601D01*
X165939893Y-117453141D01*
X166228262Y-117884715D01*
X166595285Y-118251738D01*
X167026859Y-118540107D01*
X167506399Y-118738739D01*
X168015475Y-118840000D01*
X168534525Y-118840000D01*
X169043601Y-118738739D01*
X169523141Y-118540107D01*
X169954715Y-118251738D01*
X170321738Y-117884715D01*
X170610107Y-117453141D01*
X170808739Y-116973601D01*
X170910000Y-116464525D01*
X170910000Y-116058740D01*
X171870000Y-116058740D01*
X171870000Y-116351260D01*
X171927068Y-116638158D01*
X172039010Y-116908411D01*
X172201525Y-117151632D01*
X172408368Y-117358475D01*
X172651589Y-117520990D01*
X172921842Y-117632932D01*
X173208740Y-117690000D01*
X173501260Y-117690000D01*
X173788158Y-117632932D01*
X174058411Y-117520990D01*
X174301632Y-117358475D01*
X174508475Y-117151632D01*
X174670990Y-116908411D01*
X174782932Y-116638158D01*
X174840000Y-116351260D01*
X174840000Y-116058740D01*
X174782932Y-115771842D01*
X174670990Y-115501589D01*
X174508475Y-115258368D01*
X174301632Y-115051525D01*
X174058411Y-114889010D01*
X173788158Y-114777068D01*
X173501260Y-114720000D01*
X173208740Y-114720000D01*
X172921842Y-114777068D01*
X172651589Y-114889010D01*
X172408368Y-115051525D01*
X172201525Y-115258368D01*
X172039010Y-115501589D01*
X171927068Y-115771842D01*
X171870000Y-116058740D01*
X170910000Y-116058740D01*
X170910000Y-115945475D01*
X170808739Y-115436399D01*
X170610107Y-114956859D01*
X170321738Y-114525285D01*
X169954715Y-114158262D01*
X169523141Y-113869893D01*
X169043601Y-113671261D01*
X168534525Y-113570000D01*
X168015475Y-113570000D01*
X167506399Y-113671261D01*
X167026859Y-113869893D01*
X166595285Y-114158262D01*
X166228262Y-114525285D01*
X165939893Y-114956859D01*
X165741261Y-115436399D01*
X165640000Y-115945475D01*
X164657471Y-115945475D01*
X164622932Y-115771842D01*
X164510990Y-115501589D01*
X164443110Y-115400000D01*
X164635883Y-115400000D01*
X164971081Y-115333325D01*
X165286831Y-115202537D01*
X165570998Y-115012663D01*
X165812663Y-114770998D01*
X166002537Y-114486831D01*
X166133325Y-114171081D01*
X166200000Y-113835883D01*
X166200000Y-113494117D01*
X166133325Y-113158919D01*
X166002537Y-112843169D01*
X165812663Y-112559002D01*
X165570998Y-112317337D01*
X165286831Y-112127463D01*
X164971081Y-111996675D01*
X164635883Y-111930000D01*
X164294117Y-111930000D01*
X163958919Y-111996675D01*
X163897088Y-112022286D01*
X162828919Y-110954117D01*
X169080000Y-110954117D01*
X169080000Y-111295883D01*
X169146675Y-111631081D01*
X169277463Y-111946831D01*
X169467337Y-112230998D01*
X169709002Y-112472663D01*
X169993169Y-112662537D01*
X170308919Y-112793325D01*
X170644117Y-112860000D01*
X170985883Y-112860000D01*
X171321081Y-112793325D01*
X171636831Y-112662537D01*
X171920998Y-112472663D01*
X172162663Y-112230998D01*
X172352537Y-111946831D01*
X172483325Y-111631081D01*
X172550000Y-111295883D01*
X172550000Y-110954117D01*
X172483325Y-110618919D01*
X172352537Y-110303169D01*
X172162663Y-110019002D01*
X171920998Y-109777337D01*
X171636831Y-109587463D01*
X171321081Y-109456675D01*
X170985883Y-109390000D01*
X170644117Y-109390000D01*
X170308919Y-109456675D01*
X169993169Y-109587463D01*
X169709002Y-109777337D01*
X169467337Y-110019002D01*
X169277463Y-110303169D01*
X169146675Y-110618919D01*
X169080000Y-110954117D01*
X162828919Y-110954117D01*
X160174989Y-108300188D01*
X160174989Y-90839791D01*
X162822286Y-93487089D01*
X162796675Y-93548920D01*
X162730000Y-93884118D01*
X162730000Y-94225884D01*
X162796675Y-94561082D01*
X162927463Y-94876832D01*
X163083261Y-95110001D01*
X163048740Y-95110001D01*
X162761842Y-95167069D01*
X162491589Y-95279011D01*
X162248368Y-95441526D01*
X162041525Y-95648369D01*
X161879010Y-95891590D01*
X161767068Y-96161843D01*
X161710000Y-96448741D01*
X161710000Y-96741261D01*
X161767068Y-97028159D01*
X161879010Y-97298412D01*
X162041525Y-97541633D01*
X162248368Y-97748476D01*
X162491589Y-97910991D01*
X162761842Y-98022933D01*
X163048740Y-98080001D01*
X163341260Y-98080001D01*
X163628158Y-98022933D01*
X163898411Y-97910991D01*
X164141632Y-97748476D01*
X164348475Y-97541633D01*
X164510990Y-97298412D01*
X164622932Y-97028159D01*
X164680000Y-96741261D01*
X164680000Y-96448741D01*
X164657471Y-96335476D01*
X165640000Y-96335476D01*
X165640000Y-96854526D01*
X165741261Y-97363602D01*
X165939893Y-97843142D01*
X166228262Y-98274716D01*
X166595285Y-98641739D01*
X167026859Y-98930108D01*
X167506399Y-99128740D01*
X168015475Y-99230001D01*
X168534525Y-99230001D01*
X169043601Y-99128740D01*
X169523141Y-98930108D01*
X169954715Y-98641739D01*
X170321738Y-98274716D01*
X170610107Y-97843142D01*
X170808739Y-97363602D01*
X170910000Y-96854526D01*
X170910000Y-96335476D01*
X170808739Y-95826400D01*
X170610107Y-95346860D01*
X170321738Y-94915286D01*
X169954715Y-94548263D01*
X169523141Y-94259894D01*
X169043601Y-94061262D01*
X168534525Y-93960001D01*
X168015475Y-93960001D01*
X167506399Y-94061262D01*
X167026859Y-94259894D01*
X166595285Y-94548263D01*
X166228262Y-94915286D01*
X165939893Y-95346860D01*
X165741261Y-95826400D01*
X165640000Y-96335476D01*
X164657471Y-96335476D01*
X164622932Y-96161843D01*
X164510990Y-95891590D01*
X164443110Y-95790001D01*
X164635883Y-95790001D01*
X164971081Y-95723326D01*
X165286831Y-95592538D01*
X165570998Y-95402664D01*
X165812663Y-95160999D01*
X166002537Y-94876832D01*
X166133325Y-94561082D01*
X166200000Y-94225884D01*
X166200000Y-93884118D01*
X166133325Y-93548920D01*
X166002537Y-93233170D01*
X165812663Y-92949003D01*
X165570998Y-92707338D01*
X165286831Y-92517464D01*
X164971081Y-92386676D01*
X164635883Y-92320001D01*
X164294117Y-92320001D01*
X163958919Y-92386676D01*
X163897088Y-92412287D01*
X160624999Y-89140199D01*
X160624999Y-65238072D01*
X162390000Y-65238072D01*
X162514482Y-65225812D01*
X162634180Y-65189502D01*
X162744494Y-65130537D01*
X162841185Y-65051185D01*
X162920537Y-64954494D01*
X162979502Y-64844180D01*
X163015812Y-64724482D01*
X163028072Y-64600000D01*
X163028072Y-62400000D01*
X163015812Y-62275518D01*
X162979502Y-62155820D01*
X162920537Y-62045506D01*
X162841185Y-61948815D01*
X162744494Y-61869463D01*
X162634180Y-61810498D01*
X162514482Y-61774188D01*
X162390000Y-61761928D01*
X160624999Y-61761928D01*
X160624999Y-60158072D01*
X162390000Y-60158072D01*
X162514482Y-60145812D01*
X162634180Y-60109502D01*
X162744494Y-60050537D01*
X162841185Y-59971185D01*
X162920537Y-59874494D01*
X162979502Y-59764180D01*
X163015812Y-59644482D01*
X163028072Y-59520000D01*
X163028072Y-57320000D01*
X163015812Y-57195518D01*
X162979502Y-57075820D01*
X162920537Y-56965506D01*
X162841185Y-56868815D01*
X162744494Y-56789463D01*
X162634180Y-56730498D01*
X162514482Y-56694188D01*
X162390000Y-56681928D01*
X160190000Y-56681928D01*
X160065518Y-56694188D01*
X159945820Y-56730498D01*
X159835506Y-56789463D01*
X159738815Y-56868815D01*
X159659463Y-56965506D01*
X159600498Y-57075820D01*
X159564188Y-57195518D01*
X159551928Y-57320000D01*
X159551928Y-57512126D01*
X155312714Y-53272912D01*
X155338325Y-53211081D01*
X155405000Y-52875883D01*
X155405000Y-52534117D01*
X155338325Y-52198919D01*
X155207537Y-51883169D01*
X155017663Y-51599002D01*
X154775998Y-51357337D01*
X154491831Y-51167463D01*
X154176081Y-51036675D01*
X153840883Y-50970000D01*
X153499117Y-50970000D01*
X153163919Y-51036675D01*
X152848169Y-51167463D01*
X152564002Y-51357337D01*
X152322337Y-51599002D01*
X152132463Y-51883169D01*
X152001675Y-52198919D01*
X151935000Y-52534117D01*
X149693072Y-52534117D01*
X149693072Y-51605000D01*
X149680812Y-51480518D01*
X149644502Y-51360820D01*
X149585537Y-51250506D01*
X149506185Y-51153815D01*
X149409494Y-51074463D01*
X149299180Y-51015498D01*
X149179482Y-50979188D01*
X149055000Y-50966928D01*
X146855000Y-50966928D01*
X146730518Y-50979188D01*
X146610820Y-51015498D01*
X146500506Y-51074463D01*
X146403815Y-51153815D01*
X146324463Y-51250506D01*
X146265498Y-51360820D01*
X146229188Y-51480518D01*
X146216928Y-51605000D01*
X146216928Y-51797126D01*
X141977714Y-47557912D01*
X142003325Y-47496081D01*
X142070000Y-47160883D01*
X142070000Y-46819117D01*
X142003325Y-46483919D01*
X141872537Y-46168169D01*
X141686671Y-45890000D01*
X146216928Y-45890000D01*
X146216928Y-48090000D01*
X146229188Y-48214482D01*
X146265498Y-48334180D01*
X146324463Y-48444494D01*
X146403815Y-48541185D01*
X146500506Y-48620537D01*
X146610820Y-48679502D01*
X146730518Y-48715812D01*
X146855000Y-48728072D01*
X149055000Y-48728072D01*
X149179482Y-48715812D01*
X149299180Y-48679502D01*
X149409494Y-48620537D01*
X149506185Y-48541185D01*
X149585537Y-48444494D01*
X149644502Y-48334180D01*
X149680812Y-48214482D01*
X149693072Y-48090000D01*
X149693072Y-46819117D01*
X151935000Y-46819117D01*
X151935000Y-47160883D01*
X152001675Y-47496081D01*
X152132463Y-47811831D01*
X152322337Y-48095998D01*
X152564002Y-48337663D01*
X152848169Y-48527537D01*
X153163919Y-48658325D01*
X153499117Y-48725000D01*
X153840883Y-48725000D01*
X154176081Y-48658325D01*
X154491831Y-48527537D01*
X154775998Y-48337663D01*
X155017663Y-48095998D01*
X155207537Y-47811831D01*
X155233148Y-47750000D01*
X158045201Y-47750000D01*
X161262128Y-50966928D01*
X160190000Y-50966928D01*
X160065518Y-50979188D01*
X159945820Y-51015498D01*
X159835506Y-51074463D01*
X159738815Y-51153815D01*
X159659463Y-51250506D01*
X159600498Y-51360820D01*
X159564188Y-51480518D01*
X159551928Y-51605000D01*
X159551928Y-53805000D01*
X159564188Y-53929482D01*
X159600498Y-54049180D01*
X159659463Y-54159494D01*
X159738815Y-54256185D01*
X159835506Y-54335537D01*
X159945820Y-54394502D01*
X160065518Y-54430812D01*
X160190000Y-54443072D01*
X162390000Y-54443072D01*
X162514482Y-54430812D01*
X162634180Y-54394502D01*
X162744494Y-54335537D01*
X162841185Y-54256185D01*
X162920537Y-54159494D01*
X162979502Y-54049180D01*
X163015812Y-53929482D01*
X163028072Y-53805000D01*
X163028072Y-52732872D01*
X163705000Y-53409800D01*
X163705001Y-72731851D01*
X163643169Y-72757463D01*
X163359002Y-72947337D01*
X163117337Y-73189002D01*
X162927463Y-73473169D01*
X162796675Y-73788919D01*
X162730000Y-74124117D01*
X162730000Y-74465883D01*
X162796675Y-74801081D01*
X162927463Y-75116831D01*
X163083261Y-75350000D01*
X163048740Y-75350000D01*
X162761842Y-75407068D01*
X162491589Y-75519010D01*
X162248368Y-75681525D01*
X162041525Y-75888368D01*
X161879010Y-76131589D01*
X161767068Y-76401842D01*
X161710000Y-76688740D01*
X161710000Y-76981260D01*
X161767068Y-77268158D01*
X161879010Y-77538411D01*
X162041525Y-77781632D01*
X162248368Y-77988475D01*
X162491589Y-78150990D01*
X162761842Y-78262932D01*
X163048740Y-78320000D01*
X163341260Y-78320000D01*
X163628158Y-78262932D01*
X163898411Y-78150990D01*
X164141632Y-77988475D01*
X164348475Y-77781632D01*
X164510990Y-77538411D01*
X164622932Y-77268158D01*
X164680000Y-76981260D01*
X164680000Y-76688740D01*
X164622932Y-76401842D01*
X164510990Y-76131589D01*
X164443110Y-76030000D01*
X164635883Y-76030000D01*
X164971081Y-75963325D01*
X165286831Y-75832537D01*
X165570998Y-75642663D01*
X165812663Y-75400998D01*
X166002537Y-75116831D01*
X166133325Y-74801081D01*
X166200000Y-74465883D01*
X166200000Y-74124117D01*
X166133325Y-73788919D01*
X166002537Y-73473169D01*
X165812663Y-73189002D01*
X165570998Y-72947337D01*
X165286831Y-72757463D01*
X165225000Y-72731852D01*
X165225000Y-53132321D01*
X165228676Y-53094998D01*
X165225000Y-53057675D01*
X165225000Y-53057665D01*
X165214003Y-52946012D01*
X165170546Y-52802751D01*
X165148081Y-52760723D01*
X165099974Y-52670721D01*
X165028799Y-52583995D01*
X165005001Y-52554997D01*
X164976004Y-52531200D01*
X161172875Y-48728072D01*
X162390000Y-48728072D01*
X162514482Y-48715812D01*
X162634180Y-48679502D01*
X162744494Y-48620537D01*
X162841185Y-48541185D01*
X162920537Y-48444494D01*
X162979502Y-48334180D01*
X163015812Y-48214482D01*
X163028072Y-48090000D01*
X163028072Y-45890000D01*
X163015812Y-45765518D01*
X162979502Y-45645820D01*
X162920537Y-45535506D01*
X162841185Y-45438815D01*
X162744494Y-45359463D01*
X162634180Y-45300498D01*
X162514482Y-45264188D01*
X162390000Y-45251928D01*
X160190000Y-45251928D01*
X160065518Y-45264188D01*
X159945820Y-45300498D01*
X159835506Y-45359463D01*
X159738815Y-45438815D01*
X159659463Y-45535506D01*
X159600498Y-45645820D01*
X159564188Y-45765518D01*
X159551928Y-45890000D01*
X159551928Y-47107125D01*
X158923806Y-46479003D01*
X158900003Y-46449999D01*
X158784278Y-46355026D01*
X158652249Y-46284454D01*
X158508988Y-46240997D01*
X158397335Y-46230000D01*
X158397324Y-46230000D01*
X158360002Y-46226324D01*
X158322680Y-46230000D01*
X155233148Y-46230000D01*
X155207537Y-46168169D01*
X155017663Y-45884002D01*
X154775998Y-45642337D01*
X154491831Y-45452463D01*
X154176081Y-45321675D01*
X153840883Y-45255000D01*
X153499117Y-45255000D01*
X153163919Y-45321675D01*
X152848169Y-45452463D01*
X152564002Y-45642337D01*
X152322337Y-45884002D01*
X152132463Y-46168169D01*
X152001675Y-46483919D01*
X151935000Y-46819117D01*
X149693072Y-46819117D01*
X149693072Y-45890000D01*
X149680812Y-45765518D01*
X149644502Y-45645820D01*
X149585537Y-45535506D01*
X149506185Y-45438815D01*
X149409494Y-45359463D01*
X149299180Y-45300498D01*
X149179482Y-45264188D01*
X149055000Y-45251928D01*
X146855000Y-45251928D01*
X146730518Y-45264188D01*
X146610820Y-45300498D01*
X146500506Y-45359463D01*
X146403815Y-45438815D01*
X146324463Y-45535506D01*
X146265498Y-45645820D01*
X146229188Y-45765518D01*
X146216928Y-45890000D01*
X141686671Y-45890000D01*
X141682663Y-45884002D01*
X141440998Y-45642337D01*
X141156831Y-45452463D01*
X140841081Y-45321675D01*
X140505883Y-45255000D01*
X140164117Y-45255000D01*
X139828919Y-45321675D01*
X139513169Y-45452463D01*
X139229002Y-45642337D01*
X138987337Y-45884002D01*
X138797463Y-46168169D01*
X138666675Y-46483919D01*
X138600000Y-46819117D01*
X135847701Y-46819117D01*
X135760334Y-46731750D01*
X135304192Y-46426965D01*
X134797354Y-46217026D01*
X134259299Y-46110000D01*
X133710701Y-46110000D01*
X133172646Y-46217026D01*
X132665808Y-46426965D01*
X132209666Y-46731750D01*
X131821750Y-47119666D01*
X131516965Y-47575808D01*
X131307026Y-48082646D01*
X131200000Y-48620701D01*
X128930000Y-48620701D01*
X128930000Y-43205000D01*
X180950000Y-43205000D01*
X180950001Y-60740201D01*
G37*
%TD.AperFunction*%
D14*
X143111675Y-94561082D02*
X143242463Y-94876832D01*
X143398261Y-95110001D01*
X143363740Y-95110001D01*
X143094999Y-95163457D01*
X143094999Y-94477246D01*
X143111675Y-94561082D01*
%TA.AperFunction,NonConductor*%
D15*
G36*
X143111675Y-94561082D02*
G01*
X143242463Y-94876832D01*
X143398261Y-95110001D01*
X143363740Y-95110001D01*
X143094999Y-95163457D01*
X143094999Y-94477246D01*
X143111675Y-94561082D01*
G37*
%TD.AperFunction*%
D14*
X144020001Y-92491852D02*
X143958169Y-92517464D01*
X143674002Y-92707338D01*
X143432337Y-92949003D01*
X143242463Y-93233170D01*
X143111675Y-93548920D01*
X143094999Y-93632756D01*
X143094999Y-78266544D01*
X143363740Y-78320000D01*
X143656260Y-78320000D01*
X143943158Y-78262932D01*
X144020000Y-78231103D01*
X144020001Y-92491852D01*
%TA.AperFunction,NonConductor*%
D15*
G36*
X144020001Y-92491852D02*
G01*
X143958169Y-92517464D01*
X143674002Y-92707338D01*
X143432337Y-92949003D01*
X143242463Y-93233170D01*
X143111675Y-93548920D01*
X143094999Y-93632756D01*
X143094999Y-78266544D01*
X143363740Y-78320000D01*
X143656260Y-78320000D01*
X143943158Y-78262932D01*
X144020000Y-78231103D01*
X144020001Y-92491852D01*
G37*
%TD.AperFunction*%
D14*
X182481675Y-114171081D02*
X182612463Y-114486831D01*
X182768261Y-114720000D01*
X182733740Y-114720000D01*
X182464999Y-114773456D01*
X182464999Y-114087245D01*
X182481675Y-114171081D01*
%TA.AperFunction,NonConductor*%
D15*
G36*
X182481675Y-114171081D02*
G01*
X182612463Y-114486831D01*
X182768261Y-114720000D01*
X182733740Y-114720000D01*
X182464999Y-114773456D01*
X182464999Y-114087245D01*
X182481675Y-114171081D01*
G37*
%TD.AperFunction*%
D14*
X183390000Y-103055801D02*
X183390001Y-112101851D01*
X183328169Y-112127463D01*
X183044002Y-112317337D01*
X182802337Y-112559002D01*
X182612463Y-112843169D01*
X182481675Y-113158919D01*
X182464999Y-113242755D01*
X182464999Y-103243321D01*
X182468675Y-103205998D01*
X182464999Y-103168675D01*
X182464999Y-103168665D01*
X182454002Y-103057012D01*
X182410545Y-102913751D01*
X182339974Y-102781723D01*
X182339973Y-102781721D01*
X182268798Y-102694995D01*
X182245000Y-102665997D01*
X182216003Y-102642200D01*
X174482805Y-94909003D01*
X174459002Y-94879999D01*
X174343277Y-94785026D01*
X174211248Y-94714454D01*
X174067987Y-94670997D01*
X173956334Y-94660000D01*
X173956323Y-94660000D01*
X173919001Y-94656324D01*
X173881679Y-94660000D01*
X172925799Y-94660000D01*
X171411621Y-93145823D01*
X171636831Y-93052538D01*
X171920998Y-92862664D01*
X172162663Y-92620999D01*
X172352537Y-92336832D01*
X172445822Y-92111622D01*
X183390000Y-103055801D01*
%TA.AperFunction,NonConductor*%
D15*
G36*
X183390000Y-103055801D02*
G01*
X183390001Y-112101851D01*
X183328169Y-112127463D01*
X183044002Y-112317337D01*
X182802337Y-112559002D01*
X182612463Y-112843169D01*
X182481675Y-113158919D01*
X182464999Y-113242755D01*
X182464999Y-103243321D01*
X182468675Y-103205998D01*
X182464999Y-103168675D01*
X182464999Y-103168665D01*
X182454002Y-103057012D01*
X182410545Y-102913751D01*
X182339974Y-102781723D01*
X182339973Y-102781721D01*
X182268798Y-102694995D01*
X182245000Y-102665997D01*
X182216003Y-102642200D01*
X174482805Y-94909003D01*
X174459002Y-94879999D01*
X174343277Y-94785026D01*
X174211248Y-94714454D01*
X174067987Y-94670997D01*
X173956334Y-94660000D01*
X173956323Y-94660000D01*
X173919001Y-94656324D01*
X173881679Y-94660000D01*
X172925799Y-94660000D01*
X171411621Y-93145823D01*
X171636831Y-93052538D01*
X171920998Y-92862664D01*
X172162663Y-92620999D01*
X172352537Y-92336832D01*
X172445822Y-92111622D01*
X183390000Y-103055801D01*
G37*
%TD.AperFunction*%
D14*
X171420000Y-89887650D02*
X171321081Y-89846676D01*
X170985883Y-89780001D01*
X170644117Y-89780001D01*
X170308919Y-89846676D01*
X170149999Y-89912503D01*
X170149999Y-79503778D01*
X171419999Y-78233778D01*
X171420000Y-89887650D01*
%TA.AperFunction,NonConductor*%
D15*
G36*
X171420000Y-89887650D02*
G01*
X171321081Y-89846676D01*
X170985883Y-89780001D01*
X170644117Y-89780001D01*
X170308919Y-89846676D01*
X170149999Y-89912503D01*
X170149999Y-79503778D01*
X171419999Y-78233778D01*
X171420000Y-89887650D01*
G37*
%TD.AperFunction*%
M02*
