%TF.GenerationSoftware,KiCad,Pcbnew,(5.1.9-0-10_14)*%
%TF.CreationDate,2021-03-18T20:01:26-04:00*%
%TF.ProjectId,T9_Cad,54395f43-6164-42e6-9b69-6361645f7063,rev?*%
%TF.SameCoordinates,Original*%
%TF.FileFunction,Legend,Top*%
%TF.FilePolarity,Positive*%
%FSLAX46Y46*%
G04 Gerber Fmt 4.6, Leading zero omitted, Abs format (unit mm)*
G04 Created by KiCad (PCBNEW (5.1.9-0-10_14)) date 2021-03-18 20:01:26*
%MOMM*%
%LPD*%
G01*
G04 APERTURE LIST*
%ADD10C,0.150000*%
%ADD11C,0.127000*%
%ADD12C,0.100000*%
%ADD13C,0.120000*%
%ADD14C,0.101600*%
%ADD15C,0.076200*%
G04 APERTURE END LIST*
D10*
X135246857Y-54630857D02*
X135246857Y-56345142D01*
X132246857Y-55487999D02*
X135246857Y-55487999D01*
X132246857Y-57487999D02*
X132246857Y-58059428D01*
X132389714Y-58345142D01*
X132532571Y-58487999D01*
X132961142Y-58773714D01*
X133532571Y-58916571D01*
X134675428Y-58916571D01*
X134961142Y-58773714D01*
X135104000Y-58630857D01*
X135246857Y-58345142D01*
X135246857Y-57773714D01*
X135104000Y-57487999D01*
X134961142Y-57345142D01*
X134675428Y-57202285D01*
X133961142Y-57202285D01*
X133675428Y-57345142D01*
X133532571Y-57487999D01*
X133389714Y-57773714D01*
X133389714Y-58345142D01*
X133532571Y-58630857D01*
X133675428Y-58773714D01*
X133961142Y-58916571D01*
X132246857Y-62487999D02*
X135246857Y-62487999D01*
X133104000Y-63487999D01*
X135246857Y-64487999D01*
X132246857Y-64487999D01*
X132246857Y-67202285D02*
X133818285Y-67202285D01*
X134104000Y-67059428D01*
X134246857Y-66773714D01*
X134246857Y-66202285D01*
X134104000Y-65916571D01*
X132389714Y-67202285D02*
X132246857Y-66916571D01*
X132246857Y-66202285D01*
X132389714Y-65916571D01*
X132675428Y-65773714D01*
X132961142Y-65773714D01*
X133246857Y-65916571D01*
X133389714Y-66202285D01*
X133389714Y-66916571D01*
X133532571Y-67202285D01*
X132389714Y-69916571D02*
X132246857Y-69630857D01*
X132246857Y-69059428D01*
X132389714Y-68773714D01*
X132532571Y-68630857D01*
X132818285Y-68487999D01*
X133675428Y-68487999D01*
X133961142Y-68630857D01*
X134104000Y-68773714D01*
X134246857Y-69059428D01*
X134246857Y-69630857D01*
X134104000Y-69916571D01*
X132246857Y-71202285D02*
X134246857Y-71202285D01*
X133675428Y-71202285D02*
X133961142Y-71345142D01*
X134104000Y-71487999D01*
X134246857Y-71773714D01*
X134246857Y-72059428D01*
X132246857Y-73487999D02*
X132389714Y-73202285D01*
X132532571Y-73059428D01*
X132818285Y-72916571D01*
X133675428Y-72916571D01*
X133961142Y-73059428D01*
X134104000Y-73202285D01*
X134246857Y-73487999D01*
X134246857Y-73916571D01*
X134104000Y-74202285D01*
X133961142Y-74345142D01*
X133675428Y-74487999D01*
X132818285Y-74487999D01*
X132532571Y-74345142D01*
X132389714Y-74202285D01*
X132246857Y-73916571D01*
X132246857Y-73487999D01*
X134246857Y-75773714D02*
X131246857Y-75773714D01*
X134104000Y-75773714D02*
X134246857Y-76059428D01*
X134246857Y-76630857D01*
X134104000Y-76916571D01*
X133961142Y-77059428D01*
X133675428Y-77202285D01*
X132818285Y-77202285D01*
X132532571Y-77059428D01*
X132389714Y-76916571D01*
X132246857Y-76630857D01*
X132246857Y-76059428D01*
X132389714Y-75773714D01*
X132246857Y-79773714D02*
X133818285Y-79773714D01*
X134104000Y-79630857D01*
X134246857Y-79345142D01*
X134246857Y-78773714D01*
X134104000Y-78487999D01*
X132389714Y-79773714D02*
X132246857Y-79487999D01*
X132246857Y-78773714D01*
X132389714Y-78487999D01*
X132675428Y-78345142D01*
X132961142Y-78345142D01*
X133246857Y-78487999D01*
X133389714Y-78773714D01*
X133389714Y-79487999D01*
X133532571Y-79773714D01*
X132246857Y-82487999D02*
X135246857Y-82487999D01*
X132389714Y-82487999D02*
X132246857Y-82202285D01*
X132246857Y-81630857D01*
X132389714Y-81345142D01*
X132532571Y-81202285D01*
X132818285Y-81059428D01*
X133675428Y-81059428D01*
X133961142Y-81202285D01*
X134104000Y-81345142D01*
X134246857Y-81630857D01*
X134246857Y-82202285D01*
X134104000Y-82487999D01*
X132246857Y-86202285D02*
X134246857Y-86202285D01*
X133675428Y-86202285D02*
X133961142Y-86345142D01*
X134104000Y-86487999D01*
X134246857Y-86773714D01*
X134246857Y-87059428D01*
X132389714Y-89202285D02*
X132246857Y-88916571D01*
X132246857Y-88345142D01*
X132389714Y-88059428D01*
X132675428Y-87916571D01*
X133818285Y-87916571D01*
X134104000Y-88059428D01*
X134246857Y-88345142D01*
X134246857Y-88916571D01*
X134104000Y-89202285D01*
X133818285Y-89345142D01*
X133532571Y-89345142D01*
X133246857Y-87916571D01*
X134246857Y-90345142D02*
X132246857Y-91059428D01*
X134246857Y-91773714D01*
X135246857Y-93487999D02*
X135246857Y-93773714D01*
X135104000Y-94059428D01*
X134961142Y-94202285D01*
X134675428Y-94345142D01*
X134104000Y-94487999D01*
X133389714Y-94487999D01*
X132818285Y-94345142D01*
X132532571Y-94202285D01*
X132389714Y-94059428D01*
X132246857Y-93773714D01*
X132246857Y-93487999D01*
X132389714Y-93202285D01*
X132532571Y-93059428D01*
X132818285Y-92916571D01*
X133389714Y-92773714D01*
X134104000Y-92773714D01*
X134675428Y-92916571D01*
X134961142Y-93059428D01*
X135104000Y-93202285D01*
X135246857Y-93487999D01*
X132246857Y-97345142D02*
X132246857Y-95630857D01*
X132246857Y-96487999D02*
X135246857Y-96487999D01*
X134818285Y-96202285D01*
X134532571Y-95916571D01*
X134389714Y-95630857D01*
X135389714Y-103059428D02*
X131532571Y-100487999D01*
X135389714Y-106202285D02*
X131532571Y-103630857D01*
X135104000Y-111059428D02*
X135246857Y-110773714D01*
X135246857Y-110345142D01*
X135104000Y-109916571D01*
X134818285Y-109630857D01*
X134532571Y-109487999D01*
X133961142Y-109345142D01*
X133532571Y-109345142D01*
X132961142Y-109487999D01*
X132675428Y-109630857D01*
X132389714Y-109916571D01*
X132246857Y-110345142D01*
X132246857Y-110630857D01*
X132389714Y-111059428D01*
X132532571Y-111202285D01*
X133532571Y-111202285D01*
X133532571Y-110630857D01*
X134246857Y-113773714D02*
X132246857Y-113773714D01*
X134246857Y-112487999D02*
X132675428Y-112487999D01*
X132389714Y-112630857D01*
X132246857Y-112916571D01*
X132246857Y-113345142D01*
X132389714Y-113630857D01*
X132532571Y-113773714D01*
X134246857Y-114916571D02*
X132246857Y-115630857D01*
X134246857Y-116345142D02*
X132246857Y-115630857D01*
X131532571Y-115345142D01*
X131389714Y-115202285D01*
X131246857Y-114916571D01*
X132246857Y-119773714D02*
X135246857Y-119773714D01*
X135246857Y-120487999D01*
X135104000Y-120916571D01*
X134818285Y-121202285D01*
X134532571Y-121345142D01*
X133961142Y-121487999D01*
X133532571Y-121487999D01*
X132961142Y-121345142D01*
X132675428Y-121202285D01*
X132389714Y-120916571D01*
X132246857Y-120487999D01*
X132246857Y-119773714D01*
X134246857Y-124059428D02*
X132246857Y-124059428D01*
X134246857Y-122773714D02*
X132675428Y-122773714D01*
X132389714Y-122916571D01*
X132246857Y-123202285D01*
X132246857Y-123630857D01*
X132389714Y-123916571D01*
X132532571Y-124059428D01*
X134246857Y-125487999D02*
X131246857Y-125487999D01*
X134104000Y-125487999D02*
X134246857Y-125773714D01*
X134246857Y-126345142D01*
X134104000Y-126630857D01*
X133961142Y-126773714D01*
X133675428Y-126916571D01*
X132818285Y-126916571D01*
X132532571Y-126773714D01*
X132389714Y-126630857D01*
X132246857Y-126345142D01*
X132246857Y-125773714D01*
X132389714Y-125487999D01*
X132246857Y-128630857D02*
X132389714Y-128345142D01*
X132532571Y-128202285D01*
X132818285Y-128059428D01*
X133675428Y-128059428D01*
X133961142Y-128202285D01*
X134104000Y-128345142D01*
X134246857Y-128630857D01*
X134246857Y-129059428D01*
X134104000Y-129345142D01*
X133961142Y-129487999D01*
X133675428Y-129630857D01*
X132818285Y-129630857D01*
X132532571Y-129487999D01*
X132389714Y-129345142D01*
X132246857Y-129059428D01*
X132246857Y-128630857D01*
X134246857Y-130916571D02*
X132246857Y-130916571D01*
X133961142Y-130916571D02*
X134104000Y-131059428D01*
X134246857Y-131345142D01*
X134246857Y-131773714D01*
X134104000Y-132059428D01*
X133818285Y-132202285D01*
X132246857Y-132202285D01*
X134246857Y-133202285D02*
X134246857Y-134345142D01*
X135246857Y-133630857D02*
X132675428Y-133630857D01*
X132389714Y-133773714D01*
X132246857Y-134059428D01*
X132246857Y-134345142D01*
D11*
%TO.C,U1*%
X179070000Y-65405000D02*
X196867780Y-65405000D01*
X196867780Y-65405000D02*
X196867780Y-44406820D01*
X179070000Y-45077380D02*
X179070000Y-65405000D01*
D12*
X178435000Y-47244000D02*
G75*
G03*
X178435000Y-47244000I-254000J0D01*
G01*
D13*
%TO.C,D1*%
X146085000Y-48460000D02*
X146085000Y-45520000D01*
X145845000Y-48460000D02*
X145845000Y-45520000D01*
X145965000Y-48460000D02*
X145965000Y-45520000D01*
X141425000Y-45520000D02*
X141425000Y-45650000D01*
X146865000Y-45520000D02*
X141425000Y-45520000D01*
X146865000Y-45650000D02*
X146865000Y-45520000D01*
X141425000Y-48460000D02*
X141425000Y-48330000D01*
X146865000Y-48460000D02*
X141425000Y-48460000D01*
X146865000Y-48330000D02*
X146865000Y-48460000D01*
%TO.C,D2*%
X146865000Y-54045000D02*
X146865000Y-54175000D01*
X146865000Y-54175000D02*
X141425000Y-54175000D01*
X141425000Y-54175000D02*
X141425000Y-54045000D01*
X146865000Y-51365000D02*
X146865000Y-51235000D01*
X146865000Y-51235000D02*
X141425000Y-51235000D01*
X141425000Y-51235000D02*
X141425000Y-51365000D01*
X145965000Y-54175000D02*
X145965000Y-51235000D01*
X145845000Y-54175000D02*
X145845000Y-51235000D01*
X146085000Y-54175000D02*
X146085000Y-51235000D01*
%TO.C,D3*%
X146085000Y-59890000D02*
X146085000Y-56950000D01*
X145845000Y-59890000D02*
X145845000Y-56950000D01*
X145965000Y-59890000D02*
X145965000Y-56950000D01*
X141425000Y-56950000D02*
X141425000Y-57080000D01*
X146865000Y-56950000D02*
X141425000Y-56950000D01*
X146865000Y-57080000D02*
X146865000Y-56950000D01*
X141425000Y-59890000D02*
X141425000Y-59760000D01*
X146865000Y-59890000D02*
X141425000Y-59890000D01*
X146865000Y-59760000D02*
X146865000Y-59890000D01*
%TO.C,D4*%
X146865000Y-64840000D02*
X146865000Y-64970000D01*
X146865000Y-64970000D02*
X141425000Y-64970000D01*
X141425000Y-64970000D02*
X141425000Y-64840000D01*
X146865000Y-62160000D02*
X146865000Y-62030000D01*
X146865000Y-62030000D02*
X141425000Y-62030000D01*
X141425000Y-62030000D02*
X141425000Y-62160000D01*
X145965000Y-64970000D02*
X145965000Y-62030000D01*
X145845000Y-64970000D02*
X145845000Y-62030000D01*
X146085000Y-64970000D02*
X146085000Y-62030000D01*
%TO.C,D5*%
X160200000Y-48330000D02*
X160200000Y-48460000D01*
X160200000Y-48460000D02*
X154760000Y-48460000D01*
X154760000Y-48460000D02*
X154760000Y-48330000D01*
X160200000Y-45650000D02*
X160200000Y-45520000D01*
X160200000Y-45520000D02*
X154760000Y-45520000D01*
X154760000Y-45520000D02*
X154760000Y-45650000D01*
X159300000Y-48460000D02*
X159300000Y-45520000D01*
X159180000Y-48460000D02*
X159180000Y-45520000D01*
X159420000Y-48460000D02*
X159420000Y-45520000D01*
%TO.C,D6*%
X160200000Y-54045000D02*
X160200000Y-54175000D01*
X160200000Y-54175000D02*
X154760000Y-54175000D01*
X154760000Y-54175000D02*
X154760000Y-54045000D01*
X160200000Y-51365000D02*
X160200000Y-51235000D01*
X160200000Y-51235000D02*
X154760000Y-51235000D01*
X154760000Y-51235000D02*
X154760000Y-51365000D01*
X159300000Y-54175000D02*
X159300000Y-51235000D01*
X159180000Y-54175000D02*
X159180000Y-51235000D01*
X159420000Y-54175000D02*
X159420000Y-51235000D01*
%TO.C,D7*%
X160200000Y-59760000D02*
X160200000Y-59890000D01*
X160200000Y-59890000D02*
X154760000Y-59890000D01*
X154760000Y-59890000D02*
X154760000Y-59760000D01*
X160200000Y-57080000D02*
X160200000Y-56950000D01*
X160200000Y-56950000D02*
X154760000Y-56950000D01*
X154760000Y-56950000D02*
X154760000Y-57080000D01*
X159300000Y-59890000D02*
X159300000Y-56950000D01*
X159180000Y-59890000D02*
X159180000Y-56950000D01*
X159420000Y-59890000D02*
X159420000Y-56950000D01*
%TO.C,D8*%
X159420000Y-64970000D02*
X159420000Y-62030000D01*
X159180000Y-64970000D02*
X159180000Y-62030000D01*
X159300000Y-64970000D02*
X159300000Y-62030000D01*
X154760000Y-62030000D02*
X154760000Y-62160000D01*
X160200000Y-62030000D02*
X154760000Y-62030000D01*
X160200000Y-62160000D02*
X160200000Y-62030000D01*
X154760000Y-64970000D02*
X154760000Y-64840000D01*
X160200000Y-64970000D02*
X154760000Y-64970000D01*
X160200000Y-64840000D02*
X160200000Y-64970000D01*
%TO.C,D9*%
X172755000Y-48460000D02*
X172755000Y-45520000D01*
X172515000Y-48460000D02*
X172515000Y-45520000D01*
X172635000Y-48460000D02*
X172635000Y-45520000D01*
X168095000Y-45520000D02*
X168095000Y-45650000D01*
X173535000Y-45520000D02*
X168095000Y-45520000D01*
X173535000Y-45650000D02*
X173535000Y-45520000D01*
X168095000Y-48460000D02*
X168095000Y-48330000D01*
X173535000Y-48460000D02*
X168095000Y-48460000D01*
X173535000Y-48330000D02*
X173535000Y-48460000D01*
%TO.C,D10*%
X173535000Y-54045000D02*
X173535000Y-54175000D01*
X173535000Y-54175000D02*
X168095000Y-54175000D01*
X168095000Y-54175000D02*
X168095000Y-54045000D01*
X173535000Y-51365000D02*
X173535000Y-51235000D01*
X173535000Y-51235000D02*
X168095000Y-51235000D01*
X168095000Y-51235000D02*
X168095000Y-51365000D01*
X172635000Y-54175000D02*
X172635000Y-51235000D01*
X172515000Y-54175000D02*
X172515000Y-51235000D01*
X172755000Y-54175000D02*
X172755000Y-51235000D01*
%TO.C,D11*%
X172755000Y-59890000D02*
X172755000Y-56950000D01*
X172515000Y-59890000D02*
X172515000Y-56950000D01*
X172635000Y-59890000D02*
X172635000Y-56950000D01*
X168095000Y-56950000D02*
X168095000Y-57080000D01*
X173535000Y-56950000D02*
X168095000Y-56950000D01*
X173535000Y-57080000D02*
X173535000Y-56950000D01*
X168095000Y-59890000D02*
X168095000Y-59760000D01*
X173535000Y-59890000D02*
X168095000Y-59890000D01*
X173535000Y-59760000D02*
X173535000Y-59890000D01*
%TO.C,D12*%
X173535000Y-64840000D02*
X173535000Y-64970000D01*
X173535000Y-64970000D02*
X168095000Y-64970000D01*
X168095000Y-64970000D02*
X168095000Y-64840000D01*
X173535000Y-62160000D02*
X173535000Y-62030000D01*
X173535000Y-62030000D02*
X168095000Y-62030000D01*
X168095000Y-62030000D02*
X168095000Y-62160000D01*
X172635000Y-64970000D02*
X172635000Y-62030000D01*
X172515000Y-64970000D02*
X172515000Y-62030000D01*
X172755000Y-64970000D02*
X172755000Y-62030000D01*
%TO.C,SW1*%
X141605000Y-83820000D02*
X141605000Y-69850000D01*
X155575000Y-83820000D02*
X141605000Y-83820000D01*
X155575000Y-69850000D02*
X155575000Y-83820000D01*
X141605000Y-69850000D02*
X155575000Y-69850000D01*
%TO.C,SW2*%
X141605000Y-89610001D02*
X155575000Y-89610001D01*
X155575000Y-89610001D02*
X155575000Y-103580001D01*
X155575000Y-103580001D02*
X141605000Y-103580001D01*
X141605000Y-103580001D02*
X141605000Y-89610001D01*
%TO.C,SW3*%
X141605000Y-123190000D02*
X141605000Y-109220000D01*
X155575000Y-123190000D02*
X141605000Y-123190000D01*
X155575000Y-109220000D02*
X155575000Y-123190000D01*
X141605000Y-109220000D02*
X155575000Y-109220000D01*
%TO.C,SW4*%
X141605000Y-128905000D02*
X155575000Y-128905000D01*
X155575000Y-128905000D02*
X155575000Y-142875000D01*
X155575000Y-142875000D02*
X141605000Y-142875000D01*
X141605000Y-142875000D02*
X141605000Y-128905000D01*
%TO.C,SW5*%
X161290000Y-69850000D02*
X175260000Y-69850000D01*
X175260000Y-69850000D02*
X175260000Y-83820000D01*
X175260000Y-83820000D02*
X161290000Y-83820000D01*
X161290000Y-83820000D02*
X161290000Y-69850000D01*
%TO.C,SW6*%
X161290000Y-103580001D02*
X161290000Y-89610001D01*
X175260000Y-103580001D02*
X161290000Y-103580001D01*
X175260000Y-89610001D02*
X175260000Y-103580001D01*
X161290000Y-89610001D02*
X175260000Y-89610001D01*
%TO.C,SW7*%
X161290000Y-109220000D02*
X175260000Y-109220000D01*
X175260000Y-109220000D02*
X175260000Y-123190000D01*
X175260000Y-123190000D02*
X161290000Y-123190000D01*
X161290000Y-123190000D02*
X161290000Y-109220000D01*
%TO.C,SW8*%
X161290000Y-142875000D02*
X161290000Y-128905000D01*
X175260000Y-142875000D02*
X161290000Y-142875000D01*
X175260000Y-128905000D02*
X175260000Y-142875000D01*
X161290000Y-128905000D02*
X175260000Y-128905000D01*
%TO.C,SW9*%
X180975000Y-83820000D02*
X180975000Y-69850000D01*
X194945000Y-83820000D02*
X180975000Y-83820000D01*
X194945000Y-69850000D02*
X194945000Y-83820000D01*
X180975000Y-69850000D02*
X194945000Y-69850000D01*
%TO.C,SW10*%
X180975000Y-89610001D02*
X194945000Y-89610001D01*
X194945000Y-89610001D02*
X194945000Y-103580001D01*
X194945000Y-103580001D02*
X180975000Y-103580001D01*
X180975000Y-103580001D02*
X180975000Y-89610001D01*
%TO.C,SW11*%
X180975000Y-123190000D02*
X180975000Y-109220000D01*
X194945000Y-123190000D02*
X180975000Y-123190000D01*
X194945000Y-109220000D02*
X194945000Y-123190000D01*
X180975000Y-109220000D02*
X194945000Y-109220000D01*
%TO.C,SW12*%
X180975000Y-128905000D02*
X194945000Y-128905000D01*
X194945000Y-128905000D02*
X194945000Y-142875000D01*
X194945000Y-142875000D02*
X180975000Y-142875000D01*
X180975000Y-142875000D02*
X180975000Y-128905000D01*
%TO.C,U1*%
D14*
X187727166Y-66188166D02*
X187727166Y-66907833D01*
X187769500Y-66992500D01*
X187811833Y-67034833D01*
X187896500Y-67077166D01*
X188065833Y-67077166D01*
X188150500Y-67034833D01*
X188192833Y-66992500D01*
X188235166Y-66907833D01*
X188235166Y-66188166D01*
X189124166Y-67077166D02*
X188616166Y-67077166D01*
X188870166Y-67077166D02*
X188870166Y-66188166D01*
X188785500Y-66315166D01*
X188700833Y-66399833D01*
X188616166Y-66442166D01*
D15*
X184737828Y-68191742D02*
X184824914Y-68220771D01*
X184970057Y-68220771D01*
X185028114Y-68191742D01*
X185057142Y-68162714D01*
X185086171Y-68104657D01*
X185086171Y-68046600D01*
X185057142Y-67988542D01*
X185028114Y-67959514D01*
X184970057Y-67930485D01*
X184853942Y-67901457D01*
X184795885Y-67872428D01*
X184766857Y-67843400D01*
X184737828Y-67785342D01*
X184737828Y-67727285D01*
X184766857Y-67669228D01*
X184795885Y-67640200D01*
X184853942Y-67611171D01*
X184999085Y-67611171D01*
X185086171Y-67640200D01*
X185579657Y-68191742D02*
X185521600Y-68220771D01*
X185405485Y-68220771D01*
X185347428Y-68191742D01*
X185318400Y-68133685D01*
X185318400Y-67901457D01*
X185347428Y-67843400D01*
X185405485Y-67814371D01*
X185521600Y-67814371D01*
X185579657Y-67843400D01*
X185608685Y-67901457D01*
X185608685Y-67959514D01*
X185318400Y-68017571D01*
X186102171Y-68191742D02*
X186044114Y-68220771D01*
X185928000Y-68220771D01*
X185869942Y-68191742D01*
X185840914Y-68133685D01*
X185840914Y-67901457D01*
X185869942Y-67843400D01*
X185928000Y-67814371D01*
X186044114Y-67814371D01*
X186102171Y-67843400D01*
X186131200Y-67901457D01*
X186131200Y-67959514D01*
X185840914Y-68017571D01*
X186624685Y-68191742D02*
X186566628Y-68220771D01*
X186450514Y-68220771D01*
X186392457Y-68191742D01*
X186363428Y-68133685D01*
X186363428Y-67901457D01*
X186392457Y-67843400D01*
X186450514Y-67814371D01*
X186566628Y-67814371D01*
X186624685Y-67843400D01*
X186653714Y-67901457D01*
X186653714Y-67959514D01*
X186363428Y-68017571D01*
X187176228Y-68220771D02*
X187176228Y-67611171D01*
X187176228Y-68191742D02*
X187118171Y-68220771D01*
X187002057Y-68220771D01*
X186944000Y-68191742D01*
X186914971Y-68162714D01*
X186885942Y-68104657D01*
X186885942Y-67930485D01*
X186914971Y-67872428D01*
X186944000Y-67843400D01*
X187002057Y-67814371D01*
X187118171Y-67814371D01*
X187176228Y-67843400D01*
X187727771Y-67814371D02*
X187727771Y-68220771D01*
X187466514Y-67814371D02*
X187466514Y-68133685D01*
X187495542Y-68191742D01*
X187553600Y-68220771D01*
X187640685Y-68220771D01*
X187698742Y-68191742D01*
X187727771Y-68162714D01*
X188018057Y-68220771D02*
X188018057Y-67814371D01*
X188018057Y-67611171D02*
X187989028Y-67640200D01*
X188018057Y-67669228D01*
X188047085Y-67640200D01*
X188018057Y-67611171D01*
X188018057Y-67669228D01*
X188308342Y-67814371D02*
X188308342Y-68220771D01*
X188308342Y-67872428D02*
X188337371Y-67843400D01*
X188395428Y-67814371D01*
X188482514Y-67814371D01*
X188540571Y-67843400D01*
X188569600Y-67901457D01*
X188569600Y-68220771D01*
X188946971Y-68220771D02*
X188888914Y-68191742D01*
X188859885Y-68162714D01*
X188830857Y-68104657D01*
X188830857Y-67930485D01*
X188859885Y-67872428D01*
X188888914Y-67843400D01*
X188946971Y-67814371D01*
X189034057Y-67814371D01*
X189092114Y-67843400D01*
X189121142Y-67872428D01*
X189150171Y-67930485D01*
X189150171Y-68104657D01*
X189121142Y-68162714D01*
X189092114Y-68191742D01*
X189034057Y-68220771D01*
X188946971Y-68220771D01*
X189353371Y-67611171D02*
X189759771Y-68220771D01*
X189759771Y-67611171D02*
X189353371Y-68220771D01*
X189992000Y-68220771D02*
X189992000Y-67611171D01*
X190253257Y-68046600D02*
X190543542Y-68046600D01*
X190195200Y-68220771D02*
X190398400Y-67611171D01*
X190601600Y-68220771D01*
X190920914Y-67611171D02*
X191037028Y-67611171D01*
X191095085Y-67640200D01*
X191153142Y-67698257D01*
X191182171Y-67814371D01*
X191182171Y-68017571D01*
X191153142Y-68133685D01*
X191095085Y-68191742D01*
X191037028Y-68220771D01*
X190920914Y-68220771D01*
X190862857Y-68191742D01*
X190804800Y-68133685D01*
X190775771Y-68017571D01*
X190775771Y-67814371D01*
X190804800Y-67698257D01*
X190862857Y-67640200D01*
X190920914Y-67611171D01*
%TO.C,D1*%
D10*
X143406904Y-49912380D02*
X143406904Y-48912380D01*
X143645000Y-48912380D01*
X143787857Y-48960000D01*
X143883095Y-49055238D01*
X143930714Y-49150476D01*
X143978333Y-49340952D01*
X143978333Y-49483809D01*
X143930714Y-49674285D01*
X143883095Y-49769523D01*
X143787857Y-49864761D01*
X143645000Y-49912380D01*
X143406904Y-49912380D01*
X144930714Y-49912380D02*
X144359285Y-49912380D01*
X144645000Y-49912380D02*
X144645000Y-48912380D01*
X144549761Y-49055238D01*
X144454523Y-49150476D01*
X144359285Y-49198095D01*
X147693095Y-49542380D02*
X147693095Y-48542380D01*
X148264523Y-49542380D02*
X147835952Y-48970952D01*
X148264523Y-48542380D02*
X147693095Y-49113809D01*
%TO.C,D2*%
X143406904Y-55627380D02*
X143406904Y-54627380D01*
X143645000Y-54627380D01*
X143787857Y-54675000D01*
X143883095Y-54770238D01*
X143930714Y-54865476D01*
X143978333Y-55055952D01*
X143978333Y-55198809D01*
X143930714Y-55389285D01*
X143883095Y-55484523D01*
X143787857Y-55579761D01*
X143645000Y-55627380D01*
X143406904Y-55627380D01*
X144359285Y-54722619D02*
X144406904Y-54675000D01*
X144502142Y-54627380D01*
X144740238Y-54627380D01*
X144835476Y-54675000D01*
X144883095Y-54722619D01*
X144930714Y-54817857D01*
X144930714Y-54913095D01*
X144883095Y-55055952D01*
X144311666Y-55627380D01*
X144930714Y-55627380D01*
X147693095Y-55257380D02*
X147693095Y-54257380D01*
X148264523Y-55257380D02*
X147835952Y-54685952D01*
X148264523Y-54257380D02*
X147693095Y-54828809D01*
%TO.C,D3*%
X143406904Y-61342380D02*
X143406904Y-60342380D01*
X143645000Y-60342380D01*
X143787857Y-60390000D01*
X143883095Y-60485238D01*
X143930714Y-60580476D01*
X143978333Y-60770952D01*
X143978333Y-60913809D01*
X143930714Y-61104285D01*
X143883095Y-61199523D01*
X143787857Y-61294761D01*
X143645000Y-61342380D01*
X143406904Y-61342380D01*
X144311666Y-60342380D02*
X144930714Y-60342380D01*
X144597380Y-60723333D01*
X144740238Y-60723333D01*
X144835476Y-60770952D01*
X144883095Y-60818571D01*
X144930714Y-60913809D01*
X144930714Y-61151904D01*
X144883095Y-61247142D01*
X144835476Y-61294761D01*
X144740238Y-61342380D01*
X144454523Y-61342380D01*
X144359285Y-61294761D01*
X144311666Y-61247142D01*
X147693095Y-60972380D02*
X147693095Y-59972380D01*
X148264523Y-60972380D02*
X147835952Y-60400952D01*
X148264523Y-59972380D02*
X147693095Y-60543809D01*
%TO.C,D4*%
X143406904Y-66422380D02*
X143406904Y-65422380D01*
X143645000Y-65422380D01*
X143787857Y-65470000D01*
X143883095Y-65565238D01*
X143930714Y-65660476D01*
X143978333Y-65850952D01*
X143978333Y-65993809D01*
X143930714Y-66184285D01*
X143883095Y-66279523D01*
X143787857Y-66374761D01*
X143645000Y-66422380D01*
X143406904Y-66422380D01*
X144835476Y-65755714D02*
X144835476Y-66422380D01*
X144597380Y-65374761D02*
X144359285Y-66089047D01*
X144978333Y-66089047D01*
X147693095Y-66052380D02*
X147693095Y-65052380D01*
X148264523Y-66052380D02*
X147835952Y-65480952D01*
X148264523Y-65052380D02*
X147693095Y-65623809D01*
%TO.C,D5*%
X156741904Y-49912380D02*
X156741904Y-48912380D01*
X156980000Y-48912380D01*
X157122857Y-48960000D01*
X157218095Y-49055238D01*
X157265714Y-49150476D01*
X157313333Y-49340952D01*
X157313333Y-49483809D01*
X157265714Y-49674285D01*
X157218095Y-49769523D01*
X157122857Y-49864761D01*
X156980000Y-49912380D01*
X156741904Y-49912380D01*
X158218095Y-48912380D02*
X157741904Y-48912380D01*
X157694285Y-49388571D01*
X157741904Y-49340952D01*
X157837142Y-49293333D01*
X158075238Y-49293333D01*
X158170476Y-49340952D01*
X158218095Y-49388571D01*
X158265714Y-49483809D01*
X158265714Y-49721904D01*
X158218095Y-49817142D01*
X158170476Y-49864761D01*
X158075238Y-49912380D01*
X157837142Y-49912380D01*
X157741904Y-49864761D01*
X157694285Y-49817142D01*
X161028095Y-49542380D02*
X161028095Y-48542380D01*
X161599523Y-49542380D02*
X161170952Y-48970952D01*
X161599523Y-48542380D02*
X161028095Y-49113809D01*
%TO.C,D6*%
X156741904Y-55627380D02*
X156741904Y-54627380D01*
X156980000Y-54627380D01*
X157122857Y-54675000D01*
X157218095Y-54770238D01*
X157265714Y-54865476D01*
X157313333Y-55055952D01*
X157313333Y-55198809D01*
X157265714Y-55389285D01*
X157218095Y-55484523D01*
X157122857Y-55579761D01*
X156980000Y-55627380D01*
X156741904Y-55627380D01*
X158170476Y-54627380D02*
X157980000Y-54627380D01*
X157884761Y-54675000D01*
X157837142Y-54722619D01*
X157741904Y-54865476D01*
X157694285Y-55055952D01*
X157694285Y-55436904D01*
X157741904Y-55532142D01*
X157789523Y-55579761D01*
X157884761Y-55627380D01*
X158075238Y-55627380D01*
X158170476Y-55579761D01*
X158218095Y-55532142D01*
X158265714Y-55436904D01*
X158265714Y-55198809D01*
X158218095Y-55103571D01*
X158170476Y-55055952D01*
X158075238Y-55008333D01*
X157884761Y-55008333D01*
X157789523Y-55055952D01*
X157741904Y-55103571D01*
X157694285Y-55198809D01*
X161028095Y-55257380D02*
X161028095Y-54257380D01*
X161599523Y-55257380D02*
X161170952Y-54685952D01*
X161599523Y-54257380D02*
X161028095Y-54828809D01*
%TO.C,D7*%
X156741904Y-61342380D02*
X156741904Y-60342380D01*
X156980000Y-60342380D01*
X157122857Y-60390000D01*
X157218095Y-60485238D01*
X157265714Y-60580476D01*
X157313333Y-60770952D01*
X157313333Y-60913809D01*
X157265714Y-61104285D01*
X157218095Y-61199523D01*
X157122857Y-61294761D01*
X156980000Y-61342380D01*
X156741904Y-61342380D01*
X157646666Y-60342380D02*
X158313333Y-60342380D01*
X157884761Y-61342380D01*
X161028095Y-60972380D02*
X161028095Y-59972380D01*
X161599523Y-60972380D02*
X161170952Y-60400952D01*
X161599523Y-59972380D02*
X161028095Y-60543809D01*
%TO.C,D8*%
X156741904Y-66422380D02*
X156741904Y-65422380D01*
X156980000Y-65422380D01*
X157122857Y-65470000D01*
X157218095Y-65565238D01*
X157265714Y-65660476D01*
X157313333Y-65850952D01*
X157313333Y-65993809D01*
X157265714Y-66184285D01*
X157218095Y-66279523D01*
X157122857Y-66374761D01*
X156980000Y-66422380D01*
X156741904Y-66422380D01*
X157884761Y-65850952D02*
X157789523Y-65803333D01*
X157741904Y-65755714D01*
X157694285Y-65660476D01*
X157694285Y-65612857D01*
X157741904Y-65517619D01*
X157789523Y-65470000D01*
X157884761Y-65422380D01*
X158075238Y-65422380D01*
X158170476Y-65470000D01*
X158218095Y-65517619D01*
X158265714Y-65612857D01*
X158265714Y-65660476D01*
X158218095Y-65755714D01*
X158170476Y-65803333D01*
X158075238Y-65850952D01*
X157884761Y-65850952D01*
X157789523Y-65898571D01*
X157741904Y-65946190D01*
X157694285Y-66041428D01*
X157694285Y-66231904D01*
X157741904Y-66327142D01*
X157789523Y-66374761D01*
X157884761Y-66422380D01*
X158075238Y-66422380D01*
X158170476Y-66374761D01*
X158218095Y-66327142D01*
X158265714Y-66231904D01*
X158265714Y-66041428D01*
X158218095Y-65946190D01*
X158170476Y-65898571D01*
X158075238Y-65850952D01*
X161028095Y-66052380D02*
X161028095Y-65052380D01*
X161599523Y-66052380D02*
X161170952Y-65480952D01*
X161599523Y-65052380D02*
X161028095Y-65623809D01*
%TO.C,D9*%
X170076904Y-49912380D02*
X170076904Y-48912380D01*
X170315000Y-48912380D01*
X170457857Y-48960000D01*
X170553095Y-49055238D01*
X170600714Y-49150476D01*
X170648333Y-49340952D01*
X170648333Y-49483809D01*
X170600714Y-49674285D01*
X170553095Y-49769523D01*
X170457857Y-49864761D01*
X170315000Y-49912380D01*
X170076904Y-49912380D01*
X171124523Y-49912380D02*
X171315000Y-49912380D01*
X171410238Y-49864761D01*
X171457857Y-49817142D01*
X171553095Y-49674285D01*
X171600714Y-49483809D01*
X171600714Y-49102857D01*
X171553095Y-49007619D01*
X171505476Y-48960000D01*
X171410238Y-48912380D01*
X171219761Y-48912380D01*
X171124523Y-48960000D01*
X171076904Y-49007619D01*
X171029285Y-49102857D01*
X171029285Y-49340952D01*
X171076904Y-49436190D01*
X171124523Y-49483809D01*
X171219761Y-49531428D01*
X171410238Y-49531428D01*
X171505476Y-49483809D01*
X171553095Y-49436190D01*
X171600714Y-49340952D01*
X174363095Y-49542380D02*
X174363095Y-48542380D01*
X174934523Y-49542380D02*
X174505952Y-48970952D01*
X174934523Y-48542380D02*
X174363095Y-49113809D01*
%TO.C,D10*%
X169600714Y-55627380D02*
X169600714Y-54627380D01*
X169838809Y-54627380D01*
X169981666Y-54675000D01*
X170076904Y-54770238D01*
X170124523Y-54865476D01*
X170172142Y-55055952D01*
X170172142Y-55198809D01*
X170124523Y-55389285D01*
X170076904Y-55484523D01*
X169981666Y-55579761D01*
X169838809Y-55627380D01*
X169600714Y-55627380D01*
X171124523Y-55627380D02*
X170553095Y-55627380D01*
X170838809Y-55627380D02*
X170838809Y-54627380D01*
X170743571Y-54770238D01*
X170648333Y-54865476D01*
X170553095Y-54913095D01*
X171743571Y-54627380D02*
X171838809Y-54627380D01*
X171934047Y-54675000D01*
X171981666Y-54722619D01*
X172029285Y-54817857D01*
X172076904Y-55008333D01*
X172076904Y-55246428D01*
X172029285Y-55436904D01*
X171981666Y-55532142D01*
X171934047Y-55579761D01*
X171838809Y-55627380D01*
X171743571Y-55627380D01*
X171648333Y-55579761D01*
X171600714Y-55532142D01*
X171553095Y-55436904D01*
X171505476Y-55246428D01*
X171505476Y-55008333D01*
X171553095Y-54817857D01*
X171600714Y-54722619D01*
X171648333Y-54675000D01*
X171743571Y-54627380D01*
X174363095Y-55257380D02*
X174363095Y-54257380D01*
X174934523Y-55257380D02*
X174505952Y-54685952D01*
X174934523Y-54257380D02*
X174363095Y-54828809D01*
%TO.C,D11*%
X169600714Y-61342380D02*
X169600714Y-60342380D01*
X169838809Y-60342380D01*
X169981666Y-60390000D01*
X170076904Y-60485238D01*
X170124523Y-60580476D01*
X170172142Y-60770952D01*
X170172142Y-60913809D01*
X170124523Y-61104285D01*
X170076904Y-61199523D01*
X169981666Y-61294761D01*
X169838809Y-61342380D01*
X169600714Y-61342380D01*
X171124523Y-61342380D02*
X170553095Y-61342380D01*
X170838809Y-61342380D02*
X170838809Y-60342380D01*
X170743571Y-60485238D01*
X170648333Y-60580476D01*
X170553095Y-60628095D01*
X172076904Y-61342380D02*
X171505476Y-61342380D01*
X171791190Y-61342380D02*
X171791190Y-60342380D01*
X171695952Y-60485238D01*
X171600714Y-60580476D01*
X171505476Y-60628095D01*
X174363095Y-60972380D02*
X174363095Y-59972380D01*
X174934523Y-60972380D02*
X174505952Y-60400952D01*
X174934523Y-59972380D02*
X174363095Y-60543809D01*
%TO.C,D12*%
X169600714Y-66422380D02*
X169600714Y-65422380D01*
X169838809Y-65422380D01*
X169981666Y-65470000D01*
X170076904Y-65565238D01*
X170124523Y-65660476D01*
X170172142Y-65850952D01*
X170172142Y-65993809D01*
X170124523Y-66184285D01*
X170076904Y-66279523D01*
X169981666Y-66374761D01*
X169838809Y-66422380D01*
X169600714Y-66422380D01*
X171124523Y-66422380D02*
X170553095Y-66422380D01*
X170838809Y-66422380D02*
X170838809Y-65422380D01*
X170743571Y-65565238D01*
X170648333Y-65660476D01*
X170553095Y-65708095D01*
X171505476Y-65517619D02*
X171553095Y-65470000D01*
X171648333Y-65422380D01*
X171886428Y-65422380D01*
X171981666Y-65470000D01*
X172029285Y-65517619D01*
X172076904Y-65612857D01*
X172076904Y-65708095D01*
X172029285Y-65850952D01*
X171457857Y-66422380D01*
X172076904Y-66422380D01*
X174363095Y-66052380D02*
X174363095Y-65052380D01*
X174934523Y-66052380D02*
X174505952Y-65480952D01*
X174934523Y-65052380D02*
X174363095Y-65623809D01*
%TO.C,SW1*%
X147256666Y-69365761D02*
X147399523Y-69413380D01*
X147637619Y-69413380D01*
X147732857Y-69365761D01*
X147780476Y-69318142D01*
X147828095Y-69222904D01*
X147828095Y-69127666D01*
X147780476Y-69032428D01*
X147732857Y-68984809D01*
X147637619Y-68937190D01*
X147447142Y-68889571D01*
X147351904Y-68841952D01*
X147304285Y-68794333D01*
X147256666Y-68699095D01*
X147256666Y-68603857D01*
X147304285Y-68508619D01*
X147351904Y-68461000D01*
X147447142Y-68413380D01*
X147685238Y-68413380D01*
X147828095Y-68461000D01*
X148161428Y-68413380D02*
X148399523Y-69413380D01*
X148590000Y-68699095D01*
X148780476Y-69413380D01*
X149018571Y-68413380D01*
X149923333Y-69413380D02*
X149351904Y-69413380D01*
X149637619Y-69413380D02*
X149637619Y-68413380D01*
X149542380Y-68556238D01*
X149447142Y-68651476D01*
X149351904Y-68699095D01*
%TO.C,SW2*%
X147256666Y-89125762D02*
X147399523Y-89173381D01*
X147637619Y-89173381D01*
X147732857Y-89125762D01*
X147780476Y-89078143D01*
X147828095Y-88982905D01*
X147828095Y-88887667D01*
X147780476Y-88792429D01*
X147732857Y-88744810D01*
X147637619Y-88697191D01*
X147447142Y-88649572D01*
X147351904Y-88601953D01*
X147304285Y-88554334D01*
X147256666Y-88459096D01*
X147256666Y-88363858D01*
X147304285Y-88268620D01*
X147351904Y-88221001D01*
X147447142Y-88173381D01*
X147685238Y-88173381D01*
X147828095Y-88221001D01*
X148161428Y-88173381D02*
X148399523Y-89173381D01*
X148590000Y-88459096D01*
X148780476Y-89173381D01*
X149018571Y-88173381D01*
X149351904Y-88268620D02*
X149399523Y-88221001D01*
X149494761Y-88173381D01*
X149732857Y-88173381D01*
X149828095Y-88221001D01*
X149875714Y-88268620D01*
X149923333Y-88363858D01*
X149923333Y-88459096D01*
X149875714Y-88601953D01*
X149304285Y-89173381D01*
X149923333Y-89173381D01*
%TO.C,SW3*%
X147256666Y-108735761D02*
X147399523Y-108783380D01*
X147637619Y-108783380D01*
X147732857Y-108735761D01*
X147780476Y-108688142D01*
X147828095Y-108592904D01*
X147828095Y-108497666D01*
X147780476Y-108402428D01*
X147732857Y-108354809D01*
X147637619Y-108307190D01*
X147447142Y-108259571D01*
X147351904Y-108211952D01*
X147304285Y-108164333D01*
X147256666Y-108069095D01*
X147256666Y-107973857D01*
X147304285Y-107878619D01*
X147351904Y-107831000D01*
X147447142Y-107783380D01*
X147685238Y-107783380D01*
X147828095Y-107831000D01*
X148161428Y-107783380D02*
X148399523Y-108783380D01*
X148590000Y-108069095D01*
X148780476Y-108783380D01*
X149018571Y-107783380D01*
X149304285Y-107783380D02*
X149923333Y-107783380D01*
X149590000Y-108164333D01*
X149732857Y-108164333D01*
X149828095Y-108211952D01*
X149875714Y-108259571D01*
X149923333Y-108354809D01*
X149923333Y-108592904D01*
X149875714Y-108688142D01*
X149828095Y-108735761D01*
X149732857Y-108783380D01*
X149447142Y-108783380D01*
X149351904Y-108735761D01*
X149304285Y-108688142D01*
%TO.C,SW4*%
X147256666Y-128420761D02*
X147399523Y-128468380D01*
X147637619Y-128468380D01*
X147732857Y-128420761D01*
X147780476Y-128373142D01*
X147828095Y-128277904D01*
X147828095Y-128182666D01*
X147780476Y-128087428D01*
X147732857Y-128039809D01*
X147637619Y-127992190D01*
X147447142Y-127944571D01*
X147351904Y-127896952D01*
X147304285Y-127849333D01*
X147256666Y-127754095D01*
X147256666Y-127658857D01*
X147304285Y-127563619D01*
X147351904Y-127516000D01*
X147447142Y-127468380D01*
X147685238Y-127468380D01*
X147828095Y-127516000D01*
X148161428Y-127468380D02*
X148399523Y-128468380D01*
X148590000Y-127754095D01*
X148780476Y-128468380D01*
X149018571Y-127468380D01*
X149828095Y-127801714D02*
X149828095Y-128468380D01*
X149590000Y-127420761D02*
X149351904Y-128135047D01*
X149970952Y-128135047D01*
%TO.C,SW5*%
X166941666Y-69365761D02*
X167084523Y-69413380D01*
X167322619Y-69413380D01*
X167417857Y-69365761D01*
X167465476Y-69318142D01*
X167513095Y-69222904D01*
X167513095Y-69127666D01*
X167465476Y-69032428D01*
X167417857Y-68984809D01*
X167322619Y-68937190D01*
X167132142Y-68889571D01*
X167036904Y-68841952D01*
X166989285Y-68794333D01*
X166941666Y-68699095D01*
X166941666Y-68603857D01*
X166989285Y-68508619D01*
X167036904Y-68461000D01*
X167132142Y-68413380D01*
X167370238Y-68413380D01*
X167513095Y-68461000D01*
X167846428Y-68413380D02*
X168084523Y-69413380D01*
X168275000Y-68699095D01*
X168465476Y-69413380D01*
X168703571Y-68413380D01*
X169560714Y-68413380D02*
X169084523Y-68413380D01*
X169036904Y-68889571D01*
X169084523Y-68841952D01*
X169179761Y-68794333D01*
X169417857Y-68794333D01*
X169513095Y-68841952D01*
X169560714Y-68889571D01*
X169608333Y-68984809D01*
X169608333Y-69222904D01*
X169560714Y-69318142D01*
X169513095Y-69365761D01*
X169417857Y-69413380D01*
X169179761Y-69413380D01*
X169084523Y-69365761D01*
X169036904Y-69318142D01*
%TO.C,SW6*%
X166941666Y-89125762D02*
X167084523Y-89173381D01*
X167322619Y-89173381D01*
X167417857Y-89125762D01*
X167465476Y-89078143D01*
X167513095Y-88982905D01*
X167513095Y-88887667D01*
X167465476Y-88792429D01*
X167417857Y-88744810D01*
X167322619Y-88697191D01*
X167132142Y-88649572D01*
X167036904Y-88601953D01*
X166989285Y-88554334D01*
X166941666Y-88459096D01*
X166941666Y-88363858D01*
X166989285Y-88268620D01*
X167036904Y-88221001D01*
X167132142Y-88173381D01*
X167370238Y-88173381D01*
X167513095Y-88221001D01*
X167846428Y-88173381D02*
X168084523Y-89173381D01*
X168275000Y-88459096D01*
X168465476Y-89173381D01*
X168703571Y-88173381D01*
X169513095Y-88173381D02*
X169322619Y-88173381D01*
X169227380Y-88221001D01*
X169179761Y-88268620D01*
X169084523Y-88411477D01*
X169036904Y-88601953D01*
X169036904Y-88982905D01*
X169084523Y-89078143D01*
X169132142Y-89125762D01*
X169227380Y-89173381D01*
X169417857Y-89173381D01*
X169513095Y-89125762D01*
X169560714Y-89078143D01*
X169608333Y-88982905D01*
X169608333Y-88744810D01*
X169560714Y-88649572D01*
X169513095Y-88601953D01*
X169417857Y-88554334D01*
X169227380Y-88554334D01*
X169132142Y-88601953D01*
X169084523Y-88649572D01*
X169036904Y-88744810D01*
%TO.C,SW7*%
X166941666Y-108735761D02*
X167084523Y-108783380D01*
X167322619Y-108783380D01*
X167417857Y-108735761D01*
X167465476Y-108688142D01*
X167513095Y-108592904D01*
X167513095Y-108497666D01*
X167465476Y-108402428D01*
X167417857Y-108354809D01*
X167322619Y-108307190D01*
X167132142Y-108259571D01*
X167036904Y-108211952D01*
X166989285Y-108164333D01*
X166941666Y-108069095D01*
X166941666Y-107973857D01*
X166989285Y-107878619D01*
X167036904Y-107831000D01*
X167132142Y-107783380D01*
X167370238Y-107783380D01*
X167513095Y-107831000D01*
X167846428Y-107783380D02*
X168084523Y-108783380D01*
X168275000Y-108069095D01*
X168465476Y-108783380D01*
X168703571Y-107783380D01*
X168989285Y-107783380D02*
X169655952Y-107783380D01*
X169227380Y-108783380D01*
%TO.C,SW8*%
X166941666Y-128420761D02*
X167084523Y-128468380D01*
X167322619Y-128468380D01*
X167417857Y-128420761D01*
X167465476Y-128373142D01*
X167513095Y-128277904D01*
X167513095Y-128182666D01*
X167465476Y-128087428D01*
X167417857Y-128039809D01*
X167322619Y-127992190D01*
X167132142Y-127944571D01*
X167036904Y-127896952D01*
X166989285Y-127849333D01*
X166941666Y-127754095D01*
X166941666Y-127658857D01*
X166989285Y-127563619D01*
X167036904Y-127516000D01*
X167132142Y-127468380D01*
X167370238Y-127468380D01*
X167513095Y-127516000D01*
X167846428Y-127468380D02*
X168084523Y-128468380D01*
X168275000Y-127754095D01*
X168465476Y-128468380D01*
X168703571Y-127468380D01*
X169227380Y-127896952D02*
X169132142Y-127849333D01*
X169084523Y-127801714D01*
X169036904Y-127706476D01*
X169036904Y-127658857D01*
X169084523Y-127563619D01*
X169132142Y-127516000D01*
X169227380Y-127468380D01*
X169417857Y-127468380D01*
X169513095Y-127516000D01*
X169560714Y-127563619D01*
X169608333Y-127658857D01*
X169608333Y-127706476D01*
X169560714Y-127801714D01*
X169513095Y-127849333D01*
X169417857Y-127896952D01*
X169227380Y-127896952D01*
X169132142Y-127944571D01*
X169084523Y-127992190D01*
X169036904Y-128087428D01*
X169036904Y-128277904D01*
X169084523Y-128373142D01*
X169132142Y-128420761D01*
X169227380Y-128468380D01*
X169417857Y-128468380D01*
X169513095Y-128420761D01*
X169560714Y-128373142D01*
X169608333Y-128277904D01*
X169608333Y-128087428D01*
X169560714Y-127992190D01*
X169513095Y-127944571D01*
X169417857Y-127896952D01*
%TO.C,SW9*%
X186626666Y-69365761D02*
X186769523Y-69413380D01*
X187007619Y-69413380D01*
X187102857Y-69365761D01*
X187150476Y-69318142D01*
X187198095Y-69222904D01*
X187198095Y-69127666D01*
X187150476Y-69032428D01*
X187102857Y-68984809D01*
X187007619Y-68937190D01*
X186817142Y-68889571D01*
X186721904Y-68841952D01*
X186674285Y-68794333D01*
X186626666Y-68699095D01*
X186626666Y-68603857D01*
X186674285Y-68508619D01*
X186721904Y-68461000D01*
X186817142Y-68413380D01*
X187055238Y-68413380D01*
X187198095Y-68461000D01*
X187531428Y-68413380D02*
X187769523Y-69413380D01*
X187960000Y-68699095D01*
X188150476Y-69413380D01*
X188388571Y-68413380D01*
X188817142Y-69413380D02*
X189007619Y-69413380D01*
X189102857Y-69365761D01*
X189150476Y-69318142D01*
X189245714Y-69175285D01*
X189293333Y-68984809D01*
X189293333Y-68603857D01*
X189245714Y-68508619D01*
X189198095Y-68461000D01*
X189102857Y-68413380D01*
X188912380Y-68413380D01*
X188817142Y-68461000D01*
X188769523Y-68508619D01*
X188721904Y-68603857D01*
X188721904Y-68841952D01*
X188769523Y-68937190D01*
X188817142Y-68984809D01*
X188912380Y-69032428D01*
X189102857Y-69032428D01*
X189198095Y-68984809D01*
X189245714Y-68937190D01*
X189293333Y-68841952D01*
%TO.C,SW10*%
X186150476Y-89125762D02*
X186293333Y-89173381D01*
X186531428Y-89173381D01*
X186626666Y-89125762D01*
X186674285Y-89078143D01*
X186721904Y-88982905D01*
X186721904Y-88887667D01*
X186674285Y-88792429D01*
X186626666Y-88744810D01*
X186531428Y-88697191D01*
X186340952Y-88649572D01*
X186245714Y-88601953D01*
X186198095Y-88554334D01*
X186150476Y-88459096D01*
X186150476Y-88363858D01*
X186198095Y-88268620D01*
X186245714Y-88221001D01*
X186340952Y-88173381D01*
X186579047Y-88173381D01*
X186721904Y-88221001D01*
X187055238Y-88173381D02*
X187293333Y-89173381D01*
X187483809Y-88459096D01*
X187674285Y-89173381D01*
X187912380Y-88173381D01*
X188817142Y-89173381D02*
X188245714Y-89173381D01*
X188531428Y-89173381D02*
X188531428Y-88173381D01*
X188436190Y-88316239D01*
X188340952Y-88411477D01*
X188245714Y-88459096D01*
X189436190Y-88173381D02*
X189531428Y-88173381D01*
X189626666Y-88221001D01*
X189674285Y-88268620D01*
X189721904Y-88363858D01*
X189769523Y-88554334D01*
X189769523Y-88792429D01*
X189721904Y-88982905D01*
X189674285Y-89078143D01*
X189626666Y-89125762D01*
X189531428Y-89173381D01*
X189436190Y-89173381D01*
X189340952Y-89125762D01*
X189293333Y-89078143D01*
X189245714Y-88982905D01*
X189198095Y-88792429D01*
X189198095Y-88554334D01*
X189245714Y-88363858D01*
X189293333Y-88268620D01*
X189340952Y-88221001D01*
X189436190Y-88173381D01*
%TO.C,SW11*%
X186150476Y-108735761D02*
X186293333Y-108783380D01*
X186531428Y-108783380D01*
X186626666Y-108735761D01*
X186674285Y-108688142D01*
X186721904Y-108592904D01*
X186721904Y-108497666D01*
X186674285Y-108402428D01*
X186626666Y-108354809D01*
X186531428Y-108307190D01*
X186340952Y-108259571D01*
X186245714Y-108211952D01*
X186198095Y-108164333D01*
X186150476Y-108069095D01*
X186150476Y-107973857D01*
X186198095Y-107878619D01*
X186245714Y-107831000D01*
X186340952Y-107783380D01*
X186579047Y-107783380D01*
X186721904Y-107831000D01*
X187055238Y-107783380D02*
X187293333Y-108783380D01*
X187483809Y-108069095D01*
X187674285Y-108783380D01*
X187912380Y-107783380D01*
X188817142Y-108783380D02*
X188245714Y-108783380D01*
X188531428Y-108783380D02*
X188531428Y-107783380D01*
X188436190Y-107926238D01*
X188340952Y-108021476D01*
X188245714Y-108069095D01*
X189769523Y-108783380D02*
X189198095Y-108783380D01*
X189483809Y-108783380D02*
X189483809Y-107783380D01*
X189388571Y-107926238D01*
X189293333Y-108021476D01*
X189198095Y-108069095D01*
%TO.C,SW12*%
X186150476Y-128420761D02*
X186293333Y-128468380D01*
X186531428Y-128468380D01*
X186626666Y-128420761D01*
X186674285Y-128373142D01*
X186721904Y-128277904D01*
X186721904Y-128182666D01*
X186674285Y-128087428D01*
X186626666Y-128039809D01*
X186531428Y-127992190D01*
X186340952Y-127944571D01*
X186245714Y-127896952D01*
X186198095Y-127849333D01*
X186150476Y-127754095D01*
X186150476Y-127658857D01*
X186198095Y-127563619D01*
X186245714Y-127516000D01*
X186340952Y-127468380D01*
X186579047Y-127468380D01*
X186721904Y-127516000D01*
X187055238Y-127468380D02*
X187293333Y-128468380D01*
X187483809Y-127754095D01*
X187674285Y-128468380D01*
X187912380Y-127468380D01*
X188817142Y-128468380D02*
X188245714Y-128468380D01*
X188531428Y-128468380D02*
X188531428Y-127468380D01*
X188436190Y-127611238D01*
X188340952Y-127706476D01*
X188245714Y-127754095D01*
X189198095Y-127563619D02*
X189245714Y-127516000D01*
X189340952Y-127468380D01*
X189579047Y-127468380D01*
X189674285Y-127516000D01*
X189721904Y-127563619D01*
X189769523Y-127658857D01*
X189769523Y-127754095D01*
X189721904Y-127896952D01*
X189150476Y-128468380D01*
X189769523Y-128468380D01*
%TO.C,H1*%
X133223095Y-45664380D02*
X133223095Y-44664380D01*
X133223095Y-45140571D02*
X133794523Y-45140571D01*
X133794523Y-45664380D02*
X133794523Y-44664380D01*
X134794523Y-45664380D02*
X134223095Y-45664380D01*
X134508809Y-45664380D02*
X134508809Y-44664380D01*
X134413571Y-44807238D01*
X134318333Y-44902476D01*
X134223095Y-44950095D01*
%TO.C,H2*%
X133223095Y-137866380D02*
X133223095Y-136866380D01*
X133223095Y-137342571D02*
X133794523Y-137342571D01*
X133794523Y-137866380D02*
X133794523Y-136866380D01*
X134223095Y-136961619D02*
X134270714Y-136914000D01*
X134365952Y-136866380D01*
X134604047Y-136866380D01*
X134699285Y-136914000D01*
X134746904Y-136961619D01*
X134794523Y-137056857D01*
X134794523Y-137152095D01*
X134746904Y-137294952D01*
X134175476Y-137866380D01*
X134794523Y-137866380D01*
%TO.C,H3*%
X201803095Y-45664380D02*
X201803095Y-44664380D01*
X201803095Y-45140571D02*
X202374523Y-45140571D01*
X202374523Y-45664380D02*
X202374523Y-44664380D01*
X202755476Y-44664380D02*
X203374523Y-44664380D01*
X203041190Y-45045333D01*
X203184047Y-45045333D01*
X203279285Y-45092952D01*
X203326904Y-45140571D01*
X203374523Y-45235809D01*
X203374523Y-45473904D01*
X203326904Y-45569142D01*
X203279285Y-45616761D01*
X203184047Y-45664380D01*
X202898333Y-45664380D01*
X202803095Y-45616761D01*
X202755476Y-45569142D01*
%TO.C,H4*%
X201803095Y-137612380D02*
X201803095Y-136612380D01*
X201803095Y-137088571D02*
X202374523Y-137088571D01*
X202374523Y-137612380D02*
X202374523Y-136612380D01*
X203279285Y-136945714D02*
X203279285Y-137612380D01*
X203041190Y-136564761D02*
X202803095Y-137279047D01*
X203422142Y-137279047D01*
%TD*%
M02*
