M48
; DRILL file {KiCad (5.1.9-0-10_14)} date Thursday, March 18, 2021 at 08:01:12 PM
; FORMAT={-:-/ absolute / inch / decimal}
; #@! TF.CreationDate,2021-03-18T20:01:12-04:00
; #@! TF.GenerationSoftware,Kicad,Pcbnew,(5.1.9-0-10_14)
FMAT,2
INCH
T1C0.0433
T2C0.0591
T3C0.0669
T4C0.1575
T5C0.1693
%
G90
G05
T1
X5.525Y-1.85
X5.525Y-2.075
X5.525Y-2.3
X5.525Y-2.5
X5.825Y-1.85
X5.825Y-2.075
X5.825Y-2.3
X5.825Y-2.5
X6.05Y-1.85
X6.05Y-2.075
X6.05Y-2.3
X6.05Y-2.5
X6.35Y-1.85
X6.35Y-2.075
X6.35Y-2.3
X6.35Y-2.5
X6.575Y-1.85
X6.575Y-2.075
X6.575Y-2.3
X6.575Y-2.5
X6.875Y-1.85
X6.875Y-2.075
X6.875Y-2.3
X6.875Y-2.5
T2
X5.7Y-2.925
X5.7Y-3.703
X5.7Y-4.475
X5.7Y-5.25
X5.95Y-2.825
X5.95Y-3.603
X5.95Y-4.375
X5.95Y-5.15
X6.475Y-2.925
X6.475Y-3.703
X6.475Y-4.475
X6.475Y-5.25
X6.725Y-2.825
X6.725Y-3.603
X6.725Y-4.375
X6.725Y-5.15
X7.25Y-2.925
X7.25Y-3.703
X7.25Y-4.475
X7.25Y-5.25
X7.5Y-2.825
X7.5Y-3.603
X7.5Y-4.375
X7.5Y-5.15
T3
X5.65Y-3.025
X5.65Y-3.803
X5.65Y-4.575
X5.65Y-5.35
X6.05Y-3.025
X6.05Y-3.803
X6.05Y-4.575
X6.05Y-5.35
X6.425Y-3.025
X6.425Y-3.803
X6.425Y-4.575
X6.425Y-5.35
X6.825Y-3.025
X6.825Y-3.803
X6.825Y-4.575
X6.825Y-5.35
X7.2Y-3.025
X7.2Y-3.803
X7.2Y-4.575
X7.2Y-5.35
X7.6Y-3.025
X7.6Y-3.803
X7.6Y-4.575
X7.6Y-5.35
T4
X5.85Y-3.025
X5.85Y-3.803
X5.85Y-4.575
X5.85Y-5.35
X6.625Y-3.025
X6.625Y-3.803
X6.625Y-4.575
X6.625Y-5.35
X7.4Y-3.025
X7.4Y-3.803
X7.4Y-4.575
X7.4Y-5.35
T5
X5.275Y-1.925
X5.275Y-5.575
X7.975Y-1.925
X7.975Y-5.575
T0
M30
